<?xml version="1.0" encoding="utf-8"?>
<!-- Generator: Adobe Illustrator 18.0.0, SVG Export Plug-In . SVG Version: 6.00 Build 0)  -->
<!DOCTYPE svg PUBLIC "-//W3C//DTD SVG 1.1//EN" "http://www.w3.org/Graphics/SVG/1.1/DTD/svg11.dtd">
<svg version="1.1" id="Layer_1" xmlns="http://www.w3.org/2000/svg" xmlns:xlink="http://www.w3.org/1999/xlink" x="0px" y="0px"
	 viewBox="0 0 400 100" enable-background="new 0 0 400 100" xml:space="preserve">
<g id="Infratab">
	<rect x="104.3" y="21.5" fill="none" width="296.3" height="71.2"/>
	<text transform="matrix(1 0 0 1 104.2735 81.2924)"><tspan x="0" y="0" fill="#0156A4" font-family="'MyriadPro-Semibold'" font-size="84.1671" letter-spacing="-1">Infra</tspan><tspan x="164" y="0" fill="#51B848" font-family="'MyriadPro-Semibold'" font-size="84.1671" letter-spacing="-1">tab</tspan></text>
	<rect x="384.8" y="38.5" fill="none" width="17.9" height="28.1"/>
	<text transform="matrix(1 0 0 1 384.8292 45.9501)" fill="#51B848" font-family="'MyriadPro-Semibold'" font-size="10.5209">TM</text>
</g>
<g id="Logo">
	<path id="green_2_" fill="none" stroke="#50B849" stroke-width="7" stroke-miterlimit="10" d="M1,17.1l12.1,0l15.3,0
		c0,0,1.5,0.3,3.2,1.1c1.7,0.8,3.6,2.1,4.3,4c0,0,0.7,1.1,1.7,2.4c1.1,1.3,2.5,2.8,3.9,3.5c0,0,1.9,1,4,2.5c2.5,1.7,5.2,4.1,5.5,6.3
		c0,0,2.9,8,9.6,4.6c0,0,5.4-1.2,8.1,3l5.4,2.1l6.5,3.2c0,0,5.9,1.9,9.8,4.7c3.4,2.7,4.9,2.4,5,2.4"/>
	<path id="red_1_" fill="none" stroke="#EE3425" stroke-width="7" stroke-miterlimit="10" d="M1.1,70.1h24.8c0,0,3.4-0.8,5.8-5
		l8.9-20.7l10.5,24.1c0,0,22.4-21.9,32.9-12.5c0,0,8,7.3,11.2,7.3"/>
	<path id="yellow" fill="none" stroke="#FCB715" stroke-width="7" stroke-miterlimit="10" d="M1.1,82.2l29.3,0c0,0,3,0.8,7.2-5.5
		l7-12.3L53,82.3c0,0,22.3-19.1,36.1-7.8c0,0,3.2,3.5,6.1,3.5"/>
</g>
</svg>
