<?xml version="1.0" encoding="utf-8"?>
<!-- Generator: Adobe Illustrator 18.0.0, SVG Export Plug-In . SVG Version: 6.00 Build 0)  -->
<!DOCTYPE svg PUBLIC "-//W3C//DTD SVG 1.1//EN" "http://www.w3.org/Graphics/SVG/1.1/DTD/svg11.dtd">
<svg version="1.1" id="Layer_1" xmlns="http://www.w3.org/2000/svg" xmlns:xlink="http://www.w3.org/1999/xlink" x="0px" y="0px"
	 viewBox="0 0 400 100" enable-background="new 0 0 400 100" xml:space="preserve">
<text transform="matrix(1 0 0 1 102.4106 68.4002)" fill="#0C57A4" font-family="'MyriadPro-Semibold'" font-size="78.4">Infra</text>
<text transform="matrix(1 0 0 1 260.6971 68.4002)" fill="#4EB749" font-family="'MyriadPro-Semibold'" font-size="78.4">tab</text>
<text transform="matrix(1 0 0 1 373.9043 36.4092)" fill="#4EB749" font-family="'MyriadPro-Semibold'" font-size="16.7904">TM</text>
<text transform="matrix(1 0 0 1 142.4106 91.5996)" fill="#0C57A4" font-family="'MyriadPro-It'" font-size="19.2">Answering “is it fresh?”</text>
<path id="green_2_" fill="none" stroke="#50B849" stroke-width="7" stroke-miterlimit="10" d="M5.1,11.1h10.7h13.6
	c0,0,1.4,0.3,2.9,1c1.6,0.6,3.2,1.8,3.8,3.5c0,0,0.6,1,1.6,2.2c1,1.1,2.2,2.6,3.5,3.2c0,0,1.6,1,3.5,2.2c2.2,1.6,4.6,3.7,5,5.6
	c0,0,2.6,7,8.6,4c0,0,4.8-1.1,7.2,2.7l4.8,1.9l5.8,2.9c0,0,5.3,1.8,8.6,4.2c3,2.4,4.3,2.1,4.5,2.1"/>
<path id="red_1_" fill="none" stroke="#EE3425" stroke-width="7" stroke-miterlimit="10" d="M5.1,58.3h22.1c0,0,3-0.6,5.1-4.5
	l8-18.4l9.4,21.4c0,0,19.8-19.5,29.3-11.2c0,0,7,6.4,9.9,6.4"/>
<path id="yellow" fill="none" stroke="#FCB715" stroke-width="7" stroke-miterlimit="10" d="M5.1,69h26.1c0,0,2.7,0.6,6.4-5
	l6.2-10.9L51.4,69c0,0,19.8-17,32.2-7c0,0,2.9,3.2,5.4,3.2"/>
</svg>
