<?xml version="1.0" standalone="no"?>
<!DOCTYPE svg PUBLIC "-//W3C//DTD SVG 1.1//EN" "http://www.w3.org/Graphics/SVG/1.1/DTD/svg11.dtd" >
<svg xmlns="http://www.w3.org/2000/svg">
<metadata></metadata>
<defs>
<font id="calluna_sanssemibold" horiz-adv-x="491" >
<font-face units-per-em="2048" ascent="1536" descent="-512" />
<missing-glyph horiz-adv-x="500" />
<glyph unicode="&#xfb01;" horiz-adv-x="1110" d="M51 772v109l146 53v70q0 231 119 362t313 131q76 0 147 -19.5t104 -39.5l33 -19l-79 -151q-11 7 -30.5 18t-74 29t-102.5 18q-101 0 -164.5 -77t-63.5 -240v-90h566v-926h-203v782h-363v-782h-202v772h-146z" />
<glyph unicode="&#xfb02;" horiz-adv-x="1142" d="M51 772v109l146 53v70q0 231 119 362t313 131q128 0 241 -53l127 20v-1464h-200v1288q-97 45 -170 45q-101 0 -164.5 -77t-63.5 -240v-90h256v-154h-256v-772h-202v772h-146z" />
<glyph unicode="&#xfb03;" horiz-adv-x="1720" d="M51 772v109l146 53v39q0 224 118.5 349.5t313.5 125.5q148 0 282 -86q114 135 308 135q72 0 139.5 -19.5t99.5 -39.5l31 -19l-82 -151q-10 7 -27.5 18t-67 29t-93.5 18q-92 0 -149.5 -71t-57.5 -226v-110h563v-926h-201v782h-362v-782h-203v782h-410v-782h-202v772h-146z M399 926h410v98q0 100 25 186q-104 72 -205 72q-102 0 -166 -70.5t-64 -224.5v-61z" />
<glyph unicode="&#xfb04;" horiz-adv-x="1753" d="M51 772v109l146 53v39q0 224 118.5 349.5t313.5 125.5q67 0 133.5 -19t98.5 -36t57 -35q114 139 313 139q127 0 239 -55l140 22v-1464h-203v1282q-99 51 -178 51q-96 0 -156.5 -74.5t-60.5 -234.5v-98h254v-154h-254v-772h-203v782h-410v-782h-202v772h-146zM399 926h410 v86q0 104 29 196q-111 74 -209 74q-102 0 -166 -70.5t-64 -224.5v-61z" />
<glyph horiz-adv-x="0" />
<glyph horiz-adv-x="682" />
<glyph unicode=" " />
<glyph unicode="!" horiz-adv-x="567" d="M145 113q0 58 40.5 98.5t97.5 40.5q59 0 99 -40t40 -99q0 -57 -40.5 -97.5t-98.5 -40.5q-57 0 -97.5 40.5t-40.5 97.5zM168 1391h235l-34 -963h-170z" />
<glyph unicode="&#x22;" horiz-adv-x="747" d="M125 856v510h182v-76l-57 -434h-125zM465 856v510h184v-76l-59 -434h-125z" />
<glyph unicode="#" horiz-adv-x="1359" d="M72 244l22 127h256l60 284h-258l20 127h262l84 402h131l-82 -402h301l84 402h131l-82 -402h285l-22 -127h-289l-57 -284h288l-20 -127h-295l-86 -426h-133l86 426h-301l-86 -426h-133l86 426h-252zM483 371h301l60 284h-303z" />
<glyph unicode="$" horiz-adv-x="960" d="M78 86l45 174q4 -4 13 -10.5t38.5 -23t62.5 -30t85.5 -26.5t107.5 -16l10 344q-59 21 -104 41.5t-92 51t-77 64t-49.5 81t-19.5 102.5q0 123 89.5 210t269.5 101l6 178h94l-6 -176q81 -3 154.5 -18t106.5 -29l34 -14l-55 -166q-11 5 -32 13.5t-84.5 24t-127.5 19.5 l-8 -328q76 -28 131 -56t105 -68.5t76 -95t26 -122.5q0 -133 -94.5 -218.5t-262.5 -100.5l-4 -174h-94l4 170q-97 3 -184 27.5t-126 47.5zM289 850q0 -61 38.5 -96.5t116.5 -67.5l9 295q-164 -16 -164 -131zM524 156q158 19 158 143q0 62 -36.5 98t-113.5 66z" />
<glyph unicode="%" horiz-adv-x="1527" d="M76 1040q0 132 91 223t228 91q138 0 230 -91t92 -223q0 -131 -92 -222t-230 -91q-137 0 -228 91.5t-91 221.5zM211 1040q0 -74 52.5 -131t131.5 -57q80 0 133.5 57t53.5 131q0 75 -53 132t-134 57q-79 0 -131.5 -57t-52.5 -132zM223 0l963 1384l94 -63l-920 -1321h-137z M815 289q0 132 91.5 223.5t228.5 91.5q138 0 229.5 -91.5t91.5 -223.5q0 -131 -91.5 -222.5t-229.5 -91.5q-137 0 -228.5 91.5t-91.5 222.5zM950 289q0 -73 53 -130t132 -57q80 0 133 56.5t53 130.5q0 75 -52.5 131.5t-133.5 56.5q-79 0 -132 -56.5t-53 -131.5z" />
<glyph unicode="&#x26;" horiz-adv-x="1415" d="M80 328q0 67 22.5 125.5t66 106.5t89.5 84t109 75q-111 198 -111 342q0 61 20.5 117t61 105t111 78.5t161.5 29.5q155 0 242.5 -81.5t87.5 -213.5q0 -71 -24.5 -131t-73.5 -110.5t-95.5 -85.5t-117.5 -79q73 -103 112 -147q65 -81 179 -195q82 108 131 258.5t61 319.5 h186q-14 -169 -76 -357.5t-173 -332.5q180 -146 311 -183l-76 -139q-157 22 -373 184q-162 -123 -372 -123q-87 0 -166.5 21t-146 62.5t-106.5 111t-40 158.5zM274 340q0 -94 78.5 -146.5t190.5 -52.5q123 0 235 72q-92 82 -211 223q-57 68 -114 148q-86 -57 -132.5 -115 t-46.5 -129zM469 1065q0 -101 76 -240q100 61 153.5 120t53.5 134q0 61 -37 103.5t-103 42.5q-70 0 -106.5 -46t-36.5 -114z" />
<glyph unicode="'" horiz-adv-x="407" d="M125 856v510h188v-76l-73 -434h-115z" />
<glyph unicode="(" horiz-adv-x="600" d="M100 553q0 111 17 219t44.5 191.5t60.5 159.5t66 129.5t60.5 93t44.5 58.5l17 19l149 -45q-6 -7 -16.5 -20t-41 -57t-58 -92t-61.5 -123.5t-58.5 -153t-41 -178t-16.5 -201.5q0 -110 16.5 -218.5t43 -193t58.5 -161t63.5 -131t58 -95t42.5 -60.5l17 -20l-145 -53 q-13 14 -34.5 41.5t-77 119.5t-97.5 193t-76.5 258.5t-34.5 319.5z" />
<glyph unicode=")" horiz-adv-x="600" d="M35 -326q12 14 32.5 40t72.5 113.5t91.5 183t72 243.5t32.5 299q0 101 -16.5 201t-42.5 179t-57 151.5t-62.5 125t-57.5 91t-42 57.5l-17 20l152 45q6 -7 17.5 -20t43 -57.5t60.5 -94t64.5 -128t61 -160.5t43 -190.5t17.5 -219.5q0 -118 -17.5 -233.5t-45.5 -205.5 t-62 -171t-68 -138.5t-62 -100t-45 -62.5l-18 -21z" />
<glyph unicode="*" horiz-adv-x="1007" d="M86 854l301 102l35 -61l-240 -211zM86 1110l96 170l240 -209l-35 -61zM406 555l63 311h70l63 -311h-196zM406 1409h196l-63 -311h-70zM586 895l35 61l301 -102l-99 -170zM586 1071l237 209l99 -170l-301 -100z" />
<glyph unicode="+" horiz-adv-x="1064" d="M57 444v148h400v416h155v-416h394v-148h-394v-444h-155v444h-400z" />
<glyph unicode="," horiz-adv-x="487" d="M68 -289q73 67 92 92q45 59 45 138q0 58 -24 114t-83 140l197 63q84 -111 84 -238q0 -206 -232 -393z" />
<glyph unicode="-" horiz-adv-x="720" d="M111 438v156h499v-156h-499z" />
<glyph unicode="." horiz-adv-x="501" d="M113 113q0 58 40 98.5t97 40.5t98 -40.5t41 -98.5q0 -57 -41 -97.5t-98 -40.5t-97 40.5t-40 97.5z" />
<glyph unicode="/" horiz-adv-x="946" d="M45 -401l682 1767h154l-680 -1767h-156z" />
<glyph unicode="0" horiz-adv-x="1134" d="M94 471q0 98 30.5 189.5t88 166t151.5 119.5t211 45q113 0 203.5 -40.5t146.5 -109t85.5 -154t29.5 -179.5q0 -100 -29.5 -192.5t-86 -170t-151 -124t-214.5 -46.5q-110 0 -200.5 42.5t-147 113t-87 158t-30.5 182.5zM289 483q0 -89 29 -164.5t93.5 -126.5t155.5 -51 q95 0 160 51.5t92 127t27 167.5q0 89 -27.5 163t-92 124.5t-157.5 50.5q-70 0 -125.5 -29t-88 -78.5t-49.5 -109t-17 -125.5z" />
<glyph unicode="1" horiz-adv-x="800" d="M102 0v164h230v641h-217v162h417v-803h211v-164h-641z" />
<glyph unicode="2" horiz-adv-x="927" d="M90 123q10 7 26.5 19.5t65 51t93 77t98 93t92.5 104t65.5 104.5t26.5 100q0 66 -44 107.5t-114 41.5q-53 0 -109.5 -22t-87.5 -44l-30 -22l-82 129q6 5 17.5 14t47.5 31t74 39t95 31t112 14q145 0 238.5 -83t93.5 -208q0 -60 -24.5 -123t-59.5 -114t-91 -110t-100 -98 t-106 -91h467v-164h-756z" />
<glyph unicode="3" horiz-adv-x="827" d="M35 862q6 5 17.5 14t47.5 31t74.5 39t95.5 31t113 14q140 0 233 -77.5t93 -196.5q0 -109 -72.5 -197t-177.5 -145q136 -33 210 -120t74 -206q0 -133 -81.5 -235.5t-222 -156.5t-316.5 -54q-37 0 -57 2l-17 157q23 -2 66 -2q116 0 209 31t150.5 96.5t57.5 155.5 q0 46 -18.5 82.5t-48 59.5t-70.5 38t-83 21t-87 6h-49v158q72 6 146.5 46t126 104t51.5 130q0 60 -42 96.5t-106 36.5q-49 0 -106.5 -22t-89.5 -44l-33 -22z" />
<glyph unicode="4" horiz-adv-x="1081" d="M53 41v135l582 807h192v-784h191v-158h-191v-436h-198v436h-576zM260 199h369v522z" />
<glyph unicode="5" horiz-adv-x="827" d="M63 -238q74 -6 142.5 0t130 27t107 54t72 85t26.5 117q0 51 -15 93t-37.5 71.5t-61 54t-72.5 39.5t-85.5 28t-86.5 19.5t-89 14.5v602h602v-164h-407v-299q76 -18 138.5 -40.5t124.5 -60t104.5 -84t69 -114.5t26.5 -150q0 -148 -88.5 -254.5t-240 -156t-341.5 -39.5z" />
<glyph unicode="6" horiz-adv-x="1052" d="M88 567q0 124 29.5 240t91 219.5t150 182.5t214.5 127.5t275 54.5l14 -162q-122 -8 -219 -47.5t-162 -103t-105.5 -140t-60.5 -168.5q89 115 265 115q123 0 215 -61t138 -158.5t46 -214.5q0 -91 -28.5 -175t-82 -152t-138 -108.5t-187.5 -40.5q-112 0 -200 48t-143 131 t-83.5 188t-28.5 225zM297 586q0 -123 28 -222t87.5 -161t142.5 -62q100 0 157.5 81.5t57.5 205.5q0 39 -5.5 75.5t-20.5 76.5t-39.5 69.5t-66 48.5t-95.5 19q-137 0 -246 -109v-22z" />
<glyph unicode="7" horiz-adv-x="942" d="M57 784v183h836v-127q-221 -552 -578 -1250l-196 43q299 551 540 1151h-602z" />
<glyph unicode="8" horiz-adv-x="1050" d="M94 334q0 63 22 119t65 103.5t87.5 83t106.5 75.5q-98 78 -152.5 159t-54.5 185q0 145 107.5 238.5t271.5 93.5q157 0 260.5 -86t103.5 -228q0 -106 -60.5 -187t-168.5 -157q61 -42 103 -77t84 -82.5t63.5 -102.5t21.5 -117q0 -100 -54.5 -186.5t-155 -139.5t-224.5 -53 q-116 0 -213 45t-155 128t-58 186zM279 344q0 -88 69.5 -146.5t163.5 -58.5q96 0 167 58t71 143q0 40 -18 76.5t-58 74.5t-72.5 63t-93.5 67q-113 -74 -171 -136.5t-58 -140.5zM375 1071q0 -69 45 -126.5t129 -119.5q84 60 130 117t46 125q0 76 -52 118t-126 42 q-73 0 -122.5 -42.5t-49.5 -113.5z" />
<glyph unicode="9" horiz-adv-x="1060" d="M96 524q0 89 28.5 171.5t80.5 149t135.5 106.5t185.5 40q90 0 165 -31.5t128 -86.5t90 -130t54.5 -161t17.5 -181q0 -121 -29.5 -234.5t-91 -214.5t-150 -177t-214.5 -123t-275 -53l-14 161q124 7 222.5 46t163 102t104.5 137t59 162q-89 -115 -267 -115q-121 0 -212 61 t-136 158.5t-45 212.5zM305 553q0 -40 5 -77t20 -78t39 -70.5t65 -48.5t94 -19q137 0 244 107v6q0 199 -67 325.5t-191 126.5q-97 0 -153 -77.5t-56 -194.5z" />
<glyph unicode=":" horiz-adv-x="561" d="M143 113q0 58 40.5 98.5t97.5 40.5q59 0 99 -40t40 -99q0 -57 -40.5 -97.5t-98.5 -40.5q-57 0 -97.5 40.5t-40.5 97.5zM143 799q0 57 40.5 97t97.5 40q58 0 98.5 -40t40.5 -97t-40.5 -98.5t-98.5 -41.5q-57 0 -97.5 41.5t-40.5 98.5z" />
<glyph unicode=";" horiz-adv-x="552" d="M104 -289q73 67 92 91q46 59 46 139q0 58 -24 114t-83 140l197 63q84 -111 84 -238q0 -206 -232 -393zM139 797q0 58 40 98.5t97 40.5t98.5 -40.5t41.5 -98.5q0 -57 -41.5 -97.5t-98.5 -40.5t-97 40.5t-40 97.5z" />
<glyph unicode="&#x3c;" horiz-adv-x="1064" d="M59 467v94l873 469l35 -151l-699 -365l699 -383l-35 -151z" />
<glyph unicode="=" horiz-adv-x="1064" d="M78 252v147h909v-147h-909zM78 627v147h909v-147h-909z" />
<glyph unicode="&#x3e;" horiz-adv-x="1064" d="M96 131l699 383l-699 365l37 151l873 -469v-94l-873 -487z" />
<glyph unicode="?" horiz-adv-x="757" d="M90 1262l45 186q12 -3 31.5 -9.5t77 -28t109.5 -46t115.5 -62t109 -77.5t77 -92t31.5 -105q0 -39 -17.5 -78t-45 -74t-61 -71.5t-66.5 -77t-60.5 -84t-45 -99.5t-17.5 -116h-164q-6 26 -6 59q0 72 26 140.5t63 120t74 97t63 87t26 72.5q0 37 -37.5 77t-91.5 71 t-107.5 56.5t-90.5 39.5zM158 113q0 58 41 98.5t98 40.5t98 -40.5t41 -98.5q0 -57 -41 -97.5t-98 -40.5t-98 40.5t-41 97.5z" />
<glyph unicode="@" horiz-adv-x="1736" d="M82 397q0 129 38 251.5t111.5 226t173.5 182t231 122.5t277 44q159 0 295.5 -52t230.5 -142t147.5 -215t53.5 -267q0 -133 -49 -252t-153 -191q-35 -26 -84 -45.5t-81.5 -28.5t-112.5 -27.5t-116 -27.5q-20 84 -32 150q-32 -62 -103.5 -106t-152.5 -44 q-128 0 -214.5 107.5t-86.5 284.5q0 124 47 228.5t126 173.5t181 107.5t213 38.5q31 0 69 -3t61 -6l22 -3v-584q0 -43 4 -84.5t8 -62.5l4 -20q144 13 215.5 115t71.5 259t-65.5 283t-195 202t-301.5 76q-148 0 -275 -57t-212.5 -152.5t-133.5 -220.5t-48 -262 q0 -133 46.5 -249t123.5 -194t175 -125t202 -52l-25 -137q-193 10 -350 113t-246.5 273.5t-89.5 372.5zM657 379q0 -102 37.5 -172t102.5 -70q58 0 105 41.5t77 89.5v498q-140 0 -231 -113.5t-91 -273.5z" />
<glyph unicode="A" horiz-adv-x="1282" d="M20 0l521 1376h200l521 -1376h-218l-135 365h-544l-134 -365h-211zM430 541h416l-209 565z" />
<glyph unicode="B" horiz-adv-x="1216" d="M186 0v1366h402q102 0 183 -19t132.5 -50.5t85.5 -75t48 -88.5t14 -95q0 -98 -48.5 -173.5t-115.5 -127.5q29 -12 56 -27t61.5 -44.5t59.5 -64.5t42.5 -88.5t17.5 -115.5q0 -180 -130 -288.5t-337 -108.5h-471zM397 176h230q138 0 206 58t68 159q0 100 -68.5 159.5 t-205.5 59.5h-230v-436zM397 786h299q5 3 14 8.5t31.5 26t40 43.5t31.5 61t14 79q0 186 -270 186h-160v-404z" />
<glyph unicode="C" horiz-adv-x="1380" d="M92 668q0 151 53 283t148.5 229.5t237 154t309.5 56.5q80 0 157 -12t129.5 -28.5t93.5 -33.5t60 -29l20 -12l-81 -184q-6 5 -17.5 12.5t-50.5 27.5t-81.5 35.5t-108.5 28t-134 12.5q-121 0 -220.5 -43t-162.5 -115.5t-97 -166t-34 -197.5q0 -229 146.5 -378.5 t367.5 -149.5q67 0 133.5 13.5t113.5 33t84.5 39.5t55.5 34l19 13l86 -158q-8 -6 -22 -17t-63 -38t-103.5 -48t-141 -38t-176.5 -17q-151 0 -283.5 49.5t-229.5 138.5t-152.5 220t-55.5 285z" />
<glyph unicode="D" horiz-adv-x="1484" d="M186 0v1366h447q115 0 221 -21.5t205 -72t171 -125t115.5 -188t43.5 -254.5q0 -225 -106.5 -385.5t-293 -240t-434.5 -79.5h-369zM397 176h138q168 0 292 39.5t196.5 110.5t107 161t34.5 201q0 233 -144.5 367.5t-416.5 134.5h-207v-1014z" />
<glyph unicode="E" horiz-adv-x="1116" d="M186 0v1366h832v-176h-621v-406h490v-178h-490v-430h627v-176h-838z" />
<glyph unicode="F" horiz-adv-x="1064" d="M186 0v1366h820v-176h-609v-414h482v-182h-482v-594h-211z" />
<glyph unicode="G" horiz-adv-x="1437" d="M92 662q0 116 32 223.5t95.5 199.5t153 160t212 107t263.5 39q77 0 153 -10.5t128.5 -25.5t94.5 -30.5t62 -26.5l21 -10l-82 -182q-7 4 -19 11t-52.5 24.5t-83 31t-106.5 24.5t-126 11q-102 0 -188.5 -28.5t-148 -78.5t-105 -117t-64.5 -144.5t-21 -161.5 q0 -232 152.5 -376t398.5 -144q53 0 113 7t93 14l34 7v359h-285v176h494v-682q-30 -7 -80.5 -17.5t-176.5 -28.5t-216 -18q-155 0 -291 48.5t-237 135.5t-159.5 217.5t-58.5 285.5z" />
<glyph unicode="H" horiz-adv-x="1552" d="M186 0v1366h211v-580h758v580h209v-1366h-209v608h-758v-608h-211z" />
<glyph unicode="I" horiz-adv-x="585" d="M186 0v1366h211v-1366h-211z" />
<glyph unicode="J" horiz-adv-x="585" d="M-57 -201q62 7 108.5 37t72 69t40.5 92.5t19.5 97t4.5 91.5v1180h211v-1176q0 -82 -10.5 -153t-37 -142t-69 -124.5t-111 -92t-157.5 -51.5z" />
<glyph unicode="K" horiz-adv-x="1228" d="M186 0v1366h211v-561h33l508 561h264l-592 -641l619 -725h-273l-526 627h-33v-627h-211z" />
<glyph unicode="L" horiz-adv-x="1067" d="M186 0v1366h211v-1190h639v-176h-850z" />
<glyph unicode="M" horiz-adv-x="1783" d="M164 0l49 1366h303l375 -1051l379 1051h301l49 -1366h-205l-41 1118l-411 -1118h-148l-412 1126l-34 -1126h-205z" />
<glyph unicode="N" horiz-adv-x="1529" d="M186 0v1366h213l738 -1047v1047h206v-1366h-213l-737 1034v-1034h-207z" />
<glyph unicode="O" horiz-adv-x="1634" d="M92 680q0 109 30.5 212.5t92.5 193.5t148 158t204.5 107.5t255.5 39.5q161 0 297 -53.5t228 -146t143 -217t51 -265.5q0 -143 -53 -276t-147 -234.5t-234 -162.5t-303 -61q-158 0 -293 57t-226 154t-142.5 225t-51.5 269zM315 690q0 -77 20 -153t61.5 -145t99.5 -121.5 t139.5 -83.5t175.5 -31q117 0 214.5 46t160.5 122.5t98 171.5t35 196q0 100 -33.5 192.5t-95.5 165.5t-158.5 116.5t-214.5 43.5q-117 0 -214 -44t-159 -118t-95.5 -166t-33.5 -192z" />
<glyph unicode="P" horiz-adv-x="1175" d="M186 0v1366h432q128 0 225.5 -33t155.5 -92t86.5 -132.5t28.5 -160.5q0 -208 -138 -329t-358 -121h-221v-498h-211zM397 674h187q155 0 231 67.5t76 192.5q0 116 -73 186t-234 70h-187v-516z" />
<glyph unicode="Q" horiz-adv-x="1634" d="M92 680q0 109 30.5 212.5t92 193.5t147.5 158t204.5 107.5t254.5 39.5q162 0 298.5 -53.5t228.5 -146t143 -217t51 -265.5q0 -158 -63 -302t-183 -251t-278 -152q38 -49 64.5 -80.5t77 -77.5t99.5 -72.5t121 -45.5q68 -19 142 -19h8l-31 -190h-12q-59 0 -114 9 q-61 10 -107.5 25.5t-94 42t-78 49t-66.5 57t-53.5 54t-45.5 52t-35 40.5l-62 72q-42 51 -124 62q-184 25 -325.5 125.5t-215.5 249.5t-74 323zM315 690q0 -98 32.5 -192t92.5 -171.5t156.5 -125t214.5 -47.5q117 0 215 46.5t161.5 123t98.5 173t35 197.5q0 78 -20.5 152.5 t-62.5 140.5t-101 115.5t-141 78.5t-177 29q-117 0 -214.5 -44t-159.5 -117.5t-96 -166.5t-34 -192z" />
<glyph unicode="R" horiz-adv-x="1249" d="M186 0v1366h402q128 0 225.5 -31.5t155 -86t86 -123t28.5 -148.5q0 -131 -74.5 -229t-187.5 -150l402 -598h-250l-365 549h-211v-549h-211zM397 725h187q120 0 198 63.5t78 174.5q0 101 -73.5 164t-233.5 63h-156v-465z" />
<glyph unicode="S" horiz-adv-x="1048" d="M90 90l60 193q6 -5 17.5 -13.5t48 -29.5t75 -37t95.5 -29.5t112 -13.5q104 0 174.5 46.5t70.5 129.5q0 45 -21.5 83.5t-58 68.5t-84 57.5t-99.5 54.5t-104 55.5t-99.5 64.5t-84 77t-58 98t-21.5 123q0 160 122.5 266.5t333.5 106.5q82 0 171.5 -15.5t138.5 -31.5l49 -15 l-43 -192q-18 8 -48 19.5t-114 30.5t-156 19q-106 0 -173.5 -43.5t-67.5 -122.5q0 -57 34.5 -104.5t90.5 -81.5t123 -67.5t134 -72.5t123 -86t90.5 -117.5t34.5 -158.5q0 -118 -63 -205t-166 -129.5t-231 -42.5q-68 0 -134.5 12t-113.5 28.5t-84 33.5t-56 29z" />
<glyph unicode="T" horiz-adv-x="1220" d="M35 1190v176h1151v-176h-473v-1190h-209v1190h-469z" />
<glyph unicode="U" horiz-adv-x="1466" d="M170 500v866h211v-836q0 -192 96 -283t258 -91q160 0 256 92t96 272v846h209v-838q0 -174 -77 -301.5t-203 -189.5t-283 -62q-96 0 -178.5 18t-154 58t-122 100t-79.5 149t-29 200z" />
<glyph unicode="V" horiz-adv-x="1220" d="M20 1366h224l370 -1063l371 1063h215l-489 -1376h-203z" />
<glyph unicode="W" horiz-adv-x="1957" d="M45 1366h217l313 -1071l312 1071h190l309 -1073l316 1073h211l-416 -1376h-215l-303 1014l-303 -1014h-217z" />
<glyph unicode="X" horiz-adv-x="1239" d="M43 0l453 680l-453 686h248l332 -516l331 516h242l-453 -682l453 -684h-248l-332 516l-331 -516h-242z" />
<glyph unicode="Y" horiz-adv-x="1208" d="M8 1366h248l350 -575l357 575h237l-489 -780v-586h-211v584z" />
<glyph unicode="Z" horiz-adv-x="1187" d="M74 0v125l741 1065h-700v176h970v-125l-731 -1065h750v-176h-1030z" />
<glyph unicode="[" horiz-adv-x="589" d="M164 -324v1690h391v-127h-236v-1436h236v-127h-391z" />
<glyph unicode="\" horiz-adv-x="950" d="M66 1366h157l682 -1767h-160z" />
<glyph unicode="]" horiz-adv-x="587" d="M33 -205h237v1452h-237v119h391v-1690h-391v119z" />
<glyph unicode="^" horiz-adv-x="991" d="M-4 512l438 879h121l438 -879h-168l-331 668l-332 -668h-166z" />
<glyph unicode="_" horiz-adv-x="1081" d="M29 -76h1024v-129h-1024v129z" />
<glyph unicode="`" horiz-adv-x="1038" d="M311 1438h205l209 -336l-113 -64z" />
<glyph unicode="a" horiz-adv-x="980" d="M66 213q0 143 141.5 232.5t406.5 123.5q0 103 -8 134q-19 74 -102 83q-15 2 -31 2q-68 0 -141 -26.5t-112 -53.5l-40 -26l-53 152q6 5 18 12.5t52.5 27.5t84 35.5t111 28t135.5 12.5q161 0 225 -69t64 -228v-391q0 -32 10.5 -56t25.5 -35t30.5 -17.5t26.5 -7.5l10 -1 l-62 -159q-99 7 -152 44.5t-75 98.5q-13 -20 -33.5 -41.5t-56.5 -49.5t-91 -45.5t-118 -17.5q-120 0 -193 67t-73 171zM274 227q0 -47 30.5 -69.5t78.5 -22.5q109 0 231 144v159q-176 -26 -258 -77.5t-82 -133.5z" />
<glyph unicode="b" horiz-adv-x="1079" d="M139 20v1412l203 32v-618q92 104 250 104q125 0 217.5 -61t139 -163t46.5 -230q0 -103 -32.5 -195.5t-94.5 -166t-163 -116.5t-228 -43q-141 0 -338 45zM342 150q63 -21 139 -21q136 0 220.5 92.5t84.5 259.5q0 143 -62 224t-165 81q-111 0 -217 -96v-540z" />
<glyph unicode="c" horiz-adv-x="944" d="M80 451q0 130 57 242.5t170 184.5t260 72q57 0 110.5 -10t89 -24.5t63 -29t40.5 -24.5l13 -10l-80 -152q-4 3 -11.5 9t-31.5 21t-49.5 26t-63.5 20.5t-76 9.5q-125 0 -202.5 -91.5t-77.5 -233.5q0 -140 75 -230t203 -90q65 0 127 24.5t92 48.5l29 24l66 -144 q-4 -5 -12.5 -13t-39 -28.5t-65.5 -36t-92 -28.5t-119 -13q-213 0 -344 135.5t-131 340.5z" />
<glyph unicode="d" horiz-adv-x="1099" d="M82 434q0 101 32 192.5t92.5 164.5t156.5 116t215 43q91 0 172 -30v512l202 32v-1179q0 -50 10 -121.5t20 -117.5l11 -46l-194 -14q-19 75 -29 141q-41 -67 -114.5 -109.5t-176.5 -42.5q-118 0 -209.5 62t-139.5 166t-48 231zM295 446q0 -143 60 -226t159 -83 q44 0 84.5 16.5t70.5 43.5t48 47.5t33 42.5v381q-3 65 -47.5 94t-114.5 29q-134 0 -213.5 -91t-79.5 -254z" />
<glyph unicode="e" horiz-adv-x="1003" d="M82 449q0 215 126.5 358t326.5 143q171 0 275.5 -113t104.5 -319l-116 -33l-506 -67q18 -128 92.5 -202.5t194.5 -74.5q44 0 89 12t78.5 28.5t61 33.5t41.5 29l14 12l58 -147q-6 -5 -17 -14.5t-48 -32.5t-77 -40.5t-103 -32t-128 -14.5q-112 0 -202.5 39t-147.5 105.5 t-87 151t-30 178.5zM293 553l401 51q-1 8 -2.5 20.5t-12.5 45t-27.5 57.5t-51.5 45.5t-80 20.5q-95 0 -154 -67t-73 -173z" />
<glyph unicode="f" horiz-adv-x="698" d="M51 772v109l146 53v90q0 223 113 348t298 125q72 0 139 -19.5t99 -39.5l31 -19l-80 -155q-10 7 -28 18t-68.5 29t-94.5 18q-91 0 -149 -70.5t-58 -222.5v-110h256v-154h-256v-772h-202v772h-146z" />
<glyph unicode="g" horiz-adv-x="1036" d="M53 -242q0 152 236 275q-75 25 -113.5 55.5t-38.5 75.5q0 89 146 172q-87 43 -136 120t-49 171q0 100 56 175t144 111.5t194 36.5q58 0 138 -19.5t130 -19.5h106q27 0 58 5.5t48 10.5l17 5l15 -162h-111q-39 0 -76 6q68 -77 68 -170q0 -97 -62 -169.5t-153.5 -107 t-194.5 -34.5q-47 0 -67 4q-39 -26 -57.5 -43t-18.5 -33q0 -26 74 -49q34 -11 208 -53q44 -11 71.5 -18.5t69 -21.5t67.5 -27t56 -33.5t47 -42.5t28.5 -53t11.5 -66q0 -92 -67.5 -171t-184.5 -126t-254 -47q-106 0 -196.5 26t-150 83t-59.5 134zM236 -209q0 -64 68.5 -96.5 t166.5 -32.5q123 0 209 48.5t86 117.5q0 20 -7 36t-25 29.5t-36.5 23.5t-54.5 22t-64.5 19.5t-80.5 21.5q-16 5 -62 14q-37 -20 -56 -31.5t-51 -34t-49 -41t-30.5 -44.5t-13.5 -52zM297 621q0 -73 50 -128t142 -55q86 0 140.5 47.5t54.5 124.5q0 75 -52 136t-143 61 q-88 0 -140 -55t-52 -131z" />
<glyph unicode="h" horiz-adv-x="1089" d="M143 0v1432l203 32v-694q27 30 60 57t79.5 57t105 48t118.5 18q116 0 181.5 -69t65.5 -213v-668h-202v594q0 180 -111 180q-67 0 -149 -56t-148 -122v-596h-203z" />
<glyph unicode="i" d="M119 1272q0 54 36.5 89.5t90.5 35.5q56 0 92.5 -35.5t36.5 -89.5t-36.5 -89.5t-92.5 -35.5q-54 0 -90.5 35.5t-36.5 89.5zM143 0v926h203v-926h-203z" />
<glyph unicode="j" d="M-90 -324q111 21 172 97t61 235v918h203v-895q0 -457 -375 -516zM117 1272q0 54 36.5 89.5t90.5 35.5q56 0 92.5 -35.5t36.5 -89.5t-36.5 -89.5t-92.5 -35.5q-54 0 -90.5 35.5t-36.5 89.5z" />
<glyph unicode="k" horiz-adv-x="1011" d="M143 0v1432l203 32v-876h29l336 338h264l-422 -406l451 -520h-261l-368 438h-29v-438h-203z" />
<glyph unicode="l" d="M143 0v1432l203 32v-1464h-203z" />
<glyph unicode="m" horiz-adv-x="1656" d="M139 0v909l199 33v-174q27 31 60.5 59t79.5 57.5t103 47.5t115 18q188 0 230 -182q167 182 356 182q112 0 176 -69t64 -213v-668h-201v594q0 95 -27 137.5t-80 42.5q-105 0 -278 -168v-606h-203v594q0 96 -25.5 138t-78.5 42q-66 0 -144.5 -54t-142.5 -118v-602h-203z " />
<glyph unicode="n" horiz-adv-x="1085" d="M139 0v909l199 33v-176q66 72 161 128t208 56q114 0 179.5 -69t65.5 -213v-668h-202v594q0 180 -111 180q-67 0 -148 -54t-149 -120v-600h-203z" />
<glyph unicode="o" horiz-adv-x="1114" d="M80 459q0 71 17.5 140t56.5 132.5t94 112t136 77.5t177 29q111 0 202.5 -39.5t149.5 -106t89.5 -150t31.5 -173.5q0 -69 -17.5 -139t-56 -136.5t-93.5 -117.5t-136.5 -82t-177.5 -31q-111 0 -202.5 41t-149.5 109t-89.5 154t-31.5 180zM291 477q0 -90 27.5 -165t90 -125 t150.5 -50q117 0 190.5 89t73.5 229q0 64 -15.5 121.5t-46.5 106t-83.5 77t-120.5 28.5q-118 0 -192 -86.5t-74 -224.5z" />
<glyph unicode="p" horiz-adv-x="1085" d="M139 -477v1386l197 33v-147q36 67 105.5 111t170.5 44q178 0 285 -131.5t107 -326.5q0 -103 -32 -196.5t-90.5 -165t-148 -113.5t-196.5 -42q-128 0 -195 50v-469zM342 240q0 -51 42 -78t116 -27q133 0 212 89.5t79 252.5q0 142 -58.5 223.5t-154.5 81.5q-43 0 -84 -17 t-71.5 -44t-48.5 -47t-32 -41v-393z" />
<glyph unicode="q" horiz-adv-x="1079" d="M82 430q0 103 32.5 195.5t95.5 165.5t164 116t228 43q68 0 152.5 -11t135.5 -23l50 -11v-1349l-203 -33v555q-95 -103 -252 -103q-125 0 -217.5 61t-139 163.5t-46.5 230.5zM293 444q0 -139 61.5 -219t163.5 -80q114 0 219 95v534q-65 21 -139 21q-137 0 -221 -92 t-84 -259z" />
<glyph unicode="r" horiz-adv-x="712" d="M139 0v909l199 33v-186q18 30 39.5 58t56 61.5t80.5 54t96 20.5q23 0 43 -4t29 -8l8 -4l-41 -205q-41 16 -82 16q-115 0 -225 -172v-573h-203z" />
<glyph unicode="s" horiz-adv-x="823" d="M78 57l43 172q5 -4 13 -10t35.5 -22.5t56.5 -29t72 -22.5t85 -10q79 0 119.5 28.5t40.5 74.5q0 33 -24.5 61t-64 49t-86.5 42.5t-94.5 47.5t-87 57.5t-64 79.5t-24.5 107q0 117 89 192.5t270 75.5q72 0 138 -13t96 -25l30 -13l-47 -166q-12 6 -33 16t-80 26t-112 16 q-73 0 -110.5 -25.5t-37.5 -67.5q0 -33 24.5 -60t63.5 -47.5t86.5 -41.5t95 -47t86.5 -57.5t63.5 -80t24.5 -108.5q0 -128 -96 -204.5t-264 -76.5q-86 0 -162.5 20.5t-110.5 40.5z" />
<glyph unicode="t" horiz-adv-x="774" d="M55 772v111l142 51v211l198 43v-262h293v-154h-293v-469q0 -158 107 -158q27 0 59.5 11.5t54 23.5t46.5 28.5t28 18.5l51 -153q-5 -4 -14 -10.5t-38.5 -24t-61 -30.5t-78 -23.5t-92.5 -10.5q-124 0 -194 69t-70 208v520h-138z" />
<glyph unicode="u" horiz-adv-x="1079" d="M133 254v672h203v-594q0 -95 28.5 -137.5t86.5 -42.5q114 0 276 151v623h203v-641q0 -50 10 -121t20 -116l11 -46l-197 -18q-21 95 -31 163q-26 -28 -58 -54t-78 -54.5t-104 -46t-118 -17.5q-118 0 -185 68t-67 211z" />
<glyph unicode="v" horiz-adv-x="952" d="M27 926h213l225 -672l260 672h207l-381 -934h-189z" />
<glyph unicode="w" horiz-adv-x="1542" d="M37 926h209l203 -701l239 701h176l217 -697l224 697h206l-331 -934h-199l-213 659l-238 -659h-196z" />
<glyph unicode="x" horiz-adv-x="958" d="M43 0l319 463l-319 463h236l202 -308l205 308h227l-317 -459l317 -467h-227l-209 315l-213 -315h-221z" />
<glyph unicode="y" horiz-adv-x="952" d="M23 926h215l243 -635l240 635h209l-402 -996q-25 -62 -54.5 -116.5t-69.5 -107t-85 -91.5t-102.5 -66t-120.5 -34l-63 161q98 17 177 88.5t122 172.5l49 110z" />
<glyph unicode="z" horiz-adv-x="903" d="M80 0v123l461 639h-445v164h711v-123l-471 -639h487v-164h-743z" />
<glyph unicode="{" horiz-adv-x="692" d="M29 475v125q36 1 67 11.5t53.5 29t41.5 43.5t31.5 55.5t22 64.5t14.5 70t9 73.5t4.5 74t1.5 71.5t0 66v31q0 85 32 148.5t90 102.5t135 58t171 19v-119q-54 -4 -93.5 -12t-69 -19.5t-48 -31.5t-30.5 -41t-17.5 -57t-7.5 -69.5t-2 -87.5q0 -456 -217 -540v-4 q34 -13 63.5 -38t58.5 -70t49.5 -106t33 -151t12.5 -199q0 -63 2.5 -100.5t11.5 -76t26 -59t47.5 -39.5t74 -28t106.5 -14v-119q-428 0 -428 328v31q0 63 -0.5 99t-5 104.5t-13 111.5t-26.5 98t-43.5 87t-65.5 55t-91 24z" />
<glyph unicode="|" horiz-adv-x="479" d="M162 -461v1995h155v-1995h-155z" />
<glyph unicode="}" horiz-adv-x="692" d="M-8 -344q63 5 106 14t73 28t47 39.5t26 59t11.5 76t2.5 100.5q0 109 12.5 199t33 151t49.5 106t58.5 70t63.5 38v4q-217 84 -217 540q0 54 -2 87.5t-7.5 69.5t-17 57t-30.5 41t-48 31.5t-68 19.5t-93 12v119q126 0 219.5 -33t150 -108t56.5 -187v-29v-74.5t2 -78t6 -84 t12.5 -79.5t20.5 -77t31 -64.5t43 -54.5t57.5 -34t73.5 -15v-125q-36 -1 -67 -12t-54 -30.5t-41.5 -46.5t-31 -58.5t-22.5 -67.5t-15 -74t-9 -76.5t-4.5 -76t-1.5 -73t0 -66.5v-29q0 -328 -426 -328v119z" />
<glyph unicode="~" horiz-adv-x="1191" d="M123 352q0 168 71.5 249t202.5 81q65 0 117 -20.5t85 -49t61.5 -57.5t62 -49.5t72.5 -20.5q41 0 69 19t41 50t18 60t5 60h145q0 -168 -71.5 -249t-202.5 -81q-65 0 -117 20.5t-85 49t-61.5 57.5t-62 49.5t-72.5 20.5q-41 0 -69 -19t-41 -50t-18 -60t-5 -60h-145z" />
<glyph unicode="&#xa0;" />
<glyph unicode="&#xa1;" horiz-adv-x="548" d="M137 813q0 57 40.5 97t98.5 40q57 0 97.5 -40t40.5 -97q0 -58 -40.5 -98.5t-97.5 -40.5q-58 0 -98.5 40t-40.5 99zM156 -465l34 963h170l31 -963h-235z" />
<glyph unicode="&#xa2;" horiz-adv-x="944" d="M80 569q0 108 44 201t135.5 158t215.5 78l6 180h94l-6 -178q55 -3 104.5 -16.5t81.5 -30.5t56 -33.5t35 -27.5l10 -11l-106 -133q-8 8 -23 20t-63.5 35t-98.5 29l-18 -537q60 2 119.5 25.5t88.5 45.5l29 23l66 -141q-4 -5 -12.5 -12.5t-37.5 -27.5t-62 -35t-86 -28.5 t-109 -15.5l-6 -182h-95l7 186q-169 24 -269 144t-100 284zM285 575q0 -93 44 -163.5t124 -96.5l16 521q-85 -20 -134.5 -91t-49.5 -170z" />
<glyph unicode="&#xa3;" horiz-adv-x="1116" d="M78 117q5 2 14 5.5t32 18.5t41.5 34t36 52t21.5 72l23 190h-125v109h139l21 168q50 395 378 395q58 0 111.5 -12.5t88.5 -30.5t61.5 -35.5t38.5 -30.5l12 -12l-109 -133q-3 4 -9 10t-26.5 21.5t-43 27.5t-57.5 21.5t-71 9.5q-78 0 -121.5 -52t-56.5 -185l-16 -162h364 l-12 -109h-362q-9 -84 -26.5 -161.5t-30.5 -113.5l-13 -36q17 -7 45.5 -17.5t103.5 -28t134 -17.5q178 0 204 149l13 68h151q-7 -62 -18.5 -112.5t-35.5 -103t-58 -87.5t-89 -57.5t-126 -22.5q-85 0 -227.5 42t-196.5 42q-72 0 -162 -33z" />
<glyph unicode="&#xa5;" horiz-adv-x="1148" d="M78 1137h221l274 -471l281 471h209l-289 -473h215v-109h-280l-35 -59v-84h315v-109h-315v-303h-203v303h-295v109h295v82l-39 61h-256v109h191z" />
<glyph unicode="&#xa6;" horiz-adv-x="497" d="M166 358h166v-733h-166v733zM166 676v733h166v-733h-166z" />
<glyph unicode="&#xa7;" horiz-adv-x="1005" d="M57 -379l62 119q5 -4 15 -10.5t41 -23t62 -29t75 -23t85 -10.5q121 0 184.5 88.5t63.5 228.5q0 66 -10 117l-111 606q-22 130 -22 205q0 136 53 213l127 -23q-35 -74 -35 -188q0 -53 10 -115l121 -682q13 -76 13 -137q0 -73 -14.5 -137.5t-45.5 -120.5t-76 -97t-110 -64 t-144 -23q-55 0 -111 11t-96 26.5t-72 31t-48 26.5zM190 948q0 92 23 170t69 140t122 97.5t174 35.5q55 0 111 -11t96 -26.5t72 -31.5t49 -27l16 -11l-62 -119q-5 4 -15 10.5t-41 23t-62 29.5t-75 23.5t-85 10.5q-121 0 -184.5 -89.5t-63.5 -228.5q0 -68 10 -117l111 -606 q20 -118 20 -205q0 -138 -51 -213l-125 23q35 81 35 188q0 53 -10 115l-121 682q-13 76 -13 137z" />
<glyph unicode="&#xa8;" horiz-adv-x="1038" d="M199 1270q0 51 34.5 83.5t85.5 32.5t85 -32.5t34 -83.5t-34 -83t-85 -32q-52 0 -86 32t-34 83zM598 1270q0 51 34 83.5t85 32.5q52 0 86.5 -32.5t34.5 -83.5q0 -50 -34.5 -82.5t-86.5 -32.5q-51 0 -85 32t-34 83z" />
<glyph unicode="&#xa9;" horiz-adv-x="1583" d="M84 682q0 191 95 354t258 258t354 95q143 0 274 -56t225.5 -151t150.5 -226t56 -274t-56 -274t-150.5 -226t-225.5 -151t-274 -56q-191 0 -354 95t-258 258t-95 354zM195 682q0 -166 78.5 -305.5t216 -221t301.5 -81.5q165 0 302.5 81.5t216.5 221t79 305.5t-79 305.5 t-216.5 221t-302.5 81.5q-164 0 -301.5 -81.5t-216 -221t-78.5 -305.5zM395 678q0 80 27.5 155t78.5 135.5t132 97t180 36.5q57 0 108 -12.5t84 -31t57.5 -36.5t35.5 -30l10 -13l-92 -121q-3 4 -9.5 10.5t-27 23t-43 29t-58 23t-71.5 10.5q-112 0 -173 -75.5t-61 -186.5 q0 -112 68.5 -191t183.5 -79q38 0 75 10t62.5 24.5t46 29t30.5 24.5l10 10l55 -127q-4 -5 -11.5 -13t-34.5 -28.5t-57.5 -36t-81.5 -28.5t-106 -13q-183 0 -300.5 116.5t-117.5 287.5z" />
<glyph unicode="&#xaa;" horiz-adv-x="796" d="M88 874q0 201 387 256q0 76 -16.5 107t-75.5 31q-49 0 -102.5 -21t-82.5 -42l-28 -21l-39 125q5 3 13.5 8.5t38 19.5t62 24.5t82 19t99.5 8.5q119 0 166 -48.5t47 -158.5v-269q0 -36 18.5 -56t36.5 -21l19 -2l-45 -121q-144 5 -179 94q-78 -100 -208 -100 q-86 0 -139.5 46t-53.5 121zM258 891q0 -33 18.5 -48.5t47.5 -15.5q41 0 76.5 26t74.5 71v106q-217 -35 -217 -139z" />
<glyph unicode="&#xab;" horiz-adv-x="1046" d="M43 510v8q30 24 199 213q112 124 194 215l125 -35l-303 -397q13 -19 303 -397l-125 -35q-91 99 -166.5 182.5t-108.5 120.5t-59.5 66t-36.5 39t-22 20zM438 510v8q24 19 57 54t179 197q96 106 160 177l122 -35l-301 -397q13 -19 301 -397l-122 -35q-91 98 -167.5 182 t-109.5 120.5t-60 66t-37 39.5t-22 20z" />
<glyph unicode="&#xac;" horiz-adv-x="1171" d="M104 655v146h943v-574h-154v428h-789z" />
<glyph unicode="&#xad;" horiz-adv-x="720" d="M111 438v156h499v-156h-499z" />
<glyph unicode="&#xae;" horiz-adv-x="876" d="M84 1087q0 146 104 250.5t250 104.5t250.5 -104.5t104.5 -250.5t-104.5 -250t-250.5 -104t-250 104t-104 250zM156 1087q0 -119 82.5 -205.5t197.5 -86.5q116 0 200.5 87t84.5 205t-84.5 204.5t-200.5 86.5q-115 0 -197.5 -86t-82.5 -205zM307 918v348h123 q143 0 143 -105q0 -66 -65 -98l106 -145h-98l-88 126h-33v-126h-88zM395 1102h41q19 0 33 11.5t14 39.5q0 53 -61 53h-27v-104z" />
<glyph unicode="&#xaf;" horiz-adv-x="991" d="M248 1194v141h493v-141h-493z" />
<glyph unicode="&#xb0;" horiz-adv-x="665" d="M84 1145q0 102 73 174t177 72t177 -72t73 -174t-73 -174t-177 -72t-177 72t-73 174zM193 1145q0 -62 40.5 -104t100.5 -42q59 0 99 42.5t40 103.5t-40 103t-99 42q-60 0 -100.5 -41.5t-40.5 -103.5z" />
<glyph unicode="&#xb1;" horiz-adv-x="1064" d="M84 635v145h369v363h155v-363h371v-145h-371v-375h-155v375h-369zM92 0v147h885v-147h-885z" />
<glyph unicode="&#xb2;" horiz-adv-x="706" d="M57 856q22 22 67 65t68 65.5t61 61.5t59 64t47 60t39 61.5t22.5 57.5t9.5 59q0 58 -34.5 88t-90.5 30q-38 0 -77 -17t-58 -35l-20 -17l-84 100q4 5 11.5 12.5t33.5 27t55 34.5t75 27t95 12q121 0 191.5 -67t70.5 -175q0 -96 -65.5 -201t-235.5 -270h350v-129h-579z" />
<glyph unicode="&#xb3;" horiz-adv-x="669" d="M45 823l66 115q9 -5 24.5 -13t59.5 -21t84 -13q67 0 106 31.5t39 78.5q0 57 -53 86t-127 29h-58v127q76 5 138.5 48t62.5 106q0 78 -94 78q-37 0 -75.5 -12.5t-58.5 -24.5l-20 -13l-63 105q4 3 12 8.5t33.5 20t52.5 25t67.5 19.5t80.5 9q107 0 172 -54t65 -137 q0 -71 -47.5 -126.5t-116.5 -84.5q95 -20 148 -73.5t53 -130.5q0 -104 -89 -177t-224 -73q-63 0 -122.5 17t-87.5 33z" />
<glyph unicode="&#xb4;" horiz-adv-x="1050" d="M313 1102l209 336h205l-301 -400z" />
<glyph unicode="&#xb6;" horiz-adv-x="1366" d="M68 864q0 96 37.5 184.5t107.5 160t184.5 114.5t255.5 43h613v-125h-152v-1241h-135v1241h-154v-1282q0 -444 -366 -444l-31 137q133 0 193.5 74t60.5 241v400h-18q-149 0 -266 42t-187.5 112.5t-106.5 158t-36 184.5z" />
<glyph unicode="&#xb7;" horiz-adv-x="520" d="M121 520q0 58 41 98.5t98 40.5t98 -40.5t41 -98.5q0 -56 -41 -96.5t-98 -40.5t-98 40.5t-41 96.5z" />
<glyph unicode="&#xb8;" horiz-adv-x="1038" d="M332 -422l47 107q7 -6 20 -16t52 -26t75 -16q44 0 72.5 18t28.5 44q0 22 -26.5 40.5t-57.5 30.5t-57.5 36.5t-26.5 56.5q0 11 4 26t7.5 24t12.5 29.5t11 24.5l22 43h111l-17 -37q-20 -40 -20 -61q0 -18 18 -32.5t44 -26t52 -26.5t44 -43t18 -67q0 -78 -67 -135t-169 -57 q-53 0 -102.5 15.5t-72.5 31.5z" />
<glyph unicode="&#xb9;" horiz-adv-x="606" d="M66 770v121h180v586h-164v120h326v-706h167v-121h-509z" />
<glyph unicode="&#xba;" horiz-adv-x="860" d="M84 1044q0 63 21.5 122.5t62.5 110t110 81.5t156 31q159 0 251.5 -97.5t92.5 -230.5q0 -49 -12.5 -97.5t-40.5 -95t-68 -82.5t-99.5 -57.5t-129.5 -21.5q-159 0 -251.5 99.5t-92.5 237.5zM256 1059q0 -98 44.5 -165t131.5 -67q77 0 125.5 60t48.5 155q0 93 -44.5 159.5 t-131.5 66.5q-77 0 -125.5 -58.5t-48.5 -150.5z" />
<glyph unicode="&#xbb;" horiz-adv-x="1046" d="M90 117l303 397q-13 15 -303 397l125 35q346 -384 361 -400q15 -14 32 -28v-8q-12 -10 -22 -20t-36.5 -39t-59.5 -66t-108.5 -120.5t-166.5 -182.5zM485 117l303 397q-13 15 -303 397l125 35q269 -299 318 -352t78 -76v-8q-9 -7 -16.5 -14t-21 -21t-28 -30t-45.5 -50 t-64.5 -71.5t-94 -103.5l-126.5 -138z" />
<glyph unicode="&#xbc;" horiz-adv-x="1701" d="M94 545v121h180v585h-163v121h325v-706h168v-121h-510zM389 0l813 1411l125 -49l-782 -1362h-156zM973 301l373 533h165v-508h119v-125h-119v-201h-155v201h-371zM1126 326h230v325z" />
<glyph unicode="&#xbd;" horiz-adv-x="1806" d="M92 545v121h180v585h-163v121h325v-706h168v-121h-510zM408 0l813 1411l125 -49l-783 -1362h-155zM1143 86q22 22 67 65t68 65.5t61 61.5t59 64t47 60t39 61.5t22.5 57.5t9.5 59q0 58 -34.5 88t-90.5 30q-38 0 -77 -17t-59 -35l-20 -17l-84 100q4 5 11.5 12.5t33.5 27 t55 34.5t75 27t95 12q121 0 191.5 -67t70.5 -175q0 -96 -65.5 -201t-235.5 -270h351v-129h-580z" />
<glyph unicode="&#xbe;" horiz-adv-x="1695" d="M78 598l65 115q9 -5 24.5 -13t59.5 -21t84 -13q67 0 106.5 31.5t39.5 78.5q0 57 -53.5 86t-127.5 29h-57v127q76 5 138.5 47.5t62.5 105.5q0 78 -94 78q-37 0 -75.5 -12.5t-58.5 -24.5l-20 -12l-63 105q11 9 32 22.5t85 36t128 22.5q107 0 172.5 -53.5t65.5 -136.5 q0 -71 -47.5 -126.5t-116.5 -84.5q95 -20 148 -74t53 -131q0 -104 -89.5 -177t-224.5 -73q-63 0 -122 17t-87 34zM383 0l813 1411l125 -49l-782 -1362h-156zM967 301l372 533h166v-508h119v-125h-119v-201h-155v201h-371zM1120 326h230v325z" />
<glyph unicode="&#xbf;" horiz-adv-x="743" d="M70 -82q0 37 17.5 74.5t45 71t60.5 68.5t66.5 74.5t61 82t45 96.5t17.5 113h164q6 -27 6 -60q0 -69 -26 -135t-63 -115t-74 -92t-63 -83t-26 -70q0 -37 37.5 -77t91.5 -71t107.5 -56.5t90.5 -39.5l38 -14l-45 -187q-12 3 -31.5 9.5t-77 28t-109.5 46t-115.5 62t-109 77.5 t-77 92t-31.5 105zM319 813q0 57 41.5 97t98.5 40t98 -40t41 -97q0 -58 -41 -98.5t-98 -40.5t-98.5 40.5t-41.5 98.5z" />
<glyph unicode="&#xc0;" horiz-adv-x="1282" d="M20 0l521 1376h200l521 -1376h-218l-135 365h-544l-134 -365h-211zM358 1606l68 166l416 -195l-43 -115zM430 541h416l-209 565z" />
<glyph unicode="&#xc1;" horiz-adv-x="1282" d="M20 0l521 1376h200l521 -1376h-218l-135 365h-544l-134 -365h-211zM430 541h416l-209 565zM434 1577l416 195l68 -166l-441 -144z" />
<glyph unicode="&#xc2;" horiz-adv-x="1282" d="M20 0l521 1376h200l521 -1376h-218l-135 365h-544l-134 -365h-211zM297 1552l258 232h168l256 -232l-111 -82l-229 191l-233 -191zM430 541h416l-209 565z" />
<glyph unicode="&#xc3;" horiz-adv-x="1282" d="M20 0l521 1376h200l521 -1376h-218l-135 365h-544l-134 -365h-211zM265.5 1509.5q-0.5 9.5 1.5 36.5t8 51.5t21 54.5t37 51.5t60 36.5t86 15q57 0 106 -21t77 -45.5t63 -45.5t66 -21q41 0 60.5 33t18.5 65v33h142q0 -6 0.5 -15.5t-2 -37t-9 -52.5t-22 -56t-38.5 -53 t-62 -37t-88 -15q-47 0 -86 14t-66 33.5t-50 39.5t-48.5 34t-51.5 14q-42 0 -62.5 -32t-20.5 -64v-31h-140q0 5 -0.5 14.5zM430 541h416l-209 565z" />
<glyph unicode="&#xc4;" horiz-adv-x="1282" d="M20 0l521 1376h200l521 -1376h-218l-135 365h-544l-134 -365h-211zM272 1624q0 52 35 85.5t88 33.5q50 0 84.5 -33.5t34.5 -85.5q0 -49 -34.5 -83t-84.5 -34q-52 0 -87.5 33.5t-35.5 83.5zM430 541h416l-209 565zM762 1624q0 52 34.5 85.5t86.5 33.5t86.5 -33.5 t34.5 -85.5q0 -49 -35 -83t-86 -34t-86 34t-35 83z" />
<glyph unicode="&#xc5;" horiz-adv-x="1282" d="M20 0l521 1376h200l521 -1376h-218l-135 365h-544l-134 -365h-211zM430 541h416l-209 565zM438 1622q0 66 51.5 114t147.5 48t147.5 -48t51.5 -114q0 -71 -51 -119.5t-148 -48.5t-148 48.5t-51 119.5zM543 1620q0 -38 24.5 -65t69.5 -27q44 0 70 27.5t26 64.5 q0 36 -25 62t-71 26q-47 0 -70.5 -26t-23.5 -62z" />
<glyph unicode="&#xc6;" horiz-adv-x="1802" d="M-12 0l766 1366h948v-176h-621v-406h490v-178h-490v-430h627v-176h-836v422h-426l-233 -422h-225zM543 598h329v592z" />
<glyph unicode="&#xc7;" horiz-adv-x="1384" d="M94 668q0 151 53 283t148.5 229.5t237 154t309.5 56.5q80 0 157 -12t130 -28.5t94 -33.5t61 -29l19 -12l-82 -184q-6 5 -17.5 12.5t-50.5 27.5t-81.5 35.5t-108.5 28t-134 12.5q-121 0 -220.5 -43t-162.5 -115.5t-97 -166t-34 -197.5q0 -229 146.5 -378.5t367.5 -149.5 q67 0 133.5 13.5t113.5 33t84.5 39.5t55.5 34l19 13l86 -158q-7 -6 -21.5 -16.5t-63.5 -37.5t-103 -48t-139.5 -38t-174.5 -18l-4 -12q-20 -40 -20 -61q0 -18 18 -32.5t44 -26t52 -26.5t44 -43t18 -67q0 -78 -67 -135t-169 -57q-53 0 -102.5 15.5t-72.5 31.5l-23 16l47 107 q7 -6 20 -16t52 -26t75 -16q44 0 72 17.5t28 44.5q0 19 -17 33.5t-41.5 26t-49.5 24.5t-42 33t-17 47q0 24 34 104l13 25q-132 15 -245.5 71t-196 143.5t-129 209t-46.5 262.5z" />
<glyph unicode="&#xc8;" horiz-adv-x="1116" d="M186 0v1366h832v-176h-621v-406h490v-178h-490v-430h627v-176h-838zM334 1606l67 166l416 -195l-43 -115z" />
<glyph unicode="&#xc9;" horiz-adv-x="1116" d="M186 0v1366h832v-176h-621v-406h490v-178h-490v-430h627v-176h-838zM410 1577l415 195l68 -166l-440 -144z" />
<glyph unicode="&#xca;" horiz-adv-x="1116" d="M186 0v1366h832v-176h-621v-406h490v-178h-490v-430h627v-176h-838zM272 1552l258 232h168l256 -232l-110 -82l-230 191l-233 -191z" />
<glyph unicode="&#xcb;" horiz-adv-x="1116" d="M186 0v1366h832v-176h-621v-406h490v-178h-490v-430h627v-176h-838zM248 1624q0 52 35 85.5t88 33.5q50 0 84 -33.5t34 -85.5q0 -49 -34 -83t-84 -34q-52 0 -87.5 33.5t-35.5 83.5zM737 1624q0 52 34.5 85.5t86.5 33.5t86.5 -33.5t34.5 -85.5q0 -49 -35 -83t-86 -34 t-86 34t-35 83z" />
<glyph unicode="&#xcc;" horiz-adv-x="585" d="M14 1606l68 166l416 -195l-43 -115zM186 0v1366h211v-1366h-211z" />
<glyph unicode="&#xcd;" horiz-adv-x="585" d="M90 1577l416 195l67 -166l-440 -144zM186 0v1366h211v-1366h-211z" />
<glyph unicode="&#xce;" horiz-adv-x="585" d="M-47 1552l258 232h168l256 -232l-111 -82l-229 191l-234 -191zM186 0v1366h211v-1366h-211z" />
<glyph unicode="&#xcf;" horiz-adv-x="585" d="M-23 1626q0 51 35 84t86 33t85 -33t34 -84t-34 -83t-85 -32q-52 0 -86.5 32.5t-34.5 82.5zM186 0v1366h211v-1366h-211zM377 1626q0 51 34 84t85 33t85.5 -33t34.5 -84t-34 -83t-86 -32q-51 0 -85 32t-34 83z" />
<glyph unicode="&#xd0;" horiz-adv-x="1507" d="M63 608v170h148v588h444q115 0 221 -21.5t205 -72t171 -125t115.5 -188t43.5 -254.5q0 -225 -106.5 -385.5t-292.5 -240t-434 -79.5h-367v608h-148zM420 176h137q167 0 291.5 39.5t197 110.5t107.5 161t35 201q0 232 -145 367t-416 135h-207v-412h338v-170h-338v-432z " />
<glyph unicode="&#xd1;" horiz-adv-x="1529" d="M186 0v1366h213l738 -1047v1047h206v-1366h-213l-737 1034v-1034h-207zM392.5 1509.5q-0.5 9.5 1.5 36.5t8 51.5t21 54.5t37 51.5t60 36.5t86 15q57 0 106 -21t77.5 -45.5t63 -45.5t65.5 -21q41 0 60.5 33t19.5 65l-1 33h142q0 -6 0.5 -15.5t-2 -37t-9 -52.5t-22 -56 t-38.5 -53t-62 -37t-88 -15q-47 0 -86 14t-66 33.5t-50 39.5t-48.5 34t-51.5 14t-44.5 -13t-26 -32t-11 -37.5t-2.5 -31.5v-13h-139q0 5 -0.5 14.5z" />
<glyph unicode="&#xd2;" horiz-adv-x="1634" d="M92 680q0 109 30.5 212.5t92.5 193.5t148 158t204.5 107.5t255.5 39.5q161 0 297 -53.5t228 -146t143 -217t51 -265.5q0 -143 -53 -276t-147 -234.5t-234 -162.5t-303 -61q-158 0 -293 57t-226 154t-142.5 225t-51.5 269zM315 690q0 -77 20 -153t61.5 -145t99.5 -121.5 t139.5 -83.5t175.5 -31q117 0 214.5 46t160.5 122.5t98 171.5t35 196q0 100 -33.5 192.5t-95.5 165.5t-158.5 116.5t-214.5 43.5q-117 0 -214 -44t-159 -118t-95.5 -166t-33.5 -192zM537 1606l67 166l416 -195l-43 -115z" />
<glyph unicode="&#xd3;" horiz-adv-x="1634" d="M92 680q0 109 30.5 212.5t92.5 193.5t148 158t204.5 107.5t255.5 39.5q161 0 297 -53.5t228 -146t143 -217t51 -265.5q0 -143 -53 -276t-147 -234.5t-234 -162.5t-303 -61q-158 0 -293 57t-226 154t-142.5 225t-51.5 269zM315 690q0 -77 20 -153t61.5 -145t99.5 -121.5 t139.5 -83.5t175.5 -31q117 0 214.5 46t160.5 122.5t98 171.5t35 196q0 100 -33.5 192.5t-95.5 165.5t-158.5 116.5t-214.5 43.5q-117 0 -214 -44t-159 -118t-95.5 -166t-33.5 -192zM612 1577l416 195l68 -166l-441 -144z" />
<glyph unicode="&#xd4;" horiz-adv-x="1634" d="M92 680q0 109 30.5 212.5t92.5 193.5t148 158t204.5 107.5t255.5 39.5q161 0 297 -53.5t228 -146t143 -217t51 -265.5q0 -143 -53 -276t-147 -234.5t-234 -162.5t-303 -61q-158 0 -293 57t-226 154t-142.5 225t-51.5 269zM315 690q0 -77 20 -153t61.5 -145t99.5 -121.5 t139.5 -83.5t175.5 -31q117 0 214.5 46t160.5 122.5t98 171.5t35 196q0 100 -33.5 192.5t-95.5 165.5t-158.5 116.5t-214.5 43.5q-117 0 -214 -44t-159 -118t-95.5 -166t-33.5 -192zM475 1552l258 232h168l256 -232l-110 -82l-230 191l-233 -191z" />
<glyph unicode="&#xd5;" horiz-adv-x="1634" d="M92 680q0 109 30.5 212.5t92.5 193.5t148 158t204.5 107.5t255.5 39.5q161 0 297 -53.5t228 -146t143 -217t51 -265.5q0 -143 -53 -276t-147 -234.5t-234 -162.5t-303 -61q-158 0 -293 57t-226 154t-142.5 225t-51.5 269zM315 690q0 -77 20 -153t61.5 -145t99.5 -121.5 t139.5 -83.5t175.5 -31q117 0 214.5 46t160.5 122.5t98 171.5t35 196q0 100 -33.5 192.5t-95.5 165.5t-158.5 116.5t-214.5 43.5q-117 0 -214 -44t-159 -118t-95.5 -166t-33.5 -192zM443.5 1509.5q-0.5 9.5 1.5 36.5t8 51.5t21 54.5t37 51.5t60 36.5t86 15q57 0 106 -21 t77 -45.5t63 -45.5t66 -21q26 0 43.5 13.5t24.5 33t10 38.5t3 33l-1 13h141q0 -6 0.5 -15.5t-2 -37t-9 -52.5t-22 -56t-38.5 -53t-62 -37t-88 -15q-47 0 -86 14t-65.5 33.5t-49.5 39.5t-48.5 34t-51.5 14t-44.5 -13t-26 -32t-11 -37.5t-2.5 -31.5v-13h-140q0 5 -0.5 14.5z " />
<glyph unicode="&#xd6;" horiz-adv-x="1634" d="M92 680q0 109 30.5 212.5t92.5 193.5t148 158t204.5 107.5t255.5 39.5q161 0 297 -53.5t228 -146t143 -217t51 -265.5q0 -143 -53 -276t-147 -234.5t-234 -162.5t-303 -61q-158 0 -293 57t-226 154t-142.5 225t-51.5 269zM315 690q0 -77 20 -153t61.5 -145t99.5 -121.5 t139.5 -83.5t175.5 -31q117 0 214.5 46t160.5 122.5t98 171.5t35 196q0 100 -33.5 192.5t-95.5 165.5t-158.5 116.5t-214.5 43.5q-117 0 -214 -44t-159 -118t-95.5 -166t-33.5 -192zM451 1624q0 52 34.5 85.5t87.5 33.5q50 0 84.5 -33.5t34.5 -85.5q0 -49 -34.5 -83 t-84.5 -34q-52 0 -87 33.5t-35 83.5zM940 1624q0 52 34.5 85.5t86.5 33.5t86.5 -33.5t34.5 -85.5q0 -49 -35 -83t-86 -34t-86 34t-35 83z" />
<glyph unicode="&#xd7;" horiz-adv-x="1064" d="M78 150l354 364l-354 367l98 102l356 -367l357 367l98 -102l-356 -367l356 -364l-100 -103l-355 365l-354 -365z" />
<glyph unicode="&#xd8;" horiz-adv-x="1634" d="M92 680q0 109 30.5 212.5t92.5 193.5t148 158t204.5 107.5t255.5 39.5q210 0 381 -95l99 131h145l-148 -194q116 -94 179 -230t63 -294q0 -143 -53 -276t-147 -234.5t-234 -162.5t-303 -61q-210 0 -383 103l-107 -139h-147l160 208q-113 98 -174.5 237t-61.5 296z M315 690q0 -102 36 -202t102 -175l630 826q-117 71 -266 71q-117 0 -214.5 -44.5t-159 -118.5t-95 -166t-33.5 -191zM541 236q121 -80 270 -80q117 0 214.5 46t160.5 122.5t98 171.5t35 196q0 105 -37.5 203.5t-107.5 171.5z" />
<glyph unicode="&#xd9;" horiz-adv-x="1466" d="M170 500v866h211v-836q0 -192 96 -283t258 -91q160 0 256 92t96 272v846h209v-838q0 -174 -77 -301.5t-203 -189.5t-283 -62q-96 0 -178.5 18t-154 58t-122 100t-79.5 149t-29 200zM453 1606l67 166l416 -195l-43 -115z" />
<glyph unicode="&#xda;" horiz-adv-x="1466" d="M170 500v866h211v-836q0 -192 96 -283t258 -91q160 0 256 92t96 272v846h209v-838q0 -174 -77 -301.5t-203 -189.5t-283 -62q-96 0 -178.5 18t-154 58t-122 100t-79.5 149t-29 200zM528 1577l416 195l68 -166l-441 -144z" />
<glyph unicode="&#xdb;" horiz-adv-x="1466" d="M170 500v866h211v-836q0 -192 96 -283t258 -91q160 0 256 92t96 272v846h209v-838q0 -174 -77 -301.5t-203 -189.5t-283 -62q-96 0 -178.5 18t-154 58t-122 100t-79.5 149t-29 200zM391 1552l258 232h168l256 -232l-110 -82l-230 191l-233 -191z" />
<glyph unicode="&#xdc;" horiz-adv-x="1466" d="M170 500v866h211v-836q0 -192 96 -283t258 -91q160 0 256 92t96 272v846h209v-838q0 -174 -77 -301.5t-203 -189.5t-283 -62q-96 0 -178.5 18t-154 58t-122 100t-79.5 149t-29 200zM367 1624q0 52 34.5 85.5t87.5 33.5q50 0 84.5 -33.5t34.5 -85.5q0 -49 -34.5 -83 t-84.5 -34q-52 0 -87 33.5t-35 83.5zM856 1624q0 52 34.5 85.5t86.5 33.5t86.5 -33.5t34.5 -85.5q0 -49 -35 -83t-86 -34t-86 34t-35 83z" />
<glyph unicode="&#xdd;" horiz-adv-x="1208" d="M8 1366h248l350 -575l357 575h237l-489 -780v-586h-211v584zM408 1577l415 195l68 -166l-440 -144z" />
<glyph unicode="&#xde;" horiz-adv-x="1169" d="M186 0v1366h211v-297h248q125 0 217 -30t145 -82.5t78 -117.5t25 -143q0 -190 -126 -297.5t-339 -107.5h-248v-291h-211zM397 467h213q147 0 212 55t65 160q0 98 -62 154.5t-215 56.5h-213v-426z" />
<glyph unicode="&#xdf;" horiz-adv-x="1185" d="M51 772v109l146 53v76q0 223 108 345t311 122q172 0 269.5 -83.5t97.5 -209.5q0 -53 -19.5 -102.5t-47.5 -86.5t-56 -72.5t-47.5 -75t-19.5 -79.5q0 -53 35 -99.5t85 -85.5t100 -81t85 -103.5t35 -136.5q0 -130 -97.5 -208.5t-261.5 -78.5q-72 0 -135 16.5t-90 32.5 l-27 17l35 168q10 -8 28.5 -20.5t74 -33t108.5 -20.5q72 0 113 34t41 89q0 40 -24 76.5t-60 63.5t-78 61t-78 68.5t-60 88t-24 117.5q0 58 18.5 108.5t45.5 87t54 70.5t45.5 75t18.5 85q0 77 -51 116.5t-123 39.5q-96 0 -151.5 -72.5t-55.5 -224.5v-1018h-202v772h-146z" />
<glyph unicode="&#xe0;" horiz-adv-x="980" d="M66 213q0 143 141.5 232.5t406.5 123.5q0 103 -8 134q-19 74 -102 83q-15 2 -31 2q-68 0 -141 -26.5t-112 -53.5l-40 -26l-53 152q6 5 18 12.5t52.5 27.5t84 35.5t111 28t135.5 12.5q161 0 225 -69t64 -228v-391q0 -32 10.5 -56t25.5 -35t30.5 -17.5t26.5 -7.5l10 -1 l-62 -159q-99 7 -152 44.5t-75 98.5q-13 -20 -33.5 -41.5t-56.5 -49.5t-91 -45.5t-118 -17.5q-120 0 -193 67t-73 171zM160 1438h205l208 -336l-112 -64zM274 227q0 -47 30.5 -69.5t78.5 -22.5q109 0 231 144v159q-176 -26 -258 -77.5t-82 -133.5z" />
<glyph unicode="&#xe1;" horiz-adv-x="980" d="M66 213q0 143 141.5 232.5t406.5 123.5q0 103 -8 134q-19 74 -102 83q-15 2 -31 2q-68 0 -141 -26.5t-112 -53.5l-40 -26l-53 152q6 5 18 12.5t52.5 27.5t84 35.5t111 28t135.5 12.5q161 0 225 -69t64 -228v-391q0 -32 10.5 -56t25.5 -35t30.5 -17.5t26.5 -7.5l10 -1 l-62 -159q-99 7 -152 44.5t-75 98.5q-13 -20 -33.5 -41.5t-56.5 -49.5t-91 -45.5t-118 -17.5q-120 0 -193 67t-73 171zM274 227q0 -47 30.5 -69.5t78.5 -22.5q109 0 231 144v159q-176 -26 -258 -77.5t-82 -133.5zM365 1102l208 336h205l-301 -400z" />
<glyph unicode="&#xe2;" horiz-adv-x="980" d="M66 213q0 143 141.5 232.5t406.5 123.5q0 103 -8 134q-19 74 -102 83q-15 2 -31 2q-68 0 -141 -26.5t-112 -53.5l-40 -26l-53 152q6 5 18 12.5t52.5 27.5t84 35.5t111 28t135.5 12.5q161 0 225 -69t64 -228v-391q0 -32 10.5 -56t25.5 -35t30.5 -17.5t26.5 -7.5l10 -1 l-62 -159q-99 7 -152 44.5t-75 98.5q-13 -20 -33.5 -41.5t-56.5 -49.5t-91 -45.5t-118 -17.5q-120 0 -193 67t-73 171zM170 1092l233 346h132l231 -348l-119 -54l-180 250l-178 -250zM274 227q0 -47 30.5 -69.5t78.5 -22.5q109 0 231 144v159q-176 -26 -258 -77.5 t-82 -133.5z" />
<glyph unicode="&#xe3;" horiz-adv-x="980" d="M66 213q0 143 141.5 232.5t406.5 123.5q0 103 -8 134q-19 74 -102 83q-15 2 -31 2q-68 0 -141 -26.5t-112 -53.5l-40 -26l-53 152q6 5 18 12.5t52.5 27.5t84 35.5t111 28t135.5 12.5q161 0 225 -69t64 -228v-391q0 -32 10.5 -56t25.5 -35t30.5 -17.5t26.5 -7.5l10 -1 l-62 -159q-99 7 -152 44.5t-75 98.5q-13 -20 -33.5 -41.5t-56.5 -49.5t-91 -45.5t-118 -17.5q-120 0 -193 67t-73 171zM144.5 1141.5q-0.5 9.5 1.5 37t7.5 53t18.5 56t32.5 53t53 37.5t76.5 15t79 -16t59.5 -39t43 -46t40.5 -39t42 -16q33 0 49.5 35.5t16.5 71.5v36h131 q0 -6 0.5 -15.5t-2 -38t-8 -54.5t-19.5 -57.5t-34 -54.5t-54.5 -38.5t-77.5 -15.5t-78.5 16.5t-58 39.5t-41.5 46t-39.5 39.5t-42.5 16.5q-31 0 -47 -34.5t-17 -69.5v-34h-131q0 6 -0.5 15.5zM274 227q0 -47 30.5 -69.5t78.5 -22.5q109 0 231 144v159q-176 -26 -258 -77.5 t-82 -133.5z" />
<glyph unicode="&#xe4;" horiz-adv-x="980" d="M66 213q0 143 141.5 232.5t406.5 123.5q0 103 -8 134q-19 74 -102 83q-15 2 -31 2q-68 0 -141 -26.5t-112 -53.5l-40 -26l-53 152q6 5 18 12.5t52.5 27.5t84 35.5t111 28t135.5 12.5q161 0 225 -69t64 -228v-391q0 -32 10.5 -56t25.5 -35t30.5 -17.5t26.5 -7.5l10 -1 l-62 -159q-99 7 -152 44.5t-75 98.5q-13 -20 -33.5 -41.5t-56.5 -49.5t-91 -45.5t-118 -17.5q-120 0 -193 67t-73 171zM147 1270q0 51 34.5 83.5t86.5 32.5q51 0 85 -32.5t34 -83.5t-34 -83t-85 -32q-52 0 -86.5 32.5t-34.5 82.5zM274 227q0 -47 30.5 -69.5t78.5 -22.5 q109 0 231 144v159q-176 -26 -258 -77.5t-82 -133.5zM547 1270q0 51 34 83.5t85 32.5t85.5 -32.5t34.5 -83.5t-34 -83t-86 -32q-51 0 -85 32t-34 83z" />
<glyph unicode="&#xe5;" horiz-adv-x="980" d="M66 213q0 143 141.5 232.5t406.5 123.5q0 103 -8 134q-19 74 -102 83q-15 2 -31 2q-68 0 -141 -26.5t-112 -53.5l-40 -26l-53 152q6 5 18 12.5t52.5 27.5t84 35.5t111 28t135.5 12.5q161 0 225 -69t64 -228v-391q0 -32 10.5 -56t25.5 -35t30.5 -17.5t26.5 -7.5l10 -1 l-62 -159q-99 7 -152 44.5t-75 98.5q-13 -20 -33.5 -41.5t-56.5 -49.5t-91 -45.5t-118 -17.5q-120 0 -193 67t-73 171zM270 1276q0 70 50.5 121t146.5 51t146.5 -51t50.5 -121q0 -71 -50.5 -124.5t-146.5 -53.5t-146.5 53.5t-50.5 124.5zM274 227q0 -47 30.5 -69.5 t78.5 -22.5q109 0 231 144v159q-176 -26 -258 -77.5t-82 -133.5zM375 1274q0 -37 24 -63.5t68 -26.5q45 0 70.5 27t25.5 63t-24 61t-72 25q-47 0 -69.5 -25t-22.5 -61z" />
<glyph unicode="&#xe6;" horiz-adv-x="1538" d="M66 213q0 131 145 216.5t420 117.5v49q0 40 -1.5 63.5t-9.5 51t-23 42.5t-42.5 25t-67.5 10q-45 0 -93 -11t-84.5 -26.5t-67 -31t-46.5 -26.5l-16 -11l-53 152q6 5 18.5 12.5t52.5 27.5t83 35.5t109 28t132 12.5q197 0 252 -129q116 129 297 129q170 0 274.5 -111.5 t104.5 -312.5l-115 -34l-508 -64q12 -129 88 -208t197 -79q71 0 142.5 28.5t107.5 56.5l35 28l61 -145q-6 -5 -17 -14.5t-48 -32.5t-77.5 -40.5t-104 -32t-128.5 -14.5q-130 0 -227 55t-154 154q-39 -82 -129 -145.5t-219 -63.5q-128 0 -208 67t-80 171zM274 227 q0 -45 32.5 -68.5t88.5 -23.5q93 0 161.5 70t68.5 172v39q-351 -45 -351 -189zM829 563l402 49q-1 7 -2.5 19.5t-12.5 43.5t-28.5 55t-53 43.5t-81.5 19.5q-92 0 -150 -63.5t-74 -166.5z" />
<glyph unicode="&#xe7;" horiz-adv-x="944" d="M80 451q0 130 57 242.5t170 184.5t260 72q57 0 110.5 -10t89 -24.5t63 -29t40.5 -24.5l13 -10l-80 -152q-4 3 -11.5 9t-31.5 21t-49.5 26t-63.5 20.5t-76 9.5q-125 0 -202.5 -91.5t-77.5 -233.5q0 -140 75 -230t203 -90q65 0 127 24.5t92 48.5l29 24l66 -144 q-4 -5 -12.5 -13t-39 -28t-65 -35.5t-91.5 -28.5t-118 -14l-6 -14q-21 -42 -21 -61q0 -18 18 -32.5t44 -26t52.5 -26.5t44.5 -43t18 -67q0 -78 -67 -135t-169 -57q-53 0 -102.5 15.5t-72.5 31.5l-24 16l47 107q7 -6 20.5 -16t52.5 -26t75 -16q44 0 72 17.5t28 44.5 q0 22 -26.5 40.5t-57.5 30.5t-57.5 36t-26.5 56q0 9 2 19t6.5 22.5t8 20.5t10 23t8.5 20l15 31q-169 32 -269 159.5t-100 305.5z" />
<glyph unicode="&#xe8;" horiz-adv-x="1003" d="M82 449q0 215 126.5 358t326.5 143q171 0 275.5 -113t104.5 -319l-116 -33l-506 -67q18 -128 92.5 -202.5t194.5 -74.5q44 0 89 12t78.5 28.5t61 33.5t41.5 29l14 12l58 -147q-6 -5 -17 -14.5t-48 -32.5t-77 -40.5t-103 -32t-128 -14.5q-112 0 -202.5 39t-147.5 105.5 t-87 151t-30 178.5zM205 1438h205l208 -336l-112 -64zM293 553l401 51q-1 8 -2.5 20.5t-12.5 45t-27.5 57.5t-51.5 45.5t-80 20.5q-95 0 -154 -67t-73 -173z" />
<glyph unicode="&#xe9;" horiz-adv-x="1003" d="M82 449q0 215 126.5 358t326.5 143q171 0 275.5 -113t104.5 -319l-116 -33l-506 -67q18 -128 92.5 -202.5t194.5 -74.5q44 0 89 12t78.5 28.5t61 33.5t41.5 29l14 12l58 -147q-6 -5 -17 -14.5t-48 -32.5t-77 -40.5t-103 -32t-128 -14.5q-112 0 -202.5 39t-147.5 105.5 t-87 151t-30 178.5zM293 553l401 51q-1 8 -2.5 20.5t-12.5 45t-27.5 57.5t-51.5 45.5t-80 20.5q-95 0 -154 -67t-73 -173zM410 1102l208 336h205l-301 -400z" />
<glyph unicode="&#xea;" horiz-adv-x="1003" d="M82 449q0 215 126.5 358t326.5 143q171 0 275.5 -113t104.5 -319l-116 -33l-506 -67q18 -128 92.5 -202.5t194.5 -74.5q44 0 89 12t78.5 28.5t61 33.5t41.5 29l14 12l58 -147q-6 -5 -17 -14.5t-48 -32.5t-77 -40.5t-103 -32t-128 -14.5q-112 0 -202.5 39t-147.5 105.5 t-87 151t-30 178.5zM217 1092l234 346h131l231 -348l-119 -54l-180 250l-178 -250zM293 553l401 51q-1 8 -2.5 20.5t-12.5 45t-27.5 57.5t-51.5 45.5t-80 20.5q-95 0 -154 -67t-73 -173z" />
<glyph unicode="&#xeb;" horiz-adv-x="1003" d="M82 449q0 215 126.5 358t326.5 143q171 0 275.5 -113t104.5 -319l-116 -33l-506 -67q18 -128 92.5 -202.5t194.5 -74.5q44 0 89 12t78.5 28.5t61 33.5t41.5 29l14 12l58 -147q-6 -5 -17 -14.5t-48 -32.5t-77 -40.5t-103 -32t-128 -14.5q-112 0 -202.5 39t-147.5 105.5 t-87 151t-30 178.5zM195 1270q0 51 34.5 83.5t85.5 32.5t85 -32.5t34 -83.5t-34 -83t-85 -32q-52 0 -86 32t-34 83zM293 553l401 51q-1 8 -2.5 20.5t-12.5 45t-27.5 57.5t-51.5 45.5t-80 20.5q-95 0 -154 -67t-73 -173zM594 1270q0 51 34 83.5t85 32.5q52 0 86.5 -32.5 t34.5 -83.5q0 -50 -34.5 -82.5t-86.5 -32.5q-51 0 -85 32t-34 83z" />
<glyph unicode="&#xec;" d="M-63 1438h204l209 -336l-112 -64zM143 0v926h203v-926h-203z" />
<glyph unicode="&#xed;" d="M141 1102l209 336h205l-301 -400zM143 0v926h203v-926h-203z" />
<glyph unicode="&#xee;" d="M-53 1092l233 346h131l232 -348l-119 -54l-180 250l-178 -250zM143 0v926h203v-926h-203z" />
<glyph unicode="&#xef;" d="M-76 1270q0 51 34.5 83.5t86.5 32.5q51 0 85 -32.5t34 -83.5t-34 -83t-85 -32q-52 0 -86.5 32.5t-34.5 82.5zM143 0v926h203v-926h-203zM324 1270q0 51 33.5 83.5t84.5 32.5q52 0 86.5 -32.5t34.5 -83.5q0 -50 -34.5 -82.5t-86.5 -32.5q-51 0 -84.5 32t-33.5 83z" />
<glyph unicode="&#xf0;" horiz-adv-x="1110" d="M80 446q0 129 55.5 243.5t160.5 187.5t234 73q75 0 136 -22t92 -56q-72 177 -219 304l-265 -156l-63 115l209 122q-118 70 -266 109l41 152q216 -42 395 -160l289 170l63 -115l-242 -141q147 -133 227.5 -314t80.5 -383q0 -176 -56 -311t-166.5 -212t-259.5 -77 q-104 0 -190 40t-141 106.5t-85 150.5t-30 174zM285 465q0 -58 15.5 -114.5t44.5 -105t78.5 -78.5t111.5 -30q120 0 197 102.5t77 317.5q0 102 -57 166.5t-172 64.5q-130 0 -212.5 -91.5t-82.5 -231.5z" />
<glyph unicode="&#xf1;" horiz-adv-x="1085" d="M139 0v909l199 33v-176q66 72 161 128t208 56q114 0 179.5 -69t65.5 -213v-668h-202v594q0 180 -111 180q-67 0 -148 -54t-149 -120v-600h-203zM232.5 1141.5q-0.5 9.5 1.5 37t7.5 53t18.5 56t32.5 53t53 37.5t76.5 15t79 -16t59.5 -39t43 -46t40.5 -39t42 -16 q33 0 49.5 35.5t16.5 71.5v36h131q0 -6 0.5 -15.5t-2 -38t-8 -54.5t-19.5 -57.5t-34 -54.5t-54.5 -38.5t-77.5 -15.5t-78.5 16.5t-58 39.5t-41.5 46t-39.5 39.5t-42.5 16.5q-31 0 -47 -34.5t-16 -69.5v-34h-132q0 6 -0.5 15.5z" />
<glyph unicode="&#xf2;" horiz-adv-x="1114" d="M80 459q0 71 17.5 140t56.5 132.5t94 112t136 77.5t177 29q111 0 202.5 -39.5t149.5 -106t89.5 -150t31.5 -173.5q0 -69 -17.5 -139t-56 -136.5t-93.5 -117.5t-136.5 -82t-177.5 -31q-111 0 -202.5 41t-149.5 109t-89.5 154t-31.5 180zM248 1438h205l209 -336l-113 -64z M291 477q0 -90 27.5 -165t90 -125t150.5 -50q117 0 190.5 89t73.5 229q0 64 -15.5 121.5t-46.5 106t-83.5 77t-120.5 28.5q-118 0 -192 -86.5t-74 -224.5z" />
<glyph unicode="&#xf3;" horiz-adv-x="1114" d="M80 459q0 71 17.5 140t56.5 132.5t94 112t136 77.5t177 29q111 0 202.5 -39.5t149.5 -106t89.5 -150t31.5 -173.5q0 -69 -17.5 -139t-56 -136.5t-93.5 -117.5t-136.5 -82t-177.5 -31q-111 0 -202.5 41t-149.5 109t-89.5 154t-31.5 180zM291 477q0 -90 27.5 -165t90 -125 t150.5 -50q117 0 190.5 89t73.5 229q0 64 -15.5 121.5t-46.5 106t-83.5 77t-120.5 28.5q-118 0 -192 -86.5t-74 -224.5zM453 1102l209 336h204l-301 -400z" />
<glyph unicode="&#xf4;" horiz-adv-x="1114" d="M80 459q0 71 17.5 140t56.5 132.5t94 112t136 77.5t177 29q111 0 202.5 -39.5t149.5 -106t89.5 -150t31.5 -173.5q0 -69 -17.5 -139t-56 -136.5t-93.5 -117.5t-136.5 -82t-177.5 -31q-111 0 -202.5 41t-149.5 109t-89.5 154t-31.5 180zM260 1092l234 346h131l231 -348 l-119 -54l-180 250l-178 -250zM291 477q0 -90 27.5 -165t90 -125t150.5 -50q117 0 190.5 89t73.5 229q0 64 -15.5 121.5t-46.5 106t-83.5 77t-120.5 28.5q-118 0 -192 -86.5t-74 -224.5z" />
<glyph unicode="&#xf5;" horiz-adv-x="1114" d="M80 459q0 71 17.5 140t56.5 132.5t94 112t136 77.5t177 29q111 0 202.5 -39.5t149.5 -106t89.5 -150t31.5 -173.5q0 -69 -17.5 -139t-56 -136.5t-93.5 -117.5t-136.5 -82t-177.5 -31q-111 0 -202.5 41t-149.5 109t-89.5 154t-31.5 180zM235.5 1141.5q-0.5 9.5 1.5 37 t7 53t18.5 56t33 53t52.5 37.5t76 15t79 -16t59.5 -39t43 -46t40.5 -39t42 -16q33 0 49.5 35.5t16.5 71.5v36h131q0 -6 0.5 -15.5t-2 -38t-8 -54.5t-19.5 -57.5t-34 -54.5t-54.5 -38.5t-77.5 -15.5t-78.5 16.5t-58 39.5t-41.5 46t-39.5 39.5t-42.5 16.5q-31 0 -47 -34.5 t-16 -69.5v-34h-131q0 6 -0.5 15.5zM291 477q0 -90 27.5 -165t90 -125t150.5 -50q117 0 190.5 89t73.5 229q0 64 -15.5 121.5t-46.5 106t-83.5 77t-120.5 28.5q-118 0 -192 -86.5t-74 -224.5z" />
<glyph unicode="&#xf6;" horiz-adv-x="1114" d="M80 459q0 71 17.5 140t56.5 132.5t94 112t136 77.5t177 29q111 0 202.5 -39.5t149.5 -106t89.5 -150t31.5 -173.5q0 -69 -17.5 -139t-56 -136.5t-93.5 -117.5t-136.5 -82t-177.5 -31q-111 0 -202.5 41t-149.5 109t-89.5 154t-31.5 180zM238 1270q0 51 34.5 83.5 t85.5 32.5t85 -32.5t34 -83.5t-34 -83t-85 -32q-52 0 -86 32t-34 83zM291 477q0 -90 27.5 -165t90 -125t150.5 -50q117 0 190.5 89t73.5 229q0 64 -15.5 121.5t-46.5 106t-83.5 77t-120.5 28.5q-118 0 -192 -86.5t-74 -224.5zM637 1270q0 51 34 83.5t85 32.5 q52 0 86.5 -32.5t34.5 -83.5q0 -50 -34.5 -82.5t-86.5 -32.5q-51 0 -85 32t-34 83z" />
<glyph unicode="&#xf7;" horiz-adv-x="1064" d="M74 442v148h917v-148h-917zM401 127q0 55 38.5 94t92.5 39q55 0 93.5 -38.5t38.5 -94.5q0 -54 -38.5 -92.5t-93.5 -38.5q-54 0 -92.5 38.5t-38.5 92.5zM401 903q0 54 38.5 92.5t92.5 38.5q55 0 93.5 -38.5t38.5 -92.5t-38.5 -92.5t-93.5 -38.5q-54 0 -92.5 38.5 t-38.5 92.5z" />
<glyph unicode="&#xf8;" horiz-adv-x="1114" d="M80 459q0 71 17.5 140t56.5 132.5t94 112t136 77.5t177 29q138 0 244 -61l74 98h135l-121 -162q68 -67 104.5 -157t36.5 -187q0 -69 -17.5 -139t-56 -136.5t-93.5 -117.5t-136.5 -82t-177.5 -31q-132 0 -246 62l-74 -98h-137l123 165q-68 68 -103.5 160.5t-35.5 194.5z M291 477q0 -123 49 -211l358 479q-59 43 -141 43q-118 0 -192 -86.5t-74 -224.5zM414 182q61 -45 145 -45q117 0 190.5 89t73.5 229q0 120 -51 209z" />
<glyph unicode="&#xf9;" horiz-adv-x="1079" d="M135 254v672h203v-594q0 -95 28.5 -137.5t86.5 -42.5q114 0 276 151v623h203v-641q0 -50 10 -121t20 -116l11 -46l-197 -18q-21 95 -31 163q-26 -28 -58 -54t-78 -54.5t-104 -46t-118 -17.5q-118 0 -185 68t-67 211zM225 1438h205l209 -336l-113 -64z" />
<glyph unicode="&#xfa;" horiz-adv-x="1079" d="M135 254v672h203v-594q0 -95 28.5 -137.5t86.5 -42.5q114 0 276 151v623h203v-641q0 -50 10 -121t20 -116l11 -46l-197 -18q-21 95 -31 163q-26 -28 -58 -54t-78 -54.5t-104 -46t-118 -17.5q-118 0 -185 68t-67 211zM430 1102l209 336h205l-301 -400z" />
<glyph unicode="&#xfb;" horiz-adv-x="1079" d="M135 254v672h203v-594q0 -95 28.5 -137.5t86.5 -42.5q114 0 276 151v623h203v-641q0 -50 10 -121t20 -116l11 -46l-197 -18q-21 95 -31 163q-26 -28 -58 -54t-78 -54.5t-104 -46t-118 -17.5q-118 0 -185 68t-67 211zM236 1092l233 346h131l231 -348l-118 -54l-181 250 l-178 -250z" />
<glyph unicode="&#xfc;" horiz-adv-x="1079" d="M135 254v672h203v-594q0 -95 28.5 -137.5t86.5 -42.5q114 0 276 151v623h203v-641q0 -50 10 -121t20 -116l11 -46l-197 -18q-21 95 -31 163q-26 -28 -58 -54t-78 -54.5t-104 -46t-118 -17.5q-118 0 -185 68t-67 211zM213 1270q0 51 34.5 83.5t86.5 32.5q51 0 85 -32.5 t34 -83.5t-34 -83t-85 -32q-52 0 -86.5 32.5t-34.5 82.5zM612 1270q0 51 34 83.5t85 32.5q52 0 86.5 -32.5t34.5 -83.5q0 -50 -34.5 -82.5t-86.5 -32.5q-51 0 -85 32t-34 83z" />
<glyph unicode="&#xfd;" horiz-adv-x="952" d="M23 926h215l243 -635l240 635h209l-402 -996q-25 -62 -54.5 -116.5t-69.5 -107t-85 -91.5t-102.5 -66t-120.5 -34l-63 161q98 17 177 88.5t122 172.5l49 110zM379 1102l209 336h205l-301 -400z" />
<glyph unicode="&#xfe;" horiz-adv-x="1089" d="M143 -477v1909l203 32v-661q37 65 105.5 106t164.5 41q178 0 285 -131.5t107 -329.5q0 -138 -54 -253t-163.5 -188t-255.5 -73q-123 0 -189 50v-469zM346 236q0 -47 42.5 -73t113.5 -26q135 0 214 89t79 251q0 142 -58.5 223.5t-154.5 81.5q-130 0 -236 -149v-397z" />
<glyph unicode="&#xff;" horiz-adv-x="952" d="M23 926h215l243 -635l240 635h209l-402 -996q-25 -62 -54.5 -116.5t-69.5 -107t-85 -91.5t-102.5 -66t-120.5 -34l-63 161q98 17 177 88.5t122 172.5l49 110zM164 1270q0 51 34.5 83.5t86.5 32.5q51 0 84.5 -32.5t33.5 -83.5t-33.5 -83t-84.5 -32q-52 0 -86.5 32.5 t-34.5 82.5zM563 1270q0 51 34 83.5t85 32.5q52 0 86.5 -32.5t34.5 -83.5q0 -50 -34.5 -82.5t-86.5 -32.5q-51 0 -85 32t-34 83z" />
<glyph unicode="&#x152;" horiz-adv-x="2017" d="M92 680q0 109 30 212t91.5 193.5t148.5 158.5t210 107.5t266 39.5q128 0 256 -25h823v-176h-619v-406h490v-178h-490v-430h625v-176h-836q-137 -25 -266 -25q-167 0 -306 57t-230.5 154t-142 224.5t-50.5 269.5zM315 690q0 -76 18.5 -150t59.5 -144t100 -123t145.5 -85 t190.5 -32q153 0 258 22v1000q-109 32 -258 32q-124 0 -224 -44t-162 -118t-95 -166t-33 -192z" />
<glyph unicode="&#x153;" horiz-adv-x="1742" d="M80 459q0 71 17.5 140t56.5 132.5t94 112t136 77.5t177 29q240 0 369 -184q125 184 344 184q171 0 276 -113.5t105 -318.5l-115 -33l-512 -69q18 -127 93.5 -201t197.5 -74q69 0 140 28.5t107 56.5l36 28l61 -145q-6 -5 -17 -14.5t-48 -32.5t-77.5 -40.5t-103.5 -32 t-127 -14.5q-240 0 -368 187q-130 -187 -369 -187q-111 0 -202.5 41t-149.5 109t-89.5 154t-31.5 180zM291 477q0 -90 27.5 -165t90 -125t150.5 -50q117 0 190.5 89t73.5 229q0 64 -15.5 121.5t-46.5 106t-83.5 77t-120.5 28.5q-118 0 -192 -86.5t-74 -224.5zM1028 553 l406 51q0 8 -2 20.5t-12.5 45t-27 57.5t-51.5 45.5t-81 20.5q-97 0 -157.5 -67t-74.5 -173z" />
<glyph unicode="&#x178;" horiz-adv-x="1208" d="M8 1366h248l350 -575l357 575h237l-489 -780v-586h-211v584zM246 1624q0 52 35 85.5t88 33.5q50 0 84 -33.5t34 -85.5q0 -49 -34 -83t-84 -34q-52 0 -87.5 33.5t-35.5 83.5zM735 1624q0 52 34.5 85.5t86.5 33.5t86.5 -33.5t34.5 -85.5q0 -49 -35 -83t-86 -34t-86 34 t-35 83z" />
<glyph unicode="&#x2c6;" horiz-adv-x="1038" d="M221 1092l234 346h131l231 -348l-119 -54l-180 250l-178 -250z" />
<glyph unicode="&#x2dc;" horiz-adv-x="1038" d="M198.5 1141.5q-0.5 9.5 1.5 37t7 53t18.5 56t33 53t52.5 37.5t76 15t79 -16t59.5 -39t43 -46t40.5 -39t42 -16q33 0 49.5 35.5t16.5 71.5v36h131q0 -6 0.5 -15.5t-2 -38t-8 -54.5t-19.5 -57.5t-34 -54.5t-54.5 -38.5t-77.5 -15.5t-78.5 16.5t-58 39.5t-41.5 46 t-39.5 39.5t-42.5 16.5q-31 0 -47 -34.5t-16 -69.5v-34h-131q0 6 -0.5 15.5z" />
<glyph unicode="&#x2000;" horiz-adv-x="892" />
<glyph unicode="&#x2001;" horiz-adv-x="1784" />
<glyph unicode="&#x2002;" horiz-adv-x="892" />
<glyph unicode="&#x2003;" horiz-adv-x="1784" />
<glyph unicode="&#x2004;" horiz-adv-x="594" />
<glyph unicode="&#x2005;" horiz-adv-x="446" />
<glyph unicode="&#x2006;" horiz-adv-x="297" />
<glyph unicode="&#x2007;" horiz-adv-x="297" />
<glyph unicode="&#x2008;" horiz-adv-x="223" />
<glyph unicode="&#x2009;" horiz-adv-x="356" />
<glyph unicode="&#x200a;" horiz-adv-x="99" />
<glyph unicode="&#x2010;" horiz-adv-x="720" d="M111 438v156h499v-156h-499z" />
<glyph unicode="&#x2011;" horiz-adv-x="720" d="M111 438v156h499v-156h-499z" />
<glyph unicode="&#x2012;" horiz-adv-x="720" d="M111 438v156h499v-156h-499z" />
<glyph unicode="&#x2013;" horiz-adv-x="1062" d="M111 449v147h839v-147h-839z" />
<glyph unicode="&#x2014;" horiz-adv-x="1861" d="M111 449v147h1638v-147h-1638z" />
<glyph unicode="&#x2018;" horiz-adv-x="444" d="M92 1174q0 93 51 182.5t148 163.5l78 -82q-113 -85 -113 -195q0 -51 26.5 -101t96.5 -124l-178 -100q-109 117 -109 256z" />
<glyph unicode="&#x2019;" horiz-adv-x="432" d="M63 1421l181 99q108 -114 108 -254q0 -194 -198 -348l-78 83q112 85 112 195q0 51 -27 101t-98 124z" />
<glyph unicode="&#x201a;" d="M90 174l186 98q113 -119 113 -254q0 -190 -203 -348l-77 84q116 88 116 193q0 50 -30 99.5t-105 127.5z" />
<glyph unicode="&#x201c;" horiz-adv-x="802" d="M92 1174q0 93 51 182.5t148 163.5l78 -82q-113 -85 -113 -195q0 -51 26.5 -101t96.5 -124l-178 -100q-109 117 -109 256zM451 1174q0 93 50.5 182.5t147.5 163.5l78 -82q-113 -85 -113 -195q0 -51 26.5 -101t96.5 -124l-178 -100q-108 116 -108 256z" />
<glyph unicode="&#x201d;" horiz-adv-x="790" d="M63 1421l181 99q108 -114 108 -254q0 -194 -198 -348l-78 83q112 85 112 195q0 51 -27 101t-98 124zM424 1421l178 99q109 -115 109 -254q0 -193 -199 -348l-78 83q113 85 113 195q0 51 -26.5 101t-96.5 124z" />
<glyph unicode="&#x201e;" horiz-adv-x="849" d="M90 174l186 98q113 -119 113 -254q0 -190 -203 -348l-77 84q116 88 116 193q0 50 -30 99.5t-105 127.5zM449 174l186 98q113 -119 113 -254q0 -190 -203 -348l-78 84q117 88 117 193q0 50 -30 99.5t-105 127.5z" />
<glyph unicode="&#x2022;" horiz-adv-x="802" d="M106 524q0 124 85 209.5t210 85.5q126 0 210.5 -85t84.5 -210t-84.5 -210t-210.5 -85q-125 0 -210 85.5t-85 209.5z" />
<glyph unicode="&#x2026;" horiz-adv-x="1622" d="M113 113q0 58 40 98.5t97 40.5t98 -40.5t41 -98.5q0 -57 -41 -97.5t-98 -40.5t-97 40.5t-40 97.5zM674 113q0 58 40 98.5t97 40.5t98 -40.5t41 -98.5q0 -57 -41 -97.5t-98 -40.5t-97 40.5t-40 97.5zM1233 113q0 58 41 98.5t98 40.5t98 -40.5t41 -98.5q0 -57 -41 -97.5 t-98 -40.5t-98 40.5t-41 97.5z" />
<glyph unicode="&#x202f;" horiz-adv-x="356" />
<glyph unicode="&#x2039;" horiz-adv-x="649" d="M43 510v8q30 24 199 213q112 124 194 215l125 -35l-303 -397q13 -19 303 -397l-125 -35q-91 99 -166.5 182.5t-108.5 120.5t-59.5 66t-36.5 39t-22 20z" />
<glyph unicode="&#x203a;" horiz-adv-x="651" d="M90 117l303 397q-13 15 -303 397l125 35q346 -384 361 -400q15 -14 32 -28v-8q-12 -10 -22 -20t-36.5 -39t-59.5 -66t-108.5 -120.5t-166.5 -182.5z" />
<glyph unicode="&#x205f;" horiz-adv-x="446" />
<glyph unicode="&#x20ac;" horiz-adv-x="1148" d="M82 371v108h106q-4 25 -4 80q0 53 4 80h-104v109h123q49 186 187 299.5t339 113.5q82 0 161.5 -19.5t117.5 -39.5l39 -19l-52 -168q-5 3 -13.5 8.5t-37 20t-58 25t-73 19.5t-86.5 9q-124 0 -202 -68.5t-111 -180.5h532l-32 -109h-521q-2 -23 -2 -68q0 -49 6 -92h473 l-32 -108h-414q38 -107 118 -168.5t195 -61.5q61 0 125 16.5t98 32.5l33 17l50 -150q-5 -3 -15 -8.5t-42 -20t-67.5 -25t-89 -19.5t-108.5 -9q-194 0 -331 106.5t-187 289.5h-125z" />
<glyph unicode="&#x2122;" horiz-adv-x="1392" d="M74 1270v96h477v-96h-178v-449h-121v449h-178zM639 821l20 545h175l122 -358l125 358h168l21 -545h-115l-16 412l-146 -412h-78l-145 414l-12 -414h-119z" />
<glyph unicode="&#x25fc;" horiz-adv-x="921" d="M0 0v922h922v-922h-922z" />
</font>
</defs>
</svg>
