<?xml version="1.0" encoding="UTF-8" standalone="no"?>
<svg xmlns="http://www.w3.org/2000/svg" height="172px" width="569px" version="1.1" xmlns:xlink="http://www.w3.org/1999/xlink" viewBox="0 0 569 172"><!-- Generator: Sketch 40.2 (33826) - http://www.bohemiancoding.com/sketch -->
 <title>illustartion</title>
 <desc>Created with Sketch.</desc>
 <g id="Page-1" fill-rule="evenodd" fill="none">
  <g id="Artboard-2" transform="translate(-38 -7)">
   <g id="illustartion" transform="translate(38 6)">
    <g id="Group" transform="translate(59.561 141.49) rotate(42) translate(-20 -23)">
     <path id="Shape" fill="#EBC464" d="m23.151 39.091c-0.001 0-0.001 0 0 0-3.624-0.001-8.146-4.165-8.336-4.342-0.308-0.287-0.394-0.782-0.206-1.18 0.189-0.399 0.602-0.584 0.979-0.451 0.596 0.216 1.118 0.322 1.596 0.322 0.866 0 1.553-0.35 2.423-0.794 0.892-0.453 1.901-0.967 3.358-1.262 0.458-0.092 0.894-0.138 1.295-0.138 2.555 0 3.428 1.887 3.533 2.886 0.295 2.989-1.701 4.298-2.987 4.621-0.497 0.225-1.053 0.338-1.655 0.338zm-4.864-3.896c1.453 0.997 3.312 2.01 4.863 2.01h0.001c0.411 0 0.778-0.075 1.09-0.226v0.001c0.052-0.025 0.107-0.044 0.164-0.058 0.327-0.073 1.945-0.543 1.744-2.571-0.027-0.182-0.26-1.218-1.89-1.218-0.305 0-0.644 0.037-1.007 0.11-1.257 0.253-2.128 0.698-2.972 1.127-0.651 0.333-1.279 0.653-1.993 0.825z"/>
     <path id="Shape" fill="#EBC464" d="m15.978 30.417c-3.706 0-8.2438-4.928-8.4349-5.137-0.287-0.314-0.3366-0.816-0.1199-1.196s0.6403-0.529 1.0084-0.357c1.6054 0.756 2.6044 0.486 4.0344-0.088 0.921-0.369 1.965-0.786 3.44-0.941 0.266-0.028 0.516-0.04 0.749-0.04 2.97 0 3.829 2.115 3.869 3.234 0.086 3.054-2.075 4.151-3.31 4.326-0.386 0.132-0.801 0.199-1.236 0.199zm-5-4.366c1.539 1.251 3.467 2.48 5 2.48 0.293 0 0.565-0.047 0.807-0.137 0.059-0.022 0.119-0.036 0.18-0.043 0.324-0.04 1.964-0.346 1.906-2.391-0.018-0.214-0.208-1.416-2.216-1.416-0.186 0-0.385 0.012-0.598 0.033-1.271 0.133-2.171 0.493-3.042 0.843-0.673 0.268-1.317 0.526-2.037 0.631z"/>
     <path id="Shape" fill="#EBC464" d="m8.7931 21.983c-0.0008 0-0.0008 0 0 0-3.7267 0-8.2534-5.109-8.4445-5.326-0.28126-0.321-0.32262-0.823-0.09926-1.198 0.22335-0.374 0.65021-0.513 1.0142-0.334 0.7264 0.361 1.3402 0.528 1.9325 0.528 0.7007 0 1.3203-0.232 2.1061-0.526 0.9266-0.347 1.9763-0.74 3.4521-0.862 0.2126-0.018 0.4137-0.026 0.6047-0.026 3.0811 0 3.9371 2.173 3.9591 3.322 0.036 3.056-2.145 4.105-3.3833 4.251-0.3582 0.114-0.742 0.171-1.1416 0.171zm-5.023-4.48c1.5403 1.305 3.4802 2.593 5.023 2.593 0.268 0 0.5187-0.039 0.7454-0.118 0.0587-0.02 0.1191-0.033 0.1795-0.039 0.325-0.033 1.97-0.302 1.946-2.346-0.014-0.222-0.194-1.469-2.3051-1.469-0.1538 0-0.3151 0.007-0.4855 0.021-1.2723 0.105-2.1782 0.444-3.0551 0.772-0.6783 0.255-1.326 0.498-2.0482 0.586z"/>
     <path id="Shape" fill="#EBC464" d="m29.925 32.236c-0.156 0-0.321-0.01-0.491-0.033-0.114-0.017-1.075-0.182-1.782-1.269-0.669-1.027-0.87-2.482-0.596-4.325 0.252-1.691 0.693-2.866 1.081-3.901 0.587-1.563 0.975-2.595 0.407-4.716-0.115-0.435 0.057-0.903 0.411-1.112 0.354-0.21 0.787-0.101 1.033 0.255 0.505 0.737 4.863 7.283 3.434 11.587-0.225 1.273-1.214 3.514-3.497 3.514zm0.429-11.053c-0.15 0.813-0.42 1.532-0.696 2.268-0.37 0.985-0.752 2.004-0.97 3.474-0.452 3.034 0.817 3.379 0.963 3.408 0.079 0.011 0.178 0.017 0.273 0.017 1.555 0 1.871-1.965 1.884-2.049 0.01-0.065 0.026-0.13 0.048-0.191 0.644-1.82-0.375-4.668-1.502-6.927z"/>
     <path id="Shape" fill="#EBC464" d="m22.512 23.739l-0.15-0.004c-0.115-0.006-1.084-0.08-1.867-1.097-0.738-0.961-1.04-2.392-0.896-4.255 0.132-1.711 0.489-2.924 0.804-3.993 0.475-1.612 0.79-2.677 0.076-4.7361-0.147-0.4226-0.009-0.9037 0.328-1.1452 0.339-0.2396 0.778-0.1754 1.049 0.1595 0.556 0.6876 5.369 6.8098 4.23 11.235-0.042 0.355-0.176 1.089-0.528 1.808-0.637 1.307-1.72 2.028-3.046 2.028zm-0.005-11.079c-0.092 0.828-0.311 1.57-0.534 2.331-0.301 1.018-0.61 2.07-0.725 3.557-0.236 3.063 1.049 3.287 1.196 3.303h0.068c1.679 0 1.915-1.981 1.939-2.231 0.005-0.068 0.017-0.135 0.035-0.201 0.517-1.875-0.698-4.615-1.979-6.759z"/>
     <path id="Shape" fill="#EBC464" d="m15.27 15.346h-0.062c-0.115-0.003-1.087-0.057-1.886-1.058-0.755-0.943-1.08-2.367-0.966-4.233 0.103-1.7132 0.44-2.9339 0.738-4.0112 0.448-1.6225 0.744-2.6941-0.003-4.7364-0.153-0.41974-0.023-0.90366 0.311-1.1527 0.334-0.24809 0.775-0.19149 1.05 0.13679 0.567 0.67353 5.469 6.674 4.419 11.124-0.123 1.417-1.01 3.931-3.601 3.931zm-0.102-11.076c-0.078 0.8282-0.285 1.5753-0.496 2.3413-0.283 1.0235-0.576 2.0828-0.666 3.5732-0.08 1.313 0.106 2.292 0.538 2.833 0.32 0.4 0.691 0.441 0.694 0.441l0.032 0.944v-0.944c1.74 0 1.94-2.052 1.958-2.286 0.005-0.063 0.015-0.131 0.03-0.193 0.485-1.8826-0.775-4.5946-2.09-6.7095z"/>
     <path id="Shape" fill="#65B979" d="m29.133 38.962c-0.055 0-0.112-0.007-0.168-0.02-0.448-0.106-0.736-0.606-0.642-1.116 0.03-0.166 0.787-4.074 4.95-5.85 0.428-0.181 0.905 0.065 1.065 0.552 0.159 0.489-0.058 1.032-0.485 1.215-3.319 1.415-3.906 4.436-3.911 4.466-0.081 0.447-0.425 0.753-0.809 0.753z"/>
     <path id="Shape" fill="#65B979" d="m38.987 45.279c-0.215 0-0.43-0.095-0.592-0.284l-6.091-7.093c-0.319-0.373-0.314-0.969 0.013-1.334 0.326-0.365 0.849-0.359 1.17 0.015l6.091 7.094c0.319 0.372 0.315 0.968-0.013 1.333-0.161 0.18-0.369 0.269-0.578 0.269z"/>
     <g id="Shape" fill="#EBC464" transform="translate(1.8784 1.1996)">
      <path d="m4.7962 11.088c-0.2391 0-0.4757-0.117-0.6387-0.343-0.4483-0.622-4.3728-6.1734-4.0104-9.8731 0.05042-0.51786 0.4599-0.89235 0.9141-0.83292 0.4541 0.057537 0.7809 0.52448 0.7304 1.0414-0.2415 2.4724 2.5479 6.9475 3.6432 8.4635 0.2904 0.4018 0.2399 0.9961-0.1125 1.3281-0.1539 0.145-0.34 0.216-0.5261 0.216z"/>
      <path d="m8.7777 6.4507c-0.1903 0-0.3822-0.0754-0.5385-0.2273-1.2996-1.2726-5.1389-4.5081-7.2368-4.2365-0.45496 0.0708-0.86445-0.3103-0.91739-0.8282-0.052943-0.51694 0.27216-0.98577 0.72549-1.0452 3.1882-0.43204 7.973 4.1544 8.5074 4.6789 0.3458 0.3396 0.3855 0.9348 0.0877 1.33-0.1638 0.217-0.3946 0.3283-0.6279 0.3283z"/>
     </g>
    </g>
    <g id="Group" transform="translate(29.722 150.34)">
     <path id="Shape" fill="#1D579D" d="m8.1409 0.38318c-0.1352-0.1898-0.3516-0.32536-0.568-0.32536-0.2163-0.000005-0.4597 0.10845-0.5679 0.32536l-6.0043 9.571v0.0271c-1.2712 2.1967-1.2712 4.8807 0.0271 7.1307 1.3523 2.359 3.8676 3.823 6.5451 3.823 2.6781 0 5.1931-1.464 6.5451-3.823 1.298-2.25 1.325-4.934 0.027-7.1578l-6.0041-9.571v-0.00002zm4.8141 16.051c-1.109 1.952-3.1913 3.145-5.3821 3.145-2.1907 0-4.2733-1.193-5.3822-3.145-1.0548-1.843-1.0818-3.985-0.0541-5.775l5.4093-8.649 5.4091 8.649c1.055 1.79 1.055 3.959 0 5.775z"/>
     <path id="Shape" fill="#000" d="m11.873 13.018c-0.378 0-0.676 0.298-0.676 0.678 0 1.681-1.3792 3.037-3.0561 3.037-0.3786 0-0.6761 0.298-0.6761 0.677 0 0.38 0.2975 0.678 0.6761 0.678 2.4341 0 4.4081-1.979 4.4081-4.419 0-0.353-0.297-0.651-0.676-0.651z"/>
    </g>
    <g id="Group" transform="translate(157.96 122.98)">
     <path id="Shape" fill="#3065A6" d="m45.289 17.27v-13.693c0-0.734-0.363-1.4116-0.968-1.8238-0.606-0.4122-1.373-0.494-2.055-0.2202l-9.084 3.6251c-1.237 0.4969-2.046 1.6883-2.046 3.018v0.6268 8.4701h-22.644c-3.1253 0-5.6615 2.529-5.6615 5.646v8.47c-1.5624 0-2.8305 1.262-2.8305 2.823v2.823c0 1.562 1.2681 2.824 2.8305 2.824h5.6611c0-6.228 5.0784-11.293 11.322-11.293 6.244 0 11.322 5.065 11.322 11.293h16.983v-22.586h-2.83v-0.003zm-2.831 0h-8.492v-7.9335c0-1.0051 0.615-1.9142 1.549-2.2868l6.943-2.764v12.984z"/>
     <path id="Shape" fill="#000" d="m70.763 31.386c-4.69 0-8.491 3.792-8.491 8.47s3.801 8.47 8.491 8.47c4.691 0 8.492-3.792 8.492-8.47s-3.801-8.47-8.492-8.47zm0 11.293c-1.562 0-2.83-1.265-2.83-2.823 0-1.559 1.268-2.823 2.83-2.823 1.563 0 2.831 1.264 2.831 2.823 0 1.558-1.268 2.823-2.831 2.823z"/>
     <path id="Shape" fill="#D94646" d="m84.916 31.454v-8.538c0-1.742-1.415-3.153-3.162-3.153h-2.499l-5.01-17.47c-0.385-1.3557-1.625-2.293-3.037-2.293h-20.258v39.856h8.491c0-6.228 5.078-11.293 11.322-11.293 6.245 0 11.322 5.065 11.322 11.293h2.5 0.331v-0.065c1.588-0.175 2.831-1.465 2.831-3.089v-2.162c0-1.624-1.243-2.914-2.831-3.086zm-17.297-20.161c-1.39 0-2.517 1.039-2.517 2.324v3.322h-8.491v-11.292l15.655-0.0005 1.614 5.6465h-6.261z"/>
     <path id="Shape" fill="#000" d="m19.814 31.386c-4.69 0-8.492 3.792-8.492 8.47s3.802 8.47 8.492 8.47 8.491-3.792 8.491-8.47-3.801-8.47-8.491-8.47zm0 11.293c-1.566 0-2.831-1.262-2.831-2.823s1.265-2.823 2.831-2.823c1.565 0 2.83 1.262 2.83 2.823s-1.265 2.823-2.83 2.823z"/>
    </g>
    <g id="Group" transform="translate(290.59 80.695)">
     <path id="Shape" fill="#000" d="m95.283 44.291c-1.933 0-3.544 1.287-4.027 3.056h-7.087l-5.154-15.767-5.798 25.26-2.899-9.332h-8.859l-3.866-13.192-3.704 15.606h-6.121c-0.483-1.77-2.093-3.057-4.026-3.057-2.416 0-4.188 1.93-4.188 4.183 0 2.413 1.933 4.183 4.188 4.183 1.933 0 3.543-1.287 4.026-3.057h8.054l2.094-8.688 1.932 6.275h9.02l5.154 16.088 5.799-25.42 2.899 9.01h8.858c0.484 1.77 2.094 3.057 4.027 3.057 2.416 0 4.188-1.931 4.188-4.183-0.161-2.092-2.094-4.022-4.51-4.022zm-51.702 8.687c-0.967 0-1.772-0.804-1.772-1.769 0-0.966 0.805-1.77 1.772-1.77 0.966 0 1.771 0.804 1.771 1.77 0 0.965-0.805 1.769-1.771 1.769zm51.702-2.735c-0.966 0-1.772-0.804-1.772-1.769 0-0.966 0.806-1.77 1.772-1.77s1.772 0.804 1.772 1.77c0.161 0.965-0.645 1.769-1.772 1.769z"/>
     <path id="Shape" fill="#21508B" d="m105.59 78.077v-78.03l-105.5-0.000408 0.002803 78.03h37.689v10.136h-5.959v2.413h42.36v-2.413h-5.959v-10.136h37.366zm-2.41-75.617v65.642h-100.67l-0.0012-65.642 100.67-0.0001zm-100.67 73.203v-5.148h100.67v5.148h-100.67-0.0012zm62.977 12.389h-25.449v-10.136h25.449v10.136z"/>
     <path id="Shape" fill="#D94646" d="m46.48 24.662c-0.644-9.814-8.698-17.697-18.523-18.502l-1.288-0.1606v19.79h19.811v-1.127zm-17.234-1.126v-14.802c7.57 1.1267 13.69 7.24 14.818 14.802h-14.818z"/>
     <path id="Shape" fill="#507CB3" d="m46.319 29.65l0.322-1.448h-19.489l11.919 13.675 0.966-0.804c3.222-3.057 5.476-7.079 6.282-11.423zm-14.013 0.965h11.275c-0.806 2.896-2.255 5.631-4.51 7.723l-6.765-7.723z"/>
     <path id="Shape" fill="#F5A623" d="m23.608 45.739c0.967 0.16 2.094 0.16 3.061 0.16 3.382 0 6.603-0.804 9.503-2.413l-1.128-2.091c-3.382 1.769-7.248 2.574-11.113 1.93-7.571-1.126-13.53-7.079-14.657-14.641-0.6447-4.665 0.4828-9.331 3.221-13.031 2.738-3.701 6.926-6.275 11.597-6.9185l-0.322-2.4133c-5.155 0.8044-9.987 3.7008-13.208 7.8838-3.2212 4.344-4.5097 9.492-3.7044 14.962 1.2885 8.527 8.2144 15.284 16.75 16.572z"/>
     <rect id="Rectangle-path" height="2.4133" width="46.548" y="10.826" x="51.795" fill="#D94646"/>
     <rect id="Rectangle-path" height="2.4133" width="30.925" y="18.549" x="67.58" fill="#507CB3"/>
    </g>
    <g id="Group" transform="translate(441.05 110.64)">
     <path id="Shape" d="m17.535 54.861c-1.056 0-1.914 0.856-1.914 1.911 0 1.056 0.858 1.914 1.914 1.914 1.058 0 1.918-0.858 1.918-1.914s-0.86-1.911-1.918-1.911z"/>
     <path id="Shape" d="m3.5882 52.901h27.895v-47.022l-27.895-0.0005 0.0002 47.022v0.001zm13.949-39.888c4.999 0 9.052 4.048 9.052 9.041s-4.053 9.04-9.052 9.04c-5 0-9.0532-4.047-9.0532-9.04s4.0532-9.041 9.0532-9.041zm-9.34 24.994h18.754c0.344 0 0.623 0.278 0.623 0.622 0 0.343-0.279 0.621-0.623 0.621h-18.754c-0.3436 0-0.6227-0.278-0.6227-0.621 0-0.344 0.2791-0.622 0.6227-0.622zm0 3.156h18.754c0.344 0 0.623 0.28 0.623 0.622 0 0.344-0.279 0.623-0.623 0.623h-18.754c-0.3436 0-0.6227-0.279-0.6227-0.623 0-0.342 0.2791-0.622 0.6227-0.622zm0 3.158h18.754c0.344 0 0.623 0.278 0.623 0.622 0 0.343-0.279 0.622-0.623 0.622h-18.754c-0.3436 0-0.6227-0.279-0.6227-0.622 0-0.344 0.2791-0.622 0.6227-0.622zm0 3.157h18.754c0.344 0 0.623 0.278 0.623 0.622 0 0.343-0.279 0.622-0.623 0.622h-18.754c-0.3436 0-0.6227-0.279-0.6227-0.622 0-0.344 0.2791-0.622 0.6227-0.622z"/>
     <path id="Shape" d="m15.322 3.632h4.429c0.369 0 0.669-0.3004 0.669-0.6691 0-0.3681-0.3-0.6685-0.669-0.6685h-4.429c-0.369 0-0.669 0.3004-0.669 0.6685 0 0.3693 0.3 0.6691 0.669 0.6691z"/>
     <path id="Shape" fill="#21508B" d="m30.767 0.049215h-26.461c-2.3778 0-4.3048 1.925-4.3048 4.2991l0.0000384 51.997c0 2.376 1.927 4.298 4.3048 4.298h26.461c2.378 0 4.305-1.924 4.305-4.298v-51.997c0-2.3731-1.927-4.2988-4.305-4.2988v0.000015zm-15.445 2.2459h4.429c0.369 0 0.669 0.3004 0.669 0.6684 0 0.3687-0.3 0.6691-0.669 0.6691h-4.429c-0.369 0-0.669-0.3004-0.669-0.6691s0.3-0.6684 0.669-0.6684zm2.213 56.391c-1.056 0-1.914-0.858-1.914-1.914 0-1.055 0.858-1.911 1.914-1.911 1.058 0 1.918 0.856 1.918 1.911 0 1.056-0.86 1.914-1.918 1.914zm13.948-5.785h-27.895l0.0002-47.022 27.895-0.0005v47.022 0.001z"/>
     <path id="Shape" d="m17.537 13.737c-4.6 0-8.329 3.724-8.329 8.317h8.329v-8.317z"/>
     <path id="Shape" fill="#D94646" d="m17.537 31.094c4.999 0 9.052-4.047 9.052-9.04s-4.053-9.041-9.052-9.041c-5 0-9.0532 4.048-9.0532 9.041s4.0532 9.04 9.0532 9.04zm0-17.357v8.317h-8.329c0-4.593 3.729-8.317 8.329-8.317z"/>
     <path id="Shape" fill="#D94646" d="m8.197 39.25h18.754c0.344 0 0.623-0.278 0.623-0.622 0-0.343-0.279-0.622-0.623-0.622h-18.754c-0.3436 0-0.6227 0.279-0.6227 0.622 0 0.344 0.2791 0.622 0.6227 0.622z"/>
     <path id="Shape" fill="#F5A623" d="m8.197 42.407h18.754c0.344 0 0.623-0.279 0.623-0.622s-0.279-0.622-0.623-0.622h-18.754c-0.3436 0-0.6227 0.279-0.6227 0.622 0 0.344 0.2791 0.622 0.6227 0.622z"/>
     <path id="Shape" fill="#507CB3" d="m8.197 45.564h18.754c0.344 0 0.623-0.279 0.623-0.622s-0.279-0.622-0.623-0.622h-18.754c-0.3436 0-0.6227 0.279-0.6227 0.622s0.2791 0.622 0.6227 0.622z"/>
     <path id="Shape" fill="#000" d="m8.197 48.722h18.754c0.344 0 0.623-0.279 0.623-0.622 0-0.344-0.279-0.622-0.623-0.622h-18.754c-0.3436 0-0.6227 0.278-0.6227 0.622 0 0.343 0.2791 0.622 0.6227 0.622z"/>
    </g>
    <g id="Group" transform="translate(315.66 24.26) scale(-1) translate(-11.5 -24)">
     <path id="Shape" fill="#000" d="m12.879 32.999v-28.023c0-2.7186-2.228-4.9427-4.9504-4.9427-2.7226-0.000005-4.9502 2.2241-4.9502 4.9424v28.023c-1.8315 1.483-2.9701 3.756-2.9701 6.129 0.0000442 4.349 3.5642 7.908 7.9203 7.908 4.3564 0 7.8704-3.559 7.8704-7.908 0-2.373-1.089-4.646-2.92-6.129zm-4.9504 12.356c-3.4156 0-6.1877-2.767-6.1877-6.178 0-2.174 1.1385-4.151 2.9701-5.288v-28.864c0-1.7791 1.4355-3.2619 3.2671-3.2619 1.782 0 3.2669 1.4333 3.2669 3.262v28.864c1.782 1.137 2.97 3.114 2.97 5.288-0.099 3.411-2.871 6.178-6.2864 6.178z"/>
     <path id="Shape" fill="#3065A6" d="m9.4631 34.927v-29.902c0-0.8401-0.693-1.532-1.5345-1.532s-1.5346 0.6919-1.5346 1.5321v29.902c-1.7325 0.642-2.9701 2.273-2.9701 4.201 0 2.471 2.0296 4.497 4.5047 4.497 2.4754 0 4.5044-2.026 4.5044-4.497 0-1.928-1.237-3.559-2.9699-4.201z"/>
     <rect id="Rectangle-path" height="1.6804" width="8.0687" y="5.0746" x="14.611" fill="#3065A6"/>
     <rect id="Rectangle-path" height="1.6804" width="3.8116" y="10.659" x="14.611" fill="#000"/>
     <rect id="Rectangle-path" height="1.6804" width="8.0687" y="16.294" x="14.611" fill="#3065A6"/>
     <rect id="Rectangle-path" height="1.6804" width="3.8116" y="21.879" x="14.611" fill="#000"/>
     <rect id="Rectangle-path" height="1.6804" width="8.0687" y="27.464" x="14.611" fill="#3065A6"/>
    </g>
    <g id="Group" transform="translate(79.046 137.21)">
     <path id="Shape" fill="#D94646" d="m28.512 25.636h-16.276c-0.614 0-1.11-0.496-1.11-1.109v-6.656c0-0.613 0.496-1.109 1.11-1.109h16.276c0.613 0 1.11 0.496 1.11 1.109v6.656c0 0.612-0.497 1.109-1.11 1.109z"/>
     <path id="Shape" fill="#F5A623" d="m28.512 14.636h-16.276c-0.614 0-1.11-0.496-1.11-1.109v-6.6554c0-0.6128 0.496-1.1093 1.11-1.1093h16.276c0.613 0 1.11 0.4965 1.11 1.1093v6.6554c0 0.613-0.497 1.109-1.11 1.109z"/>
     <path id="Shape" fill="#000" d="m32.951 27.389h-22.935c-0.6122 0-1.1101-0.497-1.1101-1.109v-22.924c0-1.8351-1.4936-3.3274-3.3291-3.3274l-4.4389-0.000026c-0.61259-0.000574-1.1099 0.49649-1.1099 1.1088 0.000014 0.6123 0.49731 1.1093 1.1099 1.1093h4.4389c0.6121 0 1.1099 0.4977 1.1099 1.1094v22.925c0 1.532 1.0422 2.825 2.455 3.21-0.1515 0.38-0.2352 0.794-0.2352 1.226 0 1.836 1.4935 3.328 3.3295 3.328s3.329-1.493 3.329-3.328c0-0.388-0.068-0.761-0.191-1.109h9.999c-0.123 0.348-0.191 0.721-0.191 1.109 0 1.836 1.494 3.328 3.33 3.328 1.835 0 3.329-1.493 3.329-3.328 0-0.388-0.068-0.761-0.191-1.109h1.3c0.614 0 1.11-0.496 1.11-1.109s-0.496-1.11-1.109-1.11zm-19.606 3.328c0 0.612-0.497 1.109-1.109 1.109s-1.11-0.497-1.11-1.109 0.498-1.109 1.11-1.109 1.109 0.497 1.109 1.109zm16.277 0c0 0.612-0.498 1.109-1.11 1.109s-1.11-0.497-1.11-1.109 0.498-1.109 1.11-1.109 1.11 0.497 1.11 1.109z"/>
    </g>
    <g id="LINES" stroke-opacity=".99649" transform="translate(0 47.269)" stroke="#000" stroke-linecap="square" stroke-dasharray="1,3">
     <path id="Line" d="m0 123.33h29.893"/>
     <path id="Line-Copy-3" d="m111.83 123.33h59.79"/>
     <polyline id="Line-Copy-4" points="236.38 123.07 291.9 123.07 321.08 123.07"/>
     <polyline id="Line-Copy-7" points="302.74 17.006 323.64 17.006 334.63 17.006" transform="translate(318.69 17.506) rotate(90) translate(-318.69 -17.506)"/>
     <polyline id="Line-Copy-8" points="349.68 16.409 370.58 16.409 381.56 16.409" transform="translate(365.62 16.909) rotate(90) translate(-365.62 -16.909)"/>
     <polyline id="Line-Copy-5" points="366.72 122.87 414.4 122.87 439.46 122.87"/>
     <polyline id="Line-Copy-6" points="476.13 123.37 505.52 123.37 520.97 123.37"/>
    </g>
    <g id="Group" transform="translate(525.38 119.86)">
     <ellipse id="Oval" rx="5.2746" transform="translate(15.16 6.5039) rotate(-76.891) translate(-15.16 -6.5039)" ry="5.3195" cy="6.5039" cx="15.16" fill="#000"/>
     <path id="Shape" fill="#21508B" d="m2.9315 52.395c0.7307 0 1.4621-0.274 2.0305-0.825 2.9324-2.837 4.7634-5.93 5.824-8.845 0.07-0.193 0.137-0.385 0.201-0.577-0.061 1.746-0.424 3.815-1.2963 6.258-0.5492 1.536 0.2405 3.23 1.7643 3.783 1.522 0.553 3.202-0.243 3.751-1.78 1.166-3.259 1.654-6.195 1.653-8.793 0.009-4.625-1.57-8.104-3.18-10.324-0.144-0.199-0.286-0.384-0.428-0.564 0.003-0.263-0.005-0.55-0.024-0.867-0.208-1.568-0.165-3.238 0.001-4.887-1.024-0.847-1.924-1.87-2.682-3.066-1.5406-2.443-2.044-4.776-2.1892-5.665l-0.0051-0.033c-0.0915-0.646 0.0673-1.269 0.4434-1.774 0.3766-0.504 0.9256-0.832 1.5459-0.92 0.11-0.015 0.221-0.024 0.331-0.024 1.157 0 2.153 0.871 2.319 2.026 0.006 0.036 0.012 0.073 0.022 0.124 0.031 0.161 0.069 0.331 0.114 0.508 0.105 0.411 0.296 1.053 0.612 1.776 0.134 0.308 0.298 0.645 0.495 0.993 0.082-0.409 0.162-0.806 0.235-1.182 0.673-2.353-0.207-5.17-2.209-5.673-2.002-0.504-4.904 0.593-6.0842 4.055-1.5963 4.772-1.9389 7.877-1.3325 13.13 0.2341 1.215 0.6573 2.081 1.1943 2.697 0.1189 0.643 0.2596 1.672 0.2582 2.937 0.0005 1.639-0.2317 3.662-1.0121 5.8-0.7839 2.14-2.1011 4.408-4.3828 6.624-1.1675 1.13-1.2048 3.002-0.0832 4.179 0.5752 0.604 1.3439 0.908 2.1138 0.909z"/>
     <path id="Shape" fill="#000" d="m23.522 27.111l0.856 0.241 5.616 16.522c-1.493 1.227-2.157 3.3-1.502 5.248 0.842 2.505 3.538 3.847 6.022 2.998 2.296-0.785 3.602-3.167 3.123-5.5l5.09-1.741c0.613-0.21 0.942-0.881 0.734-1.499s-0.873-0.95-1.486-0.74l-5.375 1.837c-0.23-0.27-0.485-0.514-0.764-0.724l5.158-1.763c0.478-0.164 0.734-0.687 0.572-1.17l-2.202-6.549c-0.162-0.482-0.681-0.741-1.159-0.577l-6.495 2.22c-0.478 0.164-0.734 0.687-0.572 1.17l1.922 5.717c-0.306-0.005-0.615 0.021-0.924 0.079l-5.739-16.882c-0.125-0.367-0.424-0.652-0.794-0.755l-1.417-0.399c0.037 0.158 0.06 0.323 0.065 0.493 0.018 0.695-0.266 1.328-0.729 1.774zm8.865 18.682c0.981-0.336 2.047 0.195 2.379 1.184 0.066 0.196 0.097 0.395 0.099 0.591 0.007 0.794-0.486 1.539-1.273 1.808-0.981 0.336-2.047-0.195-2.379-1.184-0.106-0.314-0.124-0.636-0.07-0.94 0.117-0.656 0.574-1.23 1.244-1.459z"/>
     <path id="Shape" fill="#D94646" d="m28.179 28.144l2.202 6.549c0.162 0.483 0.681 0.741 1.159 0.577l6.495-2.22c0.478-0.163 0.734-0.687 0.572-1.169l-2.202-6.55c-0.162-0.482-0.681-0.741-1.16-0.577l-6.494 2.221c-0.478 0.163-0.735 0.687-0.572 1.169z"/>
     <path id="Shape" fill="#21508B" d="m12.673 16.268c-0.059-0.232-0.098-0.415-0.12-0.534-0.012-0.059-0.019-0.102-0.023-0.126-0.002-0.011-0.003-0.019-0.004-0.022-0.148-1.032-1.096-1.748-2.12-1.602-1.0258 0.147-1.7394 1.105-1.5938 2.14 0.0286 0.151 0.3839 2.762 2.1288 5.529 0.596 0.94 1.369 1.897 2.349 2.754 0.459 0.401 0.959 0.782 1.516 1.125 1.735 1.075 3.956 1.77 6.617 1.77h0.025c0.173 0 0.343-0.003 0.511-0.008 0.378-0.011 0.726-0.134 1.015-0.336 0.503-0.352 0.826-0.944 0.808-1.608-0.007-0.233-0.057-0.455-0.14-0.659-0.286-0.71-0.984-1.202-1.788-1.179-0.143 0.004-0.279 0.007-0.406 0.007-2.046-0.005-3.521-0.503-4.686-1.215-1.161-0.713-2.028-1.693-2.666-2.7-0.316-0.499-0.576-1.004-0.787-1.487-0.316-0.724-0.518-1.384-0.636-1.849z"/>
    </g>
    <g id="Group" transform="translate(346.95 16.84)">
     <path id="Shape" fill="#7CC48D" d="m3.8286 20.401h12.6c0.291 0 0.485-0.195 0.485-0.487s-0.194-0.487-0.485-0.487h-12.6c-0.2912 0-0.4851 0.195-0.4851 0.487s0.2424 0.487 0.4847 0.487z"/>
     <path id="Shape" fill="#21508B" d="m3.8286 23.955h5.8155c0.2908 0 0.4849-0.195 0.4849-0.487s-0.1941-0.487-0.4849-0.487h-5.8155c-0.2908 0-0.4847 0.195-0.4847 0.487s0.2424 0.487 0.4847 0.487z"/>
     <path id="Shape" fill="#21508B" d="m40.709 0.34082h-33.779c-1.5506 0-2.8591 1.2659-2.8591 2.8727v1.3633h-1.26c-1.5509 0-2.8109 1.2659-2.8109 2.8239v18.453c0 1.558 1.26 2.824 2.8109 2.824h33.876c1.55 0 2.81-1.266 2.81-2.824v-1.412h1.212c1.551 0 2.859-1.266 2.859-2.873v-18.356c0-1.5576-1.308-2.8722-2.859-2.8722v0.00002zm-2.181 25.513c0 1.022-0.824 1.85-1.841 1.85h-33.876c-1.0179 0-1.8417-0.828-1.8417-1.85l-0.00004-10.907h37.511v10.907h0.048zm0-15.435h-37.51l-0.0003-3.0183c0-1.0225 0.8239-1.8502 1.8416-1.8502h33.876c1.018 0 1.842 0.8277 1.842 1.8502v3.0183h-0.049zm4.071 11.15c0 1.023-0.824 1.899-1.89 1.899h-1.212v-16.067c0-1.5583-1.26-2.8242-2.81-2.8242h-31.647l0.0002-1.3633c0-1.0225 0.8238-1.8989 1.89-1.8989h33.779c1.018 0 1.89 0.8277 1.89 1.8989v18.356-0.001z"/>
     <path id="Shape" fill="#7CC48D" d="m30.483 24.344h3.683 0.049 0.097c0.048 0 0.048 0 0.097-0.048 0.048 0 0.097-0.049 0.097-0.098 0.097-0.097 0.145-0.194 0.145-0.34v-2.776-0.048-0.098c0-0.048 0-0.048-0.048-0.097 0-0.049-0.049-0.098-0.097-0.098-0.049-0.048-0.049-0.048-0.097-0.097-0.049 0-0.049-0.049-0.097-0.049h-0.097-0.049-0.193v-0.876c0-0.633-0.485-1.12-1.115-1.12h-0.969c-0.63 0-1.115 0.487-1.115 1.12v0.876h-0.242c-0.146 0-0.243 0.049-0.34 0.146-0.048 0.049-0.048 0.049-0.096 0.098 0 0.049-0.049 0.049-0.049 0.097v0.098 0.048 2.776c-0.048 0.292 0.145 0.486 0.436 0.486zm0.921-4.625c0-0.243 0.194-0.487 0.485-0.487h0.969c0.242 0 0.485 0.195 0.485 0.487v0.876h-1.939v-0.876z"/>
    </g>
   </g>
  </g>
 </g>
</svg>
