<?xml version="1.0" encoding="UTF-8"?>
<svg width="569px" height="172px" viewBox="0 0 569 172" version="1.1" xmlns="http://www.w3.org/2000/svg" xmlns:xlink="http://www.w3.org/1999/xlink">
    <!-- Generator: Sketch 40.2 (33826) - http://www.bohemiancoding.com/sketch -->
    <title>illustartion</title>
    <desc>Created with Sketch.</desc>
    <defs></defs>
    <g id="Page-1" stroke="none" stroke-width="1" fill="none" fill-rule="evenodd">
        <g id="Artboard-2" transform="translate(-38.000000, -7.000000)">
            <g id="illustartion" transform="translate(38.000000, 6.000000)">
                <g id="Group" transform="translate(59.561212, 141.494395) rotate(42.000000) translate(-59.561212, -141.494395) translate(39.561212, 118.494395)">
                    <path d="M23.1507583,39.0911524 C23.1499311,39.0911524 23.1499311,39.0911524 23.1507583,39.0911524 C19.5266026,39.0902091 15.0048871,34.9263976 14.814621,34.7490536 C14.5068862,34.4622845 14.4208529,33.9670419 14.6094645,33.5689611 C14.7980761,33.1699371 15.2108708,32.9850465 15.5880941,33.1180545 C16.1837097,33.3340746 16.7057007,33.4397264 17.1838477,33.4397264 C18.0499721,33.4397264 18.7365846,33.0897549 19.6068452,32.6463948 C20.4986142,32.1926583 21.5078518,31.6785492 22.9654557,31.3842336 C23.4229216,31.2917883 23.8588791,31.2455657 24.2600925,31.2455657 C26.8146218,31.2455657 27.6881914,33.1331476 27.7932514,34.1321228 C28.0877502,37.1205584 26.0916106,38.4298856 24.8060735,38.7525008 C24.3088999,38.9779541 23.7529919,39.0911524 23.1507583,39.0911524 L23.1507583,39.0911524 Z M18.2873911,35.1952436 C19.7400315,36.1923321 21.5988487,37.2054571 23.1499311,37.2054571 L23.1507583,37.2054571 C23.5618986,37.2054571 23.9291949,37.1299915 24.2410659,36.9790605 L24.2410659,36.9800038 C24.2931822,36.9554775 24.3477803,36.9356678 24.4048602,36.9224613 C24.7316215,36.8488824 26.3497107,36.3791094 26.1486904,34.3509728 C26.1222186,34.1689122 25.8889358,33.1331476 24.2592652,33.1331476 C23.9540122,33.1331476 23.6148422,33.1699371 23.2516821,33.2425727 C21.9950985,33.4963255 21.1240106,33.9406289 20.2802218,34.3698392 C19.6291808,34.702831 19.0013026,35.0226162 18.2873911,35.1952436 L18.2873911,35.1952436 Z" id="Shape" fill="#EBC464"></path>
                    <path d="M15.977726,30.4173313 L15.977726,30.4173313 C12.2716731,30.4173313 7.73423997,25.4894312 7.54314662,25.2800143 C7.25609297,24.965889 7.20645833,24.4640431 7.42319624,24.0838854 C7.63993416,23.7037277 8.06348307,23.5546833 8.43160663,23.7273107 C10.0372871,24.4829095 11.0357706,24.2131202 12.4660754,23.6386387 C13.3867979,23.2698009 14.4307798,22.8528537 15.9057558,22.6981494 C16.1721283,22.6698498 16.421956,22.6575866 16.6552388,22.6575866 C19.6250446,22.6575866 20.4837238,24.7725085 20.5242588,25.8922286 C20.6102921,28.9457532 18.4487037,30.0428335 17.2136285,30.2182909 C16.8281328,30.3503556 16.4128563,30.4173313 15.977726,30.4173313 L15.977726,30.4173313 Z M10.9778635,26.0507062 C12.5173645,27.3024909 14.4448429,28.5306927 15.977726,28.5306927 L15.977726,28.5306927 C16.2705703,28.5306927 16.5427336,28.48447 16.7851161,28.3939114 C16.8438504,28.372215 16.9042392,28.3580652 16.964628,28.351462 C17.2889077,28.3108993 18.9285052,28.0052638 18.8705981,25.9601475 C18.853226,25.7460141 18.6629599,24.5442253 16.6552388,24.5442253 C16.4691089,24.5442253 16.2697431,24.5555451 16.0571414,24.5772414 C14.7856674,24.7102495 13.885626,25.0696541 13.0145381,25.4196256 C12.3419888,25.6884716 11.698393,25.9459978 10.9778635,26.0507062 L10.9778635,26.0507062 Z" id="Shape" fill="#EBC464"></path>
                    <path d="M8.79311223,21.9831133 C8.79228499,21.9831133 8.79228499,21.9831133 8.79311223,21.9831133 C5.06637822,21.9831133 0.539699293,16.8740959 0.348605939,16.6571325 C0.0673429945,16.3364039 0.0259807967,15.8336147 0.249336665,15.4591169 C0.472692533,15.0846192 0.899550413,14.9459512 1.26353775,15.1251819 C1.98985795,15.4855299 2.60367296,15.6534407 3.19597963,15.6534407 C3.89665526,15.6534407 4.51626099,15.4213842 5.30214274,15.1270685 C6.22865597,14.779927 7.27842855,14.3865629 8.75423177,14.2648747 C8.96683347,14.2469516 9.16785375,14.2394051 9.3589471,14.2394051 C12.4396036,14.2394051 13.2958011,16.4118694 13.3181367,17.5608324 C13.3537082,20.6171869 11.1730931,21.666158 9.93470889,21.8123725 C9.57651226,21.9255708 9.19267106,21.9831133 8.79311223,21.9831133 L8.79311223,21.9831133 Z M3.77008694,17.5032899 C5.31041518,18.8079005 7.25030226,20.0964747 8.79311223,20.0964747 L8.79311223,20.0964747 C9.06113928,20.0964747 9.31179419,20.0568553 9.53845904,19.9776164 C9.59719336,19.9578067 9.65758217,19.9446003 9.71797098,19.9389404 C10.0430779,19.9059242 11.6876388,19.6370782 11.6636488,17.5929052 C11.6495856,17.3712252 11.4700737,16.124157 9.3589471,16.124157 C9.20507972,16.124157 9.04376715,16.1307603 8.8733549,16.1449101 C7.6010537,16.2496185 6.69522156,16.5892135 5.81834297,16.9174886 C5.14000293,17.1721848 4.49227091,17.4146179 3.77008694,17.5032899 L3.77008694,17.5032899 Z" id="Shape" fill="#EBC464"></path>
                    <path d="M29.9250591,32.2360509 C29.76871,32.2360509 29.6040884,32.2256744 29.4336762,32.2030348 C29.3195165,32.186055 28.3590863,32.0209741 27.6517927,30.9342703 C26.9825523,29.9069956 26.7823593,28.4523972 27.056177,26.6091512 C27.3076592,24.9177797 27.7485802,23.7433472 28.1373849,22.7075825 C28.7239008,21.1454458 29.1118783,20.1134544 28.5443889,17.9919293 C28.4285748,17.5570591 28.6006415,17.0891727 28.9547019,16.8797558 C29.3087623,16.6703389 29.7422382,16.7788207 29.9879296,17.1353954 C30.4925484,17.8721277 34.8512968,24.4178205 33.4218193,28.7221865 C33.1968089,29.9947243 32.2082524,32.2360509 29.9250591,32.2360509 L29.9250591,32.2360509 Z M30.3535714,21.1831785 C30.2038403,21.9963198 29.9341588,22.7151291 29.6578593,23.4509182 C29.2880812,24.4357435 28.9058945,25.4545284 28.6875021,26.9251632 C28.2358269,29.9588781 29.5048191,30.304133 29.6512413,30.3333759 C29.7298295,30.3437524 29.8290988,30.3503556 29.9242318,30.3503556 C31.4786232,30.3503556 31.7954577,28.3854215 31.8078663,28.3014661 C31.8177932,28.236377 31.8335109,28.171288 31.8558465,28.1099723 C32.5002695,26.2903093 31.481105,23.4424283 30.3535714,21.1831785 L30.3535714,21.1831785 Z" id="Shape" fill="#EBC464"></path>
                    <path d="M22.512126,23.7386306 L22.3615676,23.7348573 C22.2465807,23.7291974 21.277878,23.6546751 20.4953052,22.6377769 C19.7565764,21.6774779 19.4554596,20.2464625 19.5994,18.3834068 C19.7309318,16.6722256 20.0883012,15.4591169 20.4034811,14.3903361 C20.8783192,12.7782034 21.1926719,11.7131959 20.4787603,9.65392987 C20.3323382,9.23132281 20.4704879,8.75022996 20.8071762,8.50874022 C21.145519,8.26913711 21.5847855,8.33328283 21.8561215,8.66816118 C22.4120295,9.35584096 27.2249348,15.4779833 26.0858199,19.9030942 C26.0436304,20.2577823 25.9096169,20.9916847 25.5580382,21.7114373 C24.9210604,23.0179346 23.838198,23.7386306 22.512126,23.7386306 L22.512126,23.7386306 Z M22.5071625,12.6602885 C22.4153384,13.4875796 22.1961188,14.2299719 21.9727629,14.9912306 C21.6724734,16.0090721 21.3630841,17.0608731 21.2480972,18.5484877 C21.0115055,21.6105022 22.2970426,21.8350122 22.444292,21.8510486 L22.512126,21.8510486 C24.190604,21.8510486 24.4271957,19.870078 24.4511858,19.6200984 C24.4561493,19.5521794 24.4677307,19.4852038 24.4859301,19.4191714 C25.0029575,17.5438526 23.7877362,14.80351 22.5071625,12.6602885 L22.5071625,12.6602885 Z" id="Shape" fill="#EBC464"></path>
                    <path d="M15.2704324,15.3459186 L15.2083891,15.3459186 C15.092575,15.3430887 14.1213906,15.2893195 13.3222729,14.2884577 C12.5669992,13.3451383 12.2418923,11.9207262 12.3560519,10.0548406 C12.4594574,8.3417727 12.7961457,7.12111751 13.0939536,6.04384685 C13.5423198,4.42133763 13.8384731,3.34972689 13.0914718,1.30744057 C12.9376045,0.887663475 13.068309,0.403740667 13.4016883,0.154704368 C13.7358949,-0.0933886122 14.1768159,-0.0367894533 14.4522881,0.291485668 C15.0189502,0.965015659 19.9211979,6.96546982 18.8714253,11.415107 C18.748166,12.8319726 17.8605332,15.3459186 15.2704324,15.3459186 L15.2704324,15.3459186 Z M15.1678542,4.26946322 C15.0900932,5.09769758 14.8832822,5.84480647 14.6715078,6.61078176 C14.3885903,7.63428321 14.095746,8.6936308 14.0055764,10.1840753 C13.926161,11.4971758 14.1122909,12.4763413 14.5441122,13.0168632 C14.8642556,13.4168306 15.2348609,13.4583367 15.2381699,13.4583367 L15.2696052,14.401656 L15.2696052,13.4583367 C17.0101264,13.4583367 17.2103195,11.4056738 17.2276916,11.1717306 C17.2326551,11.1085283 17.2434092,11.0406093 17.2582996,10.9792935 C17.7430646,9.09642815 16.483172,6.38438512 15.1678542,4.26946322 L15.1678542,4.26946322 Z" id="Shape" fill="#EBC464"></path>
                    <path d="M29.1333866,38.9619177 C29.0779613,38.9619177 29.0208814,38.9553144 28.9646288,38.942108 C28.5170899,38.8355129 28.229209,38.3355536 28.3226875,37.8261612 C28.3532956,37.660137 29.1102238,33.7519651 33.2729154,31.9756948 C33.7006005,31.7945775 34.1779202,32.0407838 34.3375783,32.5284799 C34.4972364,33.0171193 34.2804985,33.5604713 33.8528134,33.7425319 C30.5339106,35.1584542 29.9473947,38.1789626 29.9424312,38.2091488 C29.8613613,38.6562822 29.5172278,38.9619177 29.1333866,38.9619177 L29.1333866,38.9619177 Z" id="Shape" fill="#65B979"></path>
                    <path d="M38.9866894,45.2793271 C38.7716059,45.2793271 38.5573497,45.1840519 38.3952099,44.995388 L32.3042127,37.9016267 C31.9848965,37.5290156 31.98986,36.9328378 32.3174486,36.5677732 C32.6433827,36.2027087 33.1662009,36.2093119 33.4871715,36.5828663 L39.5781688,43.6766276 C39.897485,44.0492387 39.8925215,44.6454165 39.5649329,45.0104811 C39.4044476,45.1897118 39.1959821,45.2793271 38.9866894,45.2793271 L38.9866894,45.2793271 Z" id="Shape" fill="#65B979"></path>
                    <g transform="translate(1.878375, 1.199603)" id="Shape" fill="#EBC464">
                        <path d="M4.79616543,11.088074 C4.55709193,11.088074 4.32050015,10.9711024 4.1575331,10.7447058 C3.70916687,10.1230584 -0.215278452,4.57162421 0.147054401,0.871925858 C0.197516282,0.354043555 0.60700204,-0.0204542134 1.06115897,0.0389749034 C1.5153159,0.0965173816 1.84207726,0.563460442 1.79161538,1.08039943 C1.55006015,3.55283935 4.33952677,8.02794618 5.43479776,9.54386032 C5.72516039,9.94571435 5.67469851,10.5400055 5.32229258,10.8720539 C5.16842521,11.0173251 4.98229532,11.088074 4.79616543,11.088074 L4.79616543,11.088074 Z"></path>
                        <path d="M8.77769059,6.45071629 C8.58742448,6.45071629 8.39550388,6.37525074 8.23915477,6.22337633 C6.93955452,4.95083858 3.10031532,1.71525333 1.00242465,1.98692929 C0.547440475,2.05767824 0.137954717,1.67657723 0.0850111039,1.15869493 C0.0320674908,0.641755946 0.357174365,0.172926246 0.810504053,0.113497129 C3.99870226,-0.318543117 8.78348129,4.26787539 9.31788089,4.79236093 C9.66366886,5.13195588 9.70337657,5.72719037 9.40556875,6.12244116 C9.24177444,6.33940461 9.01097338,6.45071629 8.77769059,6.45071629 L8.77769059,6.45071629 Z"></path>
                    </g>
                </g>
                <g id="Group" transform="translate(29.722206, 150.339537)">
                    <path d="M8.1409059,0.383176444 C8.00567491,0.193382492 7.78930532,0.0578153843 7.57293572,0.0578153843 C7.35656613,0.0578153843 7.11315034,0.166269071 7.00496554,0.383176444 L1.00070936,9.95421427 C1.00070936,9.95421427 1.00070936,9.95421427 1.00070936,9.98132769 C-0.27046199,12.1775148 -0.27046199,14.8617436 1.02775556,17.1121576 C2.38006551,19.4710253 4.89536202,20.93515 7.57293572,20.93515 C10.2505094,20.93515 12.7658059,19.4710253 14.1181159,17.1121576 C15.4163334,14.8617436 15.4433796,12.1775148 14.1451621,9.95421427 L8.1409059,0.383176444 L8.1409059,0.383176444 Z M12.9551293,16.434322 C11.8462352,18.3864884 9.76367784,19.5794789 7.57293572,19.5794789 C5.3821936,19.5794789 3.29963628,18.3864884 2.19074212,16.434322 C1.13594036,14.5906094 1.10889416,12.4486491 2.13664972,10.6591632 L7.54588953,2.00998174 L12.9551293,10.6591632 C14.0099311,12.4486491 14.0099311,14.6177228 12.9551293,16.434322 L12.9551293,16.434322 Z" id="Shape" fill="#1D579D"></path>
                    <path d="M11.8732814,13.0180309 C11.4946346,13.0180309 11.1971264,13.3162786 11.1971264,13.6958665 C11.1971264,15.3768986 9.81777024,16.7325697 8.1409059,16.7325697 C7.76225912,16.7325697 7.46475093,17.0308173 7.46475093,17.4104052 C7.46475093,17.7899931 7.76225912,18.0882408 8.1409059,18.0882408 C10.5750638,18.0882408 12.5494363,16.108961 12.5494363,13.668753 C12.5494363,13.3162786 12.2519282,13.0180309 11.8732814,13.0180309 L11.8732814,13.0180309 Z" id="Shape" fill="#000000"></path>
                </g>
                <g id="Group" transform="translate(157.963894, 122.979037)">
                    <path d="M45.2885477,17.2698159 L45.2885477,3.57705684 C45.2885477,2.84301203 44.9262393,2.1654322 44.320505,1.75323781 C43.7147707,1.34104341 42.9476959,1.25916918 42.2655371,1.53302436 L33.1823528,5.15807644 C31.9454093,5.65496832 31.1358765,6.84637951 31.1358765,8.17612993 L31.1358765,8.80289127 L31.1358765,17.2726391 L8.49160269,17.2726391 C5.3666929,17.2726391 2.83053423,19.8022705 2.83053423,22.9191377 L2.83053423,31.3888855 C1.26807934,31.3888855 0,32.650878 0,34.2121348 L0,37.0353841 C0,38.596641 1.26807934,39.8586334 2.83053423,39.8586334 L8.49160269,39.8586334 C8.49160269,33.6305455 13.5695811,28.5656363 19.8137396,28.5656363 C26.0578981,28.5656363 31.1358765,33.6305455 31.1358765,39.8586334 L48.1190819,39.8586334 L48.1190819,17.2726391 L45.2885477,17.2726391 L45.2885477,17.2698159 Z M42.4580135,17.2698159 L33.9664108,17.2698159 L33.9664108,9.33648538 C33.9664108,8.33140864 34.5806367,7.42232237 35.514713,7.04965346 L42.4580135,4.28569241 L42.4580135,17.2698159 L42.4580135,17.2698159 Z" id="Shape" fill="#3065A6"></path>
                    <path d="M70.7633558,31.3860623 C66.0731606,31.3860623 62.2717531,35.1776861 62.2717531,39.8558101 C62.2717531,44.5339342 66.0731606,48.325558 70.7633558,48.325558 C75.453551,48.325558 79.2549585,44.5339342 79.2549585,39.8558101 C79.2549585,35.1776861 75.453551,31.3860623 70.7633558,31.3860623 L70.7633558,31.3860623 Z M70.7633558,42.6790594 C69.2009009,42.6790594 67.9328216,41.4142437 67.9328216,39.8558101 C67.9328216,38.2973765 69.2009009,37.0325609 70.7633558,37.0325609 C72.3258107,37.0325609 73.59389,38.2973765 73.59389,39.8558101 C73.59389,41.4142437 72.3258107,42.6790594 70.7633558,42.6790594 L70.7633558,42.6790594 Z" id="Shape" fill="#000000"></path>
                    <path d="M84.9160269,31.4538203 L84.9160269,22.9163144 C84.9160269,21.1743696 83.5007598,19.762745 81.7543202,19.762745 L79.2549585,19.762745 L74.2449129,2.29247842 C73.8599602,0.937318762 72.6201862,0 71.2077497,0 L50.9496162,0 L50.9496162,39.8558101 L59.4412189,39.8558101 C59.4412189,33.6277222 64.5191973,28.562813 70.7633558,28.562813 C77.0075143,28.562813 82.0854927,33.6277222 82.0854927,39.8558101 L84.5848544,39.8558101 L84.9160269,39.8558101 L84.9160269,39.7908754 C86.5039566,39.615834 87.7465612,38.325609 87.7465612,36.7022407 L87.7465612,34.5396317 C87.7465612,32.9162634 86.5039566,31.6260385 84.9160269,31.4538203 L84.9160269,31.4538203 Z M67.6186323,11.2929971 C66.2288399,11.2929971 65.1022873,12.3319529 65.1022873,13.6165313 L65.1022873,16.9394957 L56.6106846,16.9394957 L56.6106846,5.64649857 L72.2663695,5.64649857 L73.879774,11.2929971 L67.6186323,11.2929971 L67.6186323,11.2929971 Z" id="Shape" fill="#D94646"></path>
                    <path d="M19.8137396,31.3860623 C15.1235444,31.3860623 11.3221369,35.1776861 11.3221369,39.8558101 C11.3221369,44.5339342 15.1235444,48.325558 19.8137396,48.325558 C24.5039348,48.325558 28.3053423,44.5339342 28.3053423,39.8558101 C28.3053423,35.1776861 24.5039348,31.3860623 19.8137396,31.3860623 L19.8137396,31.3860623 Z M19.8137396,42.6790594 C18.2484542,42.6790594 16.9832054,41.417067 16.9832054,39.8558101 C16.9832054,38.2945533 18.2484542,37.0325609 19.8137396,37.0325609 C21.379025,37.0325609 22.6442739,38.2945533 22.6442739,39.8558101 C22.6442739,41.417067 21.379025,42.6790594 19.8137396,42.6790594 L19.8137396,42.6790594 Z" id="Shape" fill="#000000"></path>
                </g>
                <g id="Group" transform="translate(290.589913, 80.694628)">
                    <path d="M95.2829093,44.2905221 C93.3501152,44.2905221 91.7394535,45.5776183 91.256255,47.3473755 L84.1693435,47.3473755 L79.0152261,31.5804476 L73.216844,56.8397096 L70.3176529,47.5082625 L61.4590135,47.5082625 L57.5934254,34.3155269 L53.8889035,49.9215678 L47.7683891,49.9215678 C47.2851906,48.1518106 45.6745288,46.8647144 43.7417348,46.8647144 C41.3257423,46.8647144 39.5540144,48.7953587 39.5540144,51.0477769 C39.5540144,53.4610822 41.4868084,55.2308394 43.7417348,55.2308394 C45.6745288,55.2308394 47.2851906,53.9437433 47.7683891,52.1739861 L55.8216976,52.1739861 L57.9155578,43.486087 L59.8483518,49.7606808 L68.8680574,49.7606808 L74.0221748,65.8493827 L79.8205569,40.4292336 L82.719748,49.4389067 L91.5783874,49.4389067 C92.0615859,51.208664 93.6722476,52.4957601 95.6050416,52.4957601 C98.0210342,52.4957601 99.7927621,50.5651159 99.7927621,48.3126976 C99.6316959,46.2211663 97.6989018,44.2905221 95.2829093,44.2905221 L95.2829093,44.2905221 Z M43.5806686,52.9784212 C42.6142716,52.9784212 41.8089408,52.1739861 41.8089408,51.208664 C41.8089408,50.2433418 42.6142716,49.4389067 43.5806686,49.4389067 C44.5470657,49.4389067 45.3523965,50.2433418 45.3523965,51.208664 C45.3523965,52.1739861 44.5470657,52.9784212 43.5806686,52.9784212 L43.5806686,52.9784212 Z M95.2829093,50.2433418 C94.3165123,50.2433418 93.5111814,49.4389067 93.5111814,48.4735846 C93.5111814,47.5082625 94.3165123,46.7038274 95.2829093,46.7038274 C96.2493063,46.7038274 97.0546372,47.5082625 97.0546372,48.4735846 C97.2157033,49.4389067 96.4103725,50.2433418 95.2829093,50.2433418 L95.2829093,50.2433418 Z" id="Shape" fill="#000000"></path>
                    <path d="M105.591144,78.0767962 L105.591144,0.0465917161 L0.0928026687,0.0465917161 L0.0928026687,78.0767962 L37.7822865,78.0767962 L37.7822865,88.2126785 L31.8228382,88.2126785 L31.8228382,90.6259838 L74.183241,90.6259838 L74.183241,88.2126785 L68.2237927,88.2126785 L68.2237927,78.0767962 L105.591144,78.0767962 L105.591144,78.0767962 Z M103.175152,2.45989701 L103.175152,68.101801 L2.50879522,68.101801 L2.50879522,2.45989701 L103.175152,2.45989701 L103.175152,2.45989701 Z M2.50879522,75.6634909 L2.50879522,70.5151063 L103.175152,70.5151063 L103.175152,75.6634909 L2.50879522,75.6634909 L2.50879522,75.6634909 Z M65.4856678,88.0517914 L40.0372129,88.0517914 L40.0372129,77.9159092 L65.4856678,77.9159092 L65.4856678,88.0517914 L65.4856678,88.0517914 Z" id="Shape" fill="#21508B"></path>
                    <path d="M46.4798597,24.6623057 C45.835595,14.8481975 37.7822865,6.96473356 27.9572501,6.16029846 L26.6687208,5.99941144 L26.6687208,25.7885149 L46.4798597,25.7885149 L46.4798597,24.6623057 L46.4798597,24.6623057 Z M29.2457795,23.5360966 L29.2457795,8.73449077 C36.8158895,9.86069991 42.936404,15.9744067 44.0638671,23.5360966 L29.2457795,23.5360966 L29.2457795,23.5360966 Z" id="Shape" fill="#D94646"></path>
                    <path d="M46.3187935,29.6498033 L46.6409259,28.2018201 L27.1519193,28.2018201 L39.0708159,41.8772168 L40.0372129,41.0727817 C43.2585363,38.0159283 45.5134627,33.9937529 46.3187935,29.6498033 L46.3187935,29.6498033 Z M32.3060367,30.6151254 L43.5806686,30.6151254 C42.7753378,33.5110918 41.3257423,36.2461711 39.0708159,38.3377024 L32.3060367,30.6151254 L32.3060367,30.6151254 Z" id="Shape" fill="#507CB3"></path>
                    <path d="M23.6084635,45.7385053 C24.5748605,45.8993923 25.7023237,45.8993923 26.6687208,45.8993923 C30.0511103,45.8993923 33.2724337,45.0949572 36.1716248,43.486087 L35.0441616,41.3945558 C31.661772,43.164313 27.796184,43.9687481 23.9305959,43.3252 C16.3604859,42.1989909 10.4010376,36.2461711 9.27357437,28.6844812 C8.62930969,24.0187576 9.75677288,19.3530341 12.4948978,15.6526326 C15.2330227,11.9522312 19.4207431,9.37803885 24.091662,8.73449077 L23.7695297,6.32118548 C18.6154122,7.12562058 13.7834271,10.0215869 10.5621037,14.2046494 C7.34078033,18.548599 6.05225097,23.6969836 6.85758182,29.1671423 C8.14611118,37.6941543 15.0719565,44.4514091 23.6084635,45.7385053 L23.6084635,45.7385053 Z" id="Shape" fill="#F5A623"></path>
                    <rect id="Rectangle-path" fill="#D94646" x="51.7950433" y="10.826022" width="46.5481232" height="2.41330529"></rect>
                    <rect id="Rectangle-path" fill="#507CB3" x="67.579528" y="18.548599" width="30.9247047" height="2.41330529"></rect>
                </g>
                <g id="Group" transform="translate(441.052189, 110.641939)">
                    <path d="M17.53536,54.8610221 C16.4789568,54.8610221 15.6205493,55.7170081 15.6205493,56.7720013 C15.6205493,57.8276323 16.4789568,58.6855319 17.53536,58.6855319 C18.5930406,58.6855319 19.4527254,57.8276323 19.4527254,56.7720013 C19.4527254,55.7163703 18.5930406,54.8610221 17.53536,54.8610221 L17.53536,54.8610221 Z" id="Shape"></path>
                    <path d="M3.58815519,52.900929 L31.4832035,52.900929 L31.4832035,5.87846673 L3.58815519,5.87846673 L3.58815519,52.900929 L3.58815519,52.900929 Z M17.5366374,13.0133844 C22.5357111,13.0133844 26.588876,17.0611393 26.588876,22.0541784 C26.588876,27.0465797 22.5357111,31.0943347 17.5366374,31.0943347 C12.536925,31.0943347 8.48376012,27.0465797 8.48376012,22.0541784 C8.48376012,17.0611393 12.536925,13.0133844 17.5366374,13.0133844 L17.5366374,13.0133844 Z M8.19698561,38.0066449 L26.9510166,38.0066449 C27.2952737,38.0066449 27.5737452,38.2853825 27.5737452,38.6285423 C27.5737452,38.97234 27.2952737,39.2504398 26.9510166,39.2504398 L8.19698561,39.2504398 C7.85336715,39.2504398 7.574257,38.97234 7.574257,38.6285423 C7.574257,38.2847447 7.85336715,38.0066449 8.19698561,38.0066449 L8.19698561,38.0066449 Z M8.19698561,41.1633325 L26.9510166,41.1633325 C27.2952737,41.1633325 27.5737452,41.442708 27.5737452,41.7852299 C27.5737452,42.1290276 27.2952737,42.4077652 26.9510166,42.4077652 L8.19698561,42.4077652 C7.85336715,42.4077652 7.574257,42.1290276 7.574257,41.7852299 C7.574257,41.442708 7.85336715,41.1633325 8.19698561,41.1633325 L8.19698561,41.1633325 Z M8.19698561,44.3206579 L26.9510166,44.3206579 C27.2952737,44.3206579 27.5737452,44.5993955 27.5737452,44.9425554 C27.5737452,45.2857152 27.2952737,45.5650906 26.9510166,45.5650906 L8.19698561,45.5650906 C7.85336715,45.5650906 7.574257,45.2857152 7.574257,44.9425554 C7.574257,44.5993955 7.85336715,44.3206579 8.19698561,44.3206579 L8.19698561,44.3206579 Z M8.19698561,47.4779834 L26.9510166,47.4779834 C27.2952737,47.4779834 27.5737452,47.7560831 27.5737452,48.0998808 C27.5737452,48.4430406 27.2952737,48.7217782 26.9510166,48.7217782 L8.19698561,48.7217782 C7.85336715,48.7217782 7.574257,48.4430406 7.574257,48.0998808 C7.574257,47.7560831 7.85336715,47.4779834 8.19698561,47.4779834 L8.19698561,47.4779834 Z" id="Shape"></path>
                    <path d="M15.3222783,3.63198184 L19.7509965,3.63198184 C20.1201627,3.63198184 20.4197112,3.33155754 20.4197112,2.96288399 C20.4197112,2.59484828 20.1201627,2.29442398 19.7509965,2.29442398 L15.3222783,2.29442398 C14.953112,2.29442398 14.6529249,2.59484828 14.6529249,2.96288399 C14.6529249,3.33219539 14.953112,3.63198184 15.3222783,3.63198184 L15.3222783,3.63198184 Z" id="Shape"></path>
                    <path d="M30.7672253,0.0492147818 L4.30604951,0.0492147818 C1.92818425,0.0492147818 0.00123838769,1.97422653 0.00123838769,4.34828012 L0.00123838769,56.345284 C0.00123838769,58.7206133 1.92818425,60.6430736 4.30604951,60.6430736 L30.7672253,60.6430736 C33.1450905,60.6430736 35.0720364,58.7186997 35.0720364,56.345284 L35.0720364,4.34828012 C35.0720364,1.97486437 33.1450905,0.0492147818 30.7672253,0.0492147818 L30.7672253,0.0492147818 Z M15.3222783,2.29506182 L19.7509965,2.29506182 C20.1201627,2.29506182 20.4197112,2.59548612 20.4197112,2.96352183 C20.4197112,3.33219539 20.1201627,3.63261969 19.7509965,3.63261969 L15.3222783,3.63261969 C14.953112,3.63261969 14.6529249,3.33219539 14.6529249,2.96352183 C14.6529249,2.59484828 14.953112,2.29506182 15.3222783,2.29506182 L15.3222783,2.29506182 Z M17.53536,58.6855319 C16.4789568,58.6855319 15.6205493,57.8276323 15.6205493,56.7720013 C15.6205493,55.7170081 16.4789568,54.8610221 17.53536,54.8610221 C18.5930406,54.8610221 19.4527254,55.7170081 19.4527254,56.7720013 C19.4527254,57.8276323 18.5930406,58.6855319 17.53536,58.6855319 L17.53536,58.6855319 Z M31.4832035,52.900929 L3.58815519,52.900929 L3.58815519,5.87846673 L31.4832035,5.87846673 L31.4832035,52.900929 L31.4832035,52.900929 Z" id="Shape" fill="#21508B"></path>
                    <path d="M17.5366374,13.7366989 C12.9373874,13.7366989 9.20804139,17.4610672 9.20804139,22.0541784 L17.5366374,22.0541784 L17.5366374,13.7366989 L17.5366374,13.7366989 Z" id="Shape"></path>
                    <path d="M17.5366374,31.0943347 C22.5357111,31.0943347 26.588876,27.0465797 26.588876,22.0541784 C26.588876,17.0611393 22.5357111,13.0133844 17.5366374,13.0133844 C12.536925,13.0133844 8.48376012,17.0611393 8.48376012,22.0541784 C8.48376012,27.0465797 12.536925,31.0943347 17.5366374,31.0943347 L17.5366374,31.0943347 Z M17.5366374,13.7366989 L17.5366374,22.0541784 L9.20804139,22.0541784 C9.20804139,17.4610672 12.9373874,13.7366989 17.5366374,13.7366989 L17.5366374,13.7366989 Z" id="Shape" fill="#D94646"></path>
                    <path d="M8.19698561,39.2498019 L26.9510166,39.2498019 C27.2952737,39.2498019 27.5737452,38.9717022 27.5737452,38.6279045 C27.5737452,38.2847447 27.2952737,38.0060071 26.9510166,38.0060071 L8.19698561,38.0060071 C7.85336715,38.0060071 7.574257,38.2847447 7.574257,38.6279045 C7.574257,38.9717022 7.85336715,39.2498019 8.19698561,39.2498019 L8.19698561,39.2498019 Z" id="Shape" fill="#D94646"></path>
                    <path d="M8.19698561,42.4071274 L26.9510166,42.4071274 C27.2952737,42.4071274 27.5737452,42.1283897 27.5737452,41.7845921 C27.5737452,41.4420701 27.2952737,41.1626947 26.9510166,41.1626947 L8.19698561,41.1626947 C7.85336715,41.1626947 7.574257,41.4420701 7.574257,41.7845921 C7.574257,42.1290276 7.85336715,42.4071274 8.19698561,42.4071274 L8.19698561,42.4071274 Z" id="Shape" fill="#F5A623"></path>
                    <path d="M8.19698561,45.5644528 L26.9510166,45.5644528 C27.2952737,45.5644528 27.5737452,45.2850773 27.5737452,44.9419175 C27.5737452,44.5987577 27.2952737,44.3200201 26.9510166,44.3200201 L8.19698561,44.3200201 C7.85336715,44.3200201 7.574257,44.5987577 7.574257,44.9419175 C7.574257,45.2850773 7.85336715,45.5644528 8.19698561,45.5644528 L8.19698561,45.5644528 Z" id="Shape" fill="#507CB3"></path>
                    <path d="M8.19698561,48.7217782 L26.9510166,48.7217782 C27.2952737,48.7217782 27.5737452,48.4430406 27.5737452,48.0998808 C27.5737452,47.7560831 27.2952737,47.4779834 26.9510166,47.4779834 L8.19698561,47.4779834 C7.85336715,47.4779834 7.574257,47.7560831 7.574257,48.0998808 C7.574257,48.4430406 7.85336715,48.7217782 8.19698561,48.7217782 L8.19698561,48.7217782 Z" id="Shape" fill="#000000"></path>
                </g>
                <g id="Group" transform="translate(315.659221, 24.259999) scale(-1, -1) translate(-315.659221, -24.259999) translate(304.159221, 0.259999)">
                    <path d="M12.8787266,32.9992372 L12.8787266,4.975715 C12.8787266,2.25738392 10.6511604,0.0332948499 7.92857955,0.0332948499 C5.20599865,0.0332948499 2.97843246,2.25738392 2.97843246,4.975715 L2.97843246,32.9992372 C1.14687804,34.4819633 0.00834421149,36.7554765 0.00834421149,39.1278382 C0.00834421149,43.4771679 3.57245011,47.0357104 7.92857955,47.0357104 C12.284709,47.0357104 15.7993134,43.4771679 15.7993134,39.1278382 C15.7993134,36.7554765 14.7102811,34.4819633 12.8787266,32.9992372 L12.8787266,32.9992372 Z M7.92857955,45.3552876 C4.51297806,45.3552876 1.74089569,42.5875323 1.74089569,39.1772624 C1.74089569,37.0025975 2.87942952,35.0256295 4.71098394,33.8888729 L4.71098394,5.0251392 C4.71098394,3.24586795 6.1465266,1.7631419 7.97808102,1.7631419 C9.76013397,1.7631419 11.2451781,3.19644374 11.2451781,5.0251392 L11.2451781,33.8888729 C13.027231,35.0256295 14.2152663,37.0025975 14.2152663,39.1772624 C14.1162634,42.5875323 11.344181,45.3552876 7.92857955,45.3552876 L7.92857955,45.3552876 Z" id="Shape" fill="#000000"></path>
                    <path d="M9.46312515,34.9267811 L9.46312515,5.0251392 C9.46312515,4.18492777 8.77010455,3.49298895 7.92857955,3.49298895 C7.08705454,3.49298895 6.39403395,4.18492777 6.39403395,5.0251392 L6.39403395,34.9267811 C4.66148247,35.5692957 3.4239457,37.2002944 3.4239457,39.1278382 C3.4239457,41.5990483 5.45350601,43.6254405 7.92857955,43.6254405 C10.4036531,43.6254405 12.4332134,41.5990483 12.4332134,39.1278382 C12.4332134,37.2002944 11.1956766,35.5692957 9.46312515,34.9267811 L9.46312515,34.9267811 Z" id="Shape" fill="#3065A6"></path>
                    <rect id="Rectangle-path" fill="#3065A6" x="14.6112781" y="5.0745634" width="8.06873975" height="1.68042285"></rect>
                    <rect id="Rectangle-path" fill="#000000" x="14.6112781" y="10.6594982" width="3.81161326" height="1.68042285"></rect>
                    <rect id="Rectangle-path" fill="#3065A6" x="14.6112781" y="16.2938571" width="8.06873975" height="1.68042285"></rect>
                    <rect id="Rectangle-path" fill="#000000" x="14.6112781" y="21.8787919" width="3.81161326" height="1.68042285"></rect>
                    <rect id="Rectangle-path" fill="#3065A6" x="14.6112781" y="27.4637267" width="8.06873975" height="1.68042285"></rect>
                </g>
                <g id="Group" transform="translate(79.045932, 137.206497)">
                    <path d="M28.5120849,25.6361914 L12.2355546,25.6361914 C11.6223957,25.6361914 11.1256739,25.139702 11.1256739,24.52683 L11.1256739,17.8712344 C11.1256739,17.2583623 11.6223957,16.7618729 12.2355546,16.7618729 L28.5120849,16.7618729 C29.1252438,16.7618729 29.6219656,17.2583623 29.6219656,17.8712344 L29.6219656,24.52683 C29.6219656,25.1391287 29.1246702,25.6361914 28.5120849,25.6361914 L28.5120849,25.6361914 Z" id="Shape" fill="#D94646"></path>
                    <path d="M28.5120849,14.6360267 L12.2355546,14.6360267 C11.6223957,14.6360267 11.1256739,14.1395372 11.1256739,13.5266652 L11.1256739,6.87164289 C11.1256739,6.25877084 11.6223957,5.76228141 12.2355546,5.76228141 L28.5120849,5.76228141 C29.1252438,5.76228141 29.6219656,6.25877084 29.6219656,6.87164289 L29.6219656,13.5272385 C29.6219656,14.1395372 29.1246702,14.6360267 28.5120849,14.6360267 L28.5120849,14.6360267 Z" id="Shape" fill="#F5A623"></path>
                    <path d="M32.9510343,27.3893839 L10.0157932,27.3893839 C9.40378139,27.3893839 8.90591241,26.8917478 8.90591241,26.2800224 L8.90591241,3.35608494 C8.90591241,1.52090866 7.41230545,0.0285737995 5.57684375,0.0285737995 L1.13789434,0.0285737995 C0.525308997,0.0280004861 0.0280135923,0.525063229 0.0280135923,1.13736197 C0.0280135923,1.74966071 0.525308997,2.24672346 1.13789434,2.24672346 L5.57684375,2.24672346 C6.18885551,2.24672346 6.68672449,2.74435951 6.68672449,3.35608494 L6.68672449,26.2805957 C6.68672449,27.8130625 7.72892259,29.1058843 9.14165452,29.4911509 C8.99022893,29.8712577 8.90648599,30.2846167 8.90648599,30.7174684 C8.90648599,32.5526447 10.4000929,34.0449795 12.2355546,34.0449795 C14.0715899,34.0449795 15.5646233,32.5520713 15.5646233,30.7174684 C15.5646233,30.3287619 15.4969407,29.9555348 15.3736206,29.6081069 L25.3734454,29.6081069 C25.2501253,29.9555348 25.1824426,30.3287619 25.1824426,30.7174684 C25.1824426,32.5526447 26.6760496,34.0449795 28.5115113,34.0449795 C30.346973,34.0449795 31.8405799,32.5520713 31.8405799,30.7174684 C31.8405799,30.3287619 31.7728973,29.9555348 31.6495772,29.6081069 L32.9504607,29.6081069 C33.5636196,29.6081069 34.0603414,29.1116174 34.0603414,28.4987454 C34.0603414,27.8858733 33.5636196,27.3893839 32.9510343,27.3893839 L32.9510343,27.3893839 Z M13.3454354,30.7168951 C13.3454354,31.3286205 12.8475664,31.8262565 12.2355546,31.8262565 C11.6235429,31.8262565 11.1256739,31.3286205 11.1256739,30.7168951 C11.1256739,30.1051696 11.6235429,29.6075336 12.2355546,29.6075336 C12.8475664,29.6081069 13.3454354,30.1051696 13.3454354,30.7168951 L13.3454354,30.7168951 Z M29.6219656,30.7168951 C29.6219656,31.3286205 29.1240966,31.8262565 28.5120849,31.8262565 C27.9000731,31.8262565 27.4022041,31.3286205 27.4022041,30.7168951 C27.4022041,30.1051696 27.9000731,29.6075336 28.5120849,29.6075336 C29.1240966,29.6075336 29.6219656,30.1051696 29.6219656,30.7168951 L29.6219656,30.7168951 Z" id="Shape" fill="#000000"></path>
                </g>
                <g id="LINES" transform="translate(0.000000, 47.269433)" stroke="#000000" stroke-opacity="0.996490036" stroke-linecap="square" stroke-dasharray="1,3">
                    <path d="M0,123.325472 L29.8931673,123.325472" id="Line"></path>
                    <path d="M111.828772,123.325472 L171.615107,123.325472" id="Line-Copy-3"></path>
                    <polyline id="Line-Copy-4" points="236.383636 123.068142 291.898768 123.068142 321.080944 123.068142"></polyline>
                    <polyline id="Line-Copy-7" transform="translate(318.686864, 17.506359) rotate(90.000000) translate(-318.686864, -17.506359) " points="302.743842 17.0063587 323.643656 17.0063587 334.629887 17.0063587"></polyline>
                    <polyline id="Line-Copy-8" transform="translate(365.619137, 16.909402) rotate(90.000000) translate(-365.619137, -16.909402) " points="349.676114 16.4094024 370.575929 16.4094024 381.562159 16.4094024"></polyline>
                    <polyline id="Line-Copy-5" points="366.717846 122.869157 414.395547 122.869157 439.457886 122.869157"></polyline>
                    <polyline id="Line-Copy-6" points="476.126838 123.36662 505.517202 123.36662 520.966589 123.36662"></polyline>
                </g>
                <g id="Group" transform="translate(525.383275, 119.858491)">
                    <ellipse id="Oval" fill="#000000" transform="translate(15.160205, 6.503914) rotate(-76.890715) translate(-15.160205, -6.503914) " cx="15.160205" cy="6.50391402" rx="5.27459726" ry="5.31954926"></ellipse>
                    <path d="M2.931466,52.394527 C3.66216339,52.394527 4.39356427,52.1209122 4.96198869,51.5703716 L4.96198869,51.5698986 C7.89439268,48.7332432 9.72535712,45.64 10.7857594,42.7248311 C10.856109,42.5318581 10.9231756,42.3395946 10.9869592,42.148277 C10.9259895,43.8940203 10.5625168,45.9625676 9.69065134,48.4061824 C9.14145581,49.9416892 9.93124682,51.6356419 11.4545492,52.1890203 C12.9773826,52.7423986 14.6570955,51.9459122 15.206291,50.4094595 C16.3715142,47.1499662 16.8599746,44.21375 16.8590366,41.6159459 C16.868182,36.9912162 15.2893035,33.5122635 13.6785332,31.2918919 C13.5354891,31.0934797 13.392914,30.9078378 13.2510424,30.7281081 C13.2538564,30.4653716 13.2461179,30.1775676 13.227358,29.8609122 C13.0186543,28.2927703 13.0615676,26.6234122 13.2280615,24.9736824 C12.204241,24.1272973 11.3040012,23.1035473 10.5458674,21.9078716 C9.00544667,19.4649662 8.50197834,17.1322635 8.35682376,16.2426014 L8.35166479,16.2104392 C8.26021037,15.5641216 8.41896587,14.9414527 8.79510149,14.4363176 C9.17170612,13.9316554 9.72066715,13.6043581 10.3409157,13.5161486 C10.4508955,13.5005405 10.5620478,13.492027 10.6724966,13.492027 C11.8285744,13.492027 12.8249586,14.3630068 12.9909835,15.5182432 C12.996846,15.5537162 13.0031774,15.5910811 13.0127919,15.6421622 C13.0437457,15.8027365 13.0819689,15.9725338 13.1274617,16.1498986 C13.232048,16.5613851 13.4226953,17.202973 13.7387993,17.9263851 C13.8729324,18.2340541 14.0366124,18.5708108 14.2335912,18.9191554 C14.3161347,18.5095608 14.3958641,18.1132095 14.4687932,17.7374324 C15.1420384,15.3839189 14.261731,12.5668919 12.2598171,12.0636486 C10.2583723,11.5604054 7.35598408,12.6567568 6.17575303,16.1193919 C4.5795216,20.8905068 4.23691926,23.9958108 4.84333243,29.2493581 C5.07736196,30.4641892 5.50063179,31.3297297 6.0376334,31.94625 C6.15652415,32.5890203 6.29722326,33.6184459 6.29581627,34.8834122 C6.29628526,36.522027 6.06413173,38.5451689 5.28372065,40.6832432 C4.4997921,42.8234459 3.18261391,45.0908784 0.900943314,47.3065203 C-0.266624817,48.4373986 -0.303910082,50.3087162 0.81769634,51.4864189 C1.39292121,52.0904054 2.16160736,52.3942905 2.931466,52.394527 L2.931466,52.394527 Z" id="Shape" fill="#21508B"></path>
                    <path d="M23.5218431,27.1112838 L24.3777627,27.3522635 L29.9944712,43.8739189 C28.5007156,45.1008108 27.8373193,47.1743243 28.4922737,49.122027 C29.3343579,51.6268919 32.0303874,52.9691892 34.5141957,52.1197297 C36.8097017,51.3353041 38.116093,48.9531757 37.6370125,46.619527 L42.7272719,44.8789865 C43.3404855,44.6694595 43.6690179,43.9978378 43.4612522,43.3796622 C43.2530175,42.761723 42.5875107,42.4299324 41.9745316,42.6399324 L36.5998255,44.4774324 C36.370486,44.2066554 36.1151171,43.9633108 35.8360638,43.7530743 L40.9936243,41.9898311 C41.4720013,41.8264189 41.7280737,41.3028378 41.5660352,40.8204054 L39.3643286,34.2709122 C39.2022901,33.7887162 38.6828759,33.5302365 38.2047334,33.6938851 L31.7102969,35.9144932 C31.2321544,36.0779054 30.975613,36.6014865 31.137886,37.0839189 L33.0600704,42.8009797 C32.7538153,42.79625 32.4452152,42.8222635 32.1359117,42.8797297 L26.3967949,25.9979054 C26.2720417,25.6313514 25.9728216,25.3463851 25.6027829,25.2425676 L24.1859429,24.8436149 C24.2234626,25.0022973 24.2464435,25.1671284 24.250899,25.3371622 C24.2691898,26.0319595 23.9854466,26.6650338 23.5218431,27.1112838 L23.5218431,27.1112838 Z M32.3870596,45.7927703 C33.3682014,45.4574324 34.4335282,45.9876351 34.7660471,46.9770946 C34.8319412,47.1726689 34.862895,47.3715541 34.8645365,47.5676014 C34.8715714,48.3621959 34.37889,49.1071284 33.5916785,49.37625 C32.6105367,49.7118243 31.5452099,49.1813851 31.212691,48.1919257 C31.1074012,47.8783446 31.0886413,47.55625 31.1428105,47.2518919 C31.2598252,46.5958784 31.7170973,46.0219257 32.3870596,45.7927703 L32.3870596,45.7927703 Z" id="Shape" fill="#000000"></path>
                    <path d="M28.1787492,28.1437838 L30.3806903,34.693277 C30.5427287,35.1757095 31.0619085,35.4339527 31.5402855,35.2703041 L38.034722,33.0499324 C38.5128644,32.8865203 38.7691713,32.3629392 38.6066639,31.8805068 L36.4049573,25.3310135 C36.2429188,24.8488176 35.7237391,24.5903378 35.2453621,24.7539865 L28.7509256,26.9745946 C28.2727831,27.1380068 28.0164762,27.6615878 28.1787492,28.1437838 L28.1787492,28.1437838 Z" id="Shape" fill="#D94646"></path>
                    <path d="M12.673238,16.2681419 C12.6136754,16.0359122 12.5754521,15.8526351 12.5527058,15.7341554 C12.5412154,15.6750338 12.5337114,15.6322297 12.5299594,15.6078716 C12.5283179,15.5967568 12.5269109,15.5891892 12.5262074,15.5863514 C12.3780044,14.5543243 11.4296924,13.8377703 10.4063408,13.9843919 C9.3801753,14.13125 8.66659631,15.0890203 8.81221989,16.1236486 C8.84082871,16.2747635 9.19609396,18.8855743 10.940763,21.6534122 C11.5366237,22.592973 12.3095308,23.5502703 13.2897346,24.4068243 C13.7486482,24.8076689 14.2490681,25.1888851 14.8055331,25.532027 C16.5405876,26.6070946 18.7624611,27.3023649 21.4226123,27.3023649 L21.4477036,27.3023649 C21.6212326,27.3018919 21.7910095,27.2988176 21.9589104,27.2940878 C22.3366875,27.2834459 22.6846833,27.16 22.97382,26.9575676 C23.4768193,26.6056757 23.7997238,26.01375 23.7816674,25.3504054 C23.7751015,25.1167568 23.7249188,24.8951689 23.6423753,24.6908446 C23.3558181,23.9813851 22.657716,23.4894932 21.8538551,23.5124324 C21.710811,23.5162162 21.5752708,23.5185811 21.4477036,23.5185811 C19.4024076,23.5136149 17.9267084,23.0162838 16.7621887,22.3035135 C15.6007175,21.5909797 14.734011,20.6109797 14.0959405,19.6037838 C13.7803055,19.1052703 13.5195432,18.6001351 13.3089635,18.1174662 C12.9928595,17.3928716 12.7911908,16.7328378 12.673238,16.2681419 L12.673238,16.2681419 Z" id="Shape" fill="#21508B"></path>
                </g>
                <g id="Group" transform="translate(346.951220, 16.839623)">
                    <path d="M3.82857917,20.4006236 L16.4289663,20.4006236 C16.7197445,20.4006236 16.9135966,20.2058682 16.9135966,19.9137352 C16.9135966,19.6216022 16.7197445,19.4268468 16.4289663,19.4268468 L3.82857917,19.4268468 C3.53780101,19.4268468 3.3439489,19.6216022 3.3439489,19.9137352 C3.3439489,20.2058682 3.58626403,20.4006236 3.82857917,20.4006236 L3.82857917,20.4006236 Z" id="Shape" fill="#7CC48D"></path>
                    <path d="M3.82857917,23.9549089 L9.64414247,23.9549089 C9.93492063,23.9549089 10.1287727,23.7601535 10.1287727,23.4680205 C10.1287727,23.1758874 9.93492063,22.9811321 9.64414247,22.9811321 L3.82857917,22.9811321 C3.53780101,22.9811321 3.3439489,23.1758874 3.3439489,23.4680205 C3.3439489,23.7601535 3.58626403,23.9549089 3.82857917,23.9549089 L3.82857917,23.9549089 Z" id="Shape" fill="#21508B"></path>
                    <path d="M40.7089431,0.340821874 L6.93021293,0.340821874 C5.37939605,0.340821874 4.07089431,1.60673169 4.07089431,3.21346338 L4.07089431,4.57675088 L2.81085559,4.57675088 C1.26003871,4.57675088 0,5.8426607 0,7.40070355 L0,25.8537736 C0,27.4118164 1.26003871,28.6777263 2.81085559,28.6777263 L36.6865118,28.6777263 C38.2373287,28.6777263 39.4973674,27.4118164 39.4973674,25.8537736 L39.4973674,24.4417972 L40.7089431,24.4417972 C42.25976,24.4417972 43.5682617,23.1758874 43.5682617,21.5691557 L43.5682617,3.21346338 C43.5682617,1.65542053 42.25976,0.340821874 40.7089431,0.340821874 L40.7089431,0.340821874 Z M38.5281069,25.8537736 C38.5281069,26.8762392 37.7042354,27.7039495 36.6865118,27.7039495 L2.81085559,27.7039495 C1.79313202,27.7039495 0.96926055,26.8762392 0.96926055,25.8537736 L0.96926055,14.9474736 L38.4796438,14.9474736 L38.4796438,25.8537736 L38.5281069,25.8537736 Z M38.5281069,10.4194116 L1.01772358,10.4194116 L1.01772358,7.40070355 C1.01772358,6.37823793 1.84159504,5.55052766 2.85931862,5.55052766 L36.7349748,5.55052766 C37.7526984,5.55052766 38.5765699,6.37823793 38.5765699,7.40070355 L38.5765699,10.4194116 L38.5281069,10.4194116 Z M42.5990012,21.5691557 C42.5990012,22.5916214 41.7751297,23.4680205 40.7089431,23.4680205 L39.4973674,23.4680205 L39.4973674,7.40070355 C39.4973674,5.8426607 38.2373287,4.57675088 36.6865118,4.57675088 L5.04015486,4.57675088 L5.04015486,3.21346338 C5.04015486,2.19099776 5.86402633,1.31459866 6.93021293,1.31459866 L40.7089431,1.31459866 C41.7266667,1.31459866 42.5990012,2.14230892 42.5990012,3.21346338 L42.5990012,21.5691557 L42.5990012,21.5691557 Z" id="Shape" fill="#21508B"></path>
                    <path d="M30.4832443,24.3444196 L34.1664344,24.3444196 L34.2148974,24.3444196 L34.3118235,24.3444196 C34.3602865,24.3444196 34.3602865,24.3444196 34.4087495,24.2957307 C34.4572125,24.2957307 34.5056756,24.2470419 34.5056756,24.1983531 C34.6026016,24.1009754 34.6510647,24.0035977 34.6510647,23.8575312 L34.6510647,21.0822673 L34.6510647,21.0335785 L34.6510647,20.9362008 C34.6510647,20.887512 34.6510647,20.887512 34.6026016,20.8388232 C34.6026016,20.7901343 34.5541386,20.7414455 34.5056756,20.7414455 C34.4572125,20.6927566 34.4572125,20.6927566 34.4087495,20.6440678 C34.3602865,20.6440678 34.3602865,20.595379 34.3118235,20.595379 L34.2148974,20.595379 L34.1664344,20.595379 L33.9725823,20.595379 L33.9725823,19.7189799 C33.9725823,19.0860249 33.487952,18.5991366 32.8579326,18.5991366 L31.8886721,18.5991366 C31.2586527,18.5991366 30.7740225,19.0860249 30.7740225,19.7189799 L30.7740225,20.595379 L30.5317073,20.595379 C30.3863182,20.595379 30.2893922,20.6440678 30.1924661,20.7414455 C30.1440031,20.7901343 30.1440031,20.7901343 30.0955401,20.8388232 C30.0955401,20.887512 30.047077,20.887512 30.047077,20.9362008 L30.047077,21.0335785 L30.047077,21.0822673 L30.047077,23.8575312 C29.998614,24.1496642 30.1924661,24.3444196 30.4832443,24.3444196 L30.4832443,24.3444196 Z M31.4040418,19.7189799 C31.4040418,19.4755357 31.5978939,19.2320915 31.8886721,19.2320915 L32.8579326,19.2320915 C33.1002478,19.2320915 33.3425629,19.4268468 33.3425629,19.7189799 L33.3425629,20.595379 L31.4040418,20.595379 L31.4040418,19.7189799 L31.4040418,19.7189799 Z" id="Shape" fill="#7CC48D"></path>
                </g>
            </g>
        </g>
    </g>
</svg>