<?xml version="1.0" encoding="UTF-8"?>
<svg width="231px" height="115px" viewBox="0 0 231 115" version="1.1" xmlns="http://www.w3.org/2000/svg" xmlns:xlink="http://www.w3.org/1999/xlink">
    <!-- Generator: Sketch 40.2 (33826) - http://www.bohemiancoding.com/sketch -->
    <title>Group 2</title>
    <desc>Created with Sketch.</desc>
    <defs>
        <rect id="path-1" x="5.65033738" y="3.7260076" width="140.961048" height="11.4885234" rx="5.74426171"></rect>
        <mask id="mask-2" maskContentUnits="userSpaceOnUse" maskUnits="objectBoundingBox" x="0" y="0" width="140.961048" height="11.4885234" fill="white">
            <use xlink:href="#path-1"></use>
        </mask>
        <path d="M3.27078991,9.47026931 C3.1153161,6.29780116 5.56562166,3.7260076 8.73903043,3.7260076 L134.616525,3.7260076 C137.792025,3.7260076 140.366276,6.3042565 140.366276,9.47026931 L140.366276,9.47026931 C140.366276,12.6427374 137.785504,15.214531 134.618409,15.214531 L9.30016729,15.214531 C6.12570792,15.214531 3.42594736,12.6362821 3.27078991,9.47026931 L3.27078991,9.47026931 Z" id="path-3"></path>
        <mask id="mask-4" maskContentUnits="userSpaceOnUse" maskUnits="objectBoundingBox" x="0" y="0" width="137.102494" height="11.4885234" fill="white">
            <use xlink:href="#path-3"></use>
        </mask>
        <rect id="path-5" x="1.78339074" y="7.34512107" width="27.3453247" height="17.8824023"></rect>
        <mask id="mask-6" maskContentUnits="userSpaceOnUse" maskUnits="objectBoundingBox" x="0" y="0" width="27.3453247" height="17.8824023" fill="white">
            <use xlink:href="#path-5"></use>
        </mask>
        <polygon id="path-7" points="27.3453247 0.0729732436 30.8835715 3.11651984 27.3453247 9.20563698 3.56678148 9.20563698 0.0212268103 3.11651984 3.72525395 0.345253154"></polygon>
        <mask id="mask-8" maskContentUnits="userSpaceOnUse" maskUnits="objectBoundingBox" x="0" y="0" width="30.8623447" height="9.13266374" fill="white">
            <use xlink:href="#path-7"></use>
        </mask>
        <rect id="path-9" x="0" y="6.15296092" width="30.9121061" height="5.36472069"></rect>
        <mask id="mask-10" maskContentUnits="userSpaceOnUse" maskUnits="objectBoundingBox" x="0" y="0" width="30.9121061" height="5.36472069" fill="white">
            <use xlink:href="#path-9"></use>
        </mask>
        <rect id="path-11" x="10.7003444" y="13.3059218" width="9.51141727" height="3.57648046" rx="1.78824023"></rect>
        <mask id="mask-12" maskContentUnits="userSpaceOnUse" maskUnits="objectBoundingBox" x="0" y="0" width="9.51141727" height="3.57648046" fill="white">
            <use xlink:href="#path-11"></use>
        </mask>
        <rect id="path-13" x="1.78339074" y="7.34512107" width="27.3453247" height="17.8824023"></rect>
        <mask id="mask-14" maskContentUnits="userSpaceOnUse" maskUnits="objectBoundingBox" x="0" y="0" width="27.3453247" height="17.8824023" fill="white">
            <use xlink:href="#path-13"></use>
        </mask>
        <polygon id="path-15" points="27.3453247 0.0729732436 30.8835715 3.11651984 27.3453247 9.20563698 3.56678148 9.20563698 0.0212268103 3.11651984 3.72525395 0.345253154"></polygon>
        <mask id="mask-16" maskContentUnits="userSpaceOnUse" maskUnits="objectBoundingBox" x="0" y="0" width="30.8623447" height="9.13266374" fill="white">
            <use xlink:href="#path-15"></use>
        </mask>
        <rect id="path-17" x="0" y="6.15296092" width="30.9121061" height="5.36472069"></rect>
        <mask id="mask-18" maskContentUnits="userSpaceOnUse" maskUnits="objectBoundingBox" x="0" y="0" width="30.9121061" height="5.36472069" fill="white">
            <use xlink:href="#path-17"></use>
        </mask>
        <rect id="path-19" x="10.7003444" y="13.3059218" width="9.51141727" height="3.57648046" rx="1.78824023"></rect>
        <mask id="mask-20" maskContentUnits="userSpaceOnUse" maskUnits="objectBoundingBox" x="0" y="0" width="9.51141727" height="3.57648046" fill="white">
            <use xlink:href="#path-19"></use>
        </mask>
        <rect id="path-21" x="1.78339074" y="7.34512107" width="27.3453247" height="17.8824023"></rect>
        <mask id="mask-22" maskContentUnits="userSpaceOnUse" maskUnits="objectBoundingBox" x="0" y="0" width="27.3453247" height="17.8824023" fill="white">
            <use xlink:href="#path-21"></use>
        </mask>
        <polygon id="path-23" points="27.3453247 0.0729732436 30.8835715 3.11651984 27.3453247 9.20563698 3.56678148 9.20563698 0.0212268103 3.11651984 3.72525395 0.345253154"></polygon>
        <mask id="mask-24" maskContentUnits="userSpaceOnUse" maskUnits="objectBoundingBox" x="0" y="0" width="30.8623447" height="9.13266374" fill="white">
            <use xlink:href="#path-23"></use>
        </mask>
        <rect id="path-25" x="0" y="6.15296092" width="30.9121061" height="5.36472069"></rect>
        <mask id="mask-26" maskContentUnits="userSpaceOnUse" maskUnits="objectBoundingBox" x="0" y="0" width="30.9121061" height="5.36472069" fill="white">
            <use xlink:href="#path-25"></use>
        </mask>
        <rect id="path-27" x="10.7003444" y="13.3059218" width="9.51141727" height="3.57648046" rx="1.78824023"></rect>
        <mask id="mask-28" maskContentUnits="userSpaceOnUse" maskUnits="objectBoundingBox" x="0" y="0" width="9.51141727" height="3.57648046" fill="white">
            <use xlink:href="#path-27"></use>
        </mask>
        <rect id="path-29" x="7.43465445" y="22.1546704" width="29.7386178" height="15.6018806"></rect>
        <mask id="mask-30" maskContentUnits="userSpaceOnUse" maskUnits="objectBoundingBox" x="0" y="0" width="29.7386178" height="15.6018806" fill="white">
            <use xlink:href="#path-29"></use>
        </mask>
        <rect id="path-31" x="10.9277176" y="26.0702053" width="7.80551257" height="1.7528263"></rect>
        <mask id="mask-32" maskContentUnits="userSpaceOnUse" maskUnits="objectBoundingBox" x="0" y="0" width="7.80551257" height="1.7528263" fill="white">
            <use xlink:href="#path-31"></use>
        </mask>
        <rect id="path-33" x="10.9277176" y="29.3289809" width="7.80551257" height="1.7528263"></rect>
        <mask id="mask-34" maskContentUnits="userSpaceOnUse" maskUnits="objectBoundingBox" x="0" y="0" width="7.80551257" height="1.7528263" fill="white">
            <use xlink:href="#path-33"></use>
        </mask>
        <rect id="path-35" x="10.9277176" y="32.5877566" width="15.6110251" height="1.7528263"></rect>
        <mask id="mask-36" maskContentUnits="userSpaceOnUse" maskUnits="objectBoundingBox" x="0" y="0" width="15.6110251" height="1.7528263" fill="white">
            <use xlink:href="#path-35"></use>
        </mask>
    </defs>
    <g id="Page-1" stroke="none" stroke-width="1" fill="none" fill-rule="evenodd">
        <g id="Artboard-2" transform="translate(-110.000000, -749.000000)">
            <g id="Group-2" transform="translate(110.000000, 749.000000)">
                <g id="conveyor-belt" transform="translate(77.701126, 61.487215)">
                    <g id="Group-3" transform="translate(0.000000, 0.822591)">
                        <rect id="Rectangle-2" fill="#D8C8C8" x="0" y="0" width="153.153882" height="19.2510392" rx="9.62551962"></rect>
                        <use id="Rectangle-3" stroke="#7B6C65" mask="url(#mask-2)" stroke-width="8" fill="#FFFFFF" xlink:href="#path-1"></use>
                        <use id="Rectangle-3-Copy" stroke="#857371" mask="url(#mask-4)" stroke-width="4" fill="#FFFFFF" xlink:href="#path-3"></use>
                        <ellipse id="Oval-3" fill="#99837D" cx="12.7876057" cy="9.93602026" rx="7.43465445" ry="7.76251582"></ellipse>
                        <ellipse id="Oval-3-Copy" fill="#99837D" cx="54.4216706" cy="9.62551962" rx="7.43465445" ry="7.76251582"></ellipse>
                        <ellipse id="Oval-3-Copy-2" fill="#99837D" cx="104.977321" cy="9.62551962" rx="7.43465445" ry="7.76251582"></ellipse>
                        <ellipse id="Oval-3-Copy-3" fill="#99837D" cx="142.150593" cy="9.31501899" rx="7.43465445" ry="7.76251582"></ellipse>
                        <ellipse id="Oval-4" fill="#B6A7A0" cx="12.4902195" cy="9.93602026" rx="4.46079267" ry="4.65750949"></ellipse>
                        <ellipse id="Oval-4-Copy" fill="#B6A7A0" cx="54.4216706" cy="9.62551962" rx="4.46079267" ry="4.65750949"></ellipse>
                        <ellipse id="Oval-4-Copy-2" fill="#B6A7A0" cx="104.977321" cy="9.62551962" rx="4.46079267" ry="4.65750949"></ellipse>
                        <path d="M142.150593,13.6620279 C144.614221,13.6620279 146.611386,11.5767898 146.611386,9.00451836 C146.611386,6.43224689 144.614221,4.34700886 142.150593,4.34700886 C140.206493,4.34700886 138.552865,5.64551062 137.941888,7.45716507 C137.778615,7.94129931 137.6898,8.46207963 137.6898,9.00451836 C137.6898,11.5767898 139.686965,13.6620279 142.150593,13.6620279 Z" id="Oval-4-Copy-3" fill="#B6A7A0"></path>
                    </g>
                    <rect id="Rectangle-19" fill="#A29A9A" x="10.4852621" y="19.9373087" width="133.82378" height="12.1063165"></rect>
                    <rect id="Rectangle-21-Copy-2" fill="#A29A9A" x="139.576806" y="30.7287232" width="4.6601165" height="22.3422144"></rect>
                    <rect id="Rectangle-21-Copy" fill="#A29A9A" x="97.5560118" y="30.7287232" width="5.3595455" height="22.3422144"></rect>
                    <rect id="Rectangle-21" fill="#A29A9A" x="53.0717842" y="30.7287232" width="5.3595455" height="22.3422144"></rect>
                    <rect id="Rectangle-21-Copy-3" fill="#A29A9A" x="8.58755659" y="30.7287232" width="5.3595455" height="22.3422144"></rect>
                </g>
                <g id="Group-4-Copy" transform="translate(187.850491, 37.027045)" stroke="#979797" stroke-width="0.8">
                    <use id="Rectangle-20" mask="url(#mask-6)" fill="#EFC65A" xlink:href="#path-5"></use>
                    <use id="Rectangle-4-Copy" mask="url(#mask-8)" fill="#E4D2D2" transform="translate(15.452399, 4.639305) scale(1, -1) translate(-15.452399, -4.639305) " xlink:href="#path-7"></use>
                    <use id="Rectangle-4" mask="url(#mask-10)" fill="#E4D2D2" xlink:href="#path-9"></use>
                    <use id="Rectangle-5" mask="url(#mask-12)" fill="#FFFFFF" xlink:href="#path-11"></use>
                </g>
                <g id="Group-4-Copy-2" transform="translate(135.686312, 37.027045)" stroke="#979797" stroke-width="0.8">
                    <use id="Rectangle-20" mask="url(#mask-14)" fill="#EFC65A" xlink:href="#path-13"></use>
                    <use id="Rectangle-4-Copy" mask="url(#mask-16)" fill="#E4D2D2" transform="translate(15.452399, 4.639305) scale(1, -1) translate(-15.452399, -4.639305) " xlink:href="#path-15"></use>
                    <use id="Rectangle-4" mask="url(#mask-18)" fill="#E4D2D2" xlink:href="#path-17"></use>
                    <use id="Rectangle-5" mask="url(#mask-20)" fill="#FFFFFF" xlink:href="#path-19"></use>
                </g>
                <g id="Group-4-Copy-3" transform="translate(76.566909, 37.027045)" stroke="#979797" stroke-width="0.8">
                    <use id="Rectangle-20" mask="url(#mask-22)" fill="#EFC65A" xlink:href="#path-21"></use>
                    <use id="Rectangle-4-Copy" mask="url(#mask-24)" fill="#E4D2D2" transform="translate(15.452399, 4.639305) scale(1, -1) translate(-15.452399, -4.639305) " xlink:href="#path-23"></use>
                    <use id="Rectangle-4" mask="url(#mask-26)" fill="#E4D2D2" xlink:href="#path-25"></use>
                    <use id="Rectangle-5" mask="url(#mask-28)" fill="#FFFFFF" xlink:href="#path-27"></use>
                </g>
                <g id="box">
                    <rect id="Rectangle" fill="#857371" x="13.9771504" y="0" width="59.4772356" height="12.4815044" rx="1"></rect>
                    <rect id="Rectangle-7" fill="#EFC65A" x="0" y="10.2972412" width="89.2158534" height="93.6112833" rx="2"></rect>
                    <ellipse id="Oval-2" stroke="#F0896A" fill="#F7F7F7" cx="49.3661056" cy="24.3389337" rx="4.46079267" ry="4.68056417"></ellipse>
                    <ellipse id="Oval-2-Copy" stroke="#F0896A" fill="#F7F7F7" cx="62.7484836" cy="24.3389337" rx="4.46079267" ry="4.68056417"></ellipse>
                    <path d="M10.2598231,33.2948521 L17.0997052,33.2948521" id="Line" stroke="#979797" stroke-linecap="square"></path>
                    <path d="M44.9053129,34.7045446 C44.9053129,34.1497842 45.3466716,33.700062 45.8962612,33.700062 L49.6878669,33.700062 L79.5984314,33.700062 C80.1469732,33.700062 80.5916543,34.1471358 80.5916543,34.7045446 L80.5916543,35.8159555 C80.5916543,36.3707159 80.1404471,36.8204381 79.5999512,36.8204381 L45.8970159,36.8204381 C45.3493135,36.8204381 44.9053129,36.3733643 44.9053129,35.8159555 L44.9053129,34.7045446 Z" id="Rectangle-10" fill="#F7F7F7"></path>
                    <rect id="Rectangle-10-Copy" fill="#F7F7F7" x="44.9053129" y="39.9408142" width="35.6863414" height="3.12037611" rx="1"></rect>
                    <rect id="Rectangle-10-Copy-2" fill="#F7F7F7" x="44.9053129" y="46.1815664" width="35.6863414" height="3.12037611" rx="1"></rect>
                    <rect id="Rectangle-9" fill="#857371" x="0" y="99.4707982" width="89.2158534" height="15.4791844"></rect>
                    <rect id="Rectangle-11" fill="#EDB053" x="0" y="70.8325377" width="89.2158534" height="4.68056417"></rect>
                    <use id="Rectangle-16" stroke="#EDB053" mask="url(#mask-30)" stroke-width="2" fill="#857371" xlink:href="#path-29"></use>
                    <ellipse id="Oval" fill="#979797" cx="31.9690142" cy="27.303291" rx="1.04085162" ry="1.09213164"></ellipse>
                    <ellipse id="Oval-Copy" fill="#979797" cx="31.9690142" cy="30.1116295" rx="1.04085162" ry="1.09213164"></ellipse>
                    <rect id="Rectangle-18" fill="#EDB053" x="9.5163577" y="39.0047014" width="2.37908943" height="1.3427073" rx="0.671353648"></rect>
                    <rect id="Rectangle-18-Copy" fill="#EDB053" x="13.382378" y="39.0047014" width="2.37908943" height="1.3427073" rx="0.671353648"></rect>
                    <rect id="Rectangle-18-Copy-2" fill="#EDB053" x="17.2483983" y="39.0047014" width="2.37908943" height="1.3427073" rx="0.671353648"></rect>
                    <rect id="Rectangle-18-Copy-6" fill="#EDB053" x="32.7124796" y="39.0047014" width="2.37908943" height="1.3427073" rx="0.671353648"></rect>
                    <rect id="Rectangle-18-Copy-7" fill="#EDB053" x="28.8464593" y="39.0047014" width="2.37908943" height="1.3427073" rx="0.671353648"></rect>
                    <rect id="Rectangle-18-Copy-8" fill="#EDB053" x="24.980439" y="39.0047014" width="2.37908943" height="1.3427073" rx="0.671353648"></rect>
                    <rect id="Rectangle-18-Copy-9" fill="#EDB053" x="24.980439" y="41.1889647" width="2.37908943" height="1.3427073" rx="0.671353648"></rect>
                    <rect id="Rectangle-18-Copy-10" fill="#EDB053" x="28.8464593" y="41.1889647" width="2.37908943" height="1.3427073" rx="0.671353648"></rect>
                    <rect id="Rectangle-18-Copy-11" fill="#EDB053" x="32.7124796" y="41.1889647" width="2.37908943" height="1.3427073" rx="0.671353648"></rect>
                    <rect id="Rectangle-18-Copy-17" fill="#EDB053" x="32.7124796" y="45.5574912" width="2.37908943" height="1.3427073" rx="0.671353648"></rect>
                    <rect id="Rectangle-18-Copy-16" fill="#EDB053" x="28.8464593" y="45.5574912" width="2.37908943" height="1.3427073" rx="0.671353648"></rect>
                    <rect id="Rectangle-18-Copy-15" fill="#EDB053" x="24.980439" y="45.5574912" width="2.37908943" height="1.3427073" rx="0.671353648"></rect>
                    <rect id="Rectangle-18-Copy-14" fill="#EDB053" x="24.980439" y="47.7417545" width="2.37908943" height="1.3427073" rx="0.671353648"></rect>
                    <rect id="Rectangle-18-Copy-13" fill="#EDB053" x="28.8464593" y="47.7417545" width="2.37908943" height="1.3427073" rx="0.671353648"></rect>
                    <rect id="Rectangle-18-Copy-12" fill="#EDB053" x="32.7124796" y="47.7417545" width="2.37908943" height="1.3427073" rx="0.671353648"></rect>
                    <rect id="Rectangle-18-Copy-23" fill="#EDB053" x="17.2483983" y="45.5574912" width="2.37908943" height="1.3427073" rx="0.671353648"></rect>
                    <rect id="Rectangle-18-Copy-22" fill="#EDB053" x="13.382378" y="45.5574912" width="2.37908943" height="1.3427073" rx="0.671353648"></rect>
                    <rect id="Rectangle-18-Copy-21" fill="#EDB053" x="9.5163577" y="45.5574912" width="2.37908943" height="1.3427073" rx="0.671353648"></rect>
                    <rect id="Rectangle-18-Copy-20" fill="#EDB053" x="9.5163577" y="47.7417545" width="2.37908943" height="1.3427073" rx="0.671353648"></rect>
                    <rect id="Rectangle-18-Copy-19" fill="#EDB053" x="13.382378" y="47.7417545" width="2.37908943" height="1.3427073" rx="0.671353648"></rect>
                    <rect id="Rectangle-18-Copy-18" fill="#EDB053" x="17.2483983" y="47.7417545" width="2.37908943" height="1.3427073" rx="0.671353648"></rect>
                    <rect id="Rectangle-18-Copy-3" fill="#EDB053" x="17.2483983" y="41.1889647" width="2.37908943" height="1.3427073" rx="0.671353648"></rect>
                    <rect id="Rectangle-18-Copy-4" fill="#EDB053" x="13.382378" y="41.1889647" width="2.37908943" height="1.3427073" rx="0.671353648"></rect>
                    <rect id="Rectangle-18-Copy-5" fill="#EDB053" x="9.5163577" y="41.1889647" width="2.37908943" height="1.3427073" rx="0.671353648"></rect>
                    <ellipse id="Oval-2-Copy-2" stroke="#F0896A" fill="#F7F7F7" cx="76.1308616" cy="24.3389337" rx="4.46079267" ry="4.68056417"></ellipse>
                    <use id="Rectangle-22" stroke="#979797" mask="url(#mask-32)" stroke-width="2" fill="#D8D8D8" xlink:href="#path-31"></use>
                    <use id="Rectangle-22-Copy" stroke="#979797" mask="url(#mask-34)" stroke-width="2" fill="#D8D8D8" xlink:href="#path-33"></use>
                    <use id="Rectangle-22-Copy-2" stroke="#979797" mask="url(#mask-36)" stroke-width="2" fill="#D8D8D8" xlink:href="#path-35"></use>
                    <polyline id="Line" stroke="#857371" stroke-width="0.7" stroke-linecap="square" points="47.9587232 22.2605109 49.9333465 24.231481 47.3622441 27.2350017"></polyline>
                    <polyline id="Line-Copy-2" stroke="#857371" stroke-width="0.7" stroke-linecap="square" transform="translate(76.450325, 23.453838) scale(-1, -1) translate(-76.450325, -23.453838) " points="75.7636507 21.2007329 77.1370003 22.4675921 77.0417419 25.706944"></polyline>
                    <polyline id="Line-Copy" stroke="#857371" stroke-width="0.7" stroke-linecap="square" transform="translate(63.557169, 25.391587) scale(-1, -1) translate(-63.557169, -25.391587) " points="64.29837 23.2744146 64.6956626 26.9790593 62.4186759 27.5087589"></polyline>
                </g>
            </g>
        </g>
    </g>
</svg>