<?xml version="1.0" encoding="UTF-8" standalone="no"?>
<svg xmlns="http://www.w3.org/2000/svg" height="115px" width="231px" version="1.1" xmlns:xlink="http://www.w3.org/1999/xlink" viewBox="0 0 231 115"><!-- Generator: Sketch 40.2 (33826) - http://www.bohemiancoding.com/sketch -->
 <title>Group 2</title>
 <desc>Created with Sketch.</desc>
 <defs>
  <rect id="path-1" rx="5.7443" height="11.489" width="140.96" y="3.726" x="5.6503"/>
  <mask id="mask-2" maskContentUnits="userSpaceOnUse" height="11.4885234" width="140.961048" y="0" x="0" maskUnits="objectBoundingBox" fill="white">
   <use xlink:href="#path-1"/>
  </mask>
  <path id="path-3" d="m3.2708 9.4703c-0.1555-3.1725 2.2948-5.7443 5.4682-5.7443h125.88c3.17 0 5.75 2.5783 5.75 5.7443 0 3.1727-2.58 5.7447-5.75 5.7447h-125.32c-3.1743 0-5.8741-2.579-6.0292-5.7447z"/>
  <mask id="mask-4" maskContentUnits="userSpaceOnUse" height="11.4885234" width="137.102494" y="0" x="0" maskUnits="objectBoundingBox" fill="white">
   <use xlink:href="#path-3"/>
  </mask>
  <rect id="path-5" y="7.3451" x="1.7834" height="17.882" width="27.345"/>
  <mask id="mask-6" maskContentUnits="userSpaceOnUse" height="17.8824023" width="27.3453247" y="0" x="0" maskUnits="objectBoundingBox" fill="white">
   <use xlink:href="#path-5"/>
  </mask>
  <polygon id="path-7" points="27.345 0.072973 30.884 3.1165 27.345 9.2056 3.5668 9.2056 0.021227 3.1165 3.7253 0.34525"/>
  <mask id="mask-8" maskContentUnits="userSpaceOnUse" height="9.13266374" width="30.8623447" y="0" x="0" maskUnits="objectBoundingBox" fill="white">
   <use xlink:href="#path-7"/>
  </mask>
  <rect id="path-9" y="6.153" x="0" height="5.3647" width="30.912"/>
  <mask id="mask-10" maskContentUnits="userSpaceOnUse" height="5.36472069" width="30.9121061" y="0" x="0" maskUnits="objectBoundingBox" fill="white">
   <use xlink:href="#path-9"/>
  </mask>
  <rect id="path-11" rx="1.7882" height="3.5765" width="9.5114" y="13.306" x="10.7"/>
  <mask id="mask-12" maskContentUnits="userSpaceOnUse" height="3.57648046" width="9.51141727" y="0" x="0" maskUnits="objectBoundingBox" fill="white">
   <use xlink:href="#path-11"/>
  </mask>
  <rect id="path-13" y="7.3451" x="1.7834" height="17.882" width="27.345"/>
  <mask id="mask-14" maskContentUnits="userSpaceOnUse" height="17.8824023" width="27.3453247" y="0" x="0" maskUnits="objectBoundingBox" fill="white">
   <use xlink:href="#path-13"/>
  </mask>
  <polygon id="path-15" points="27.345 0.072973 30.884 3.1165 27.345 9.2056 3.5668 9.2056 0.021227 3.1165 3.7253 0.34525"/>
  <mask id="mask-16" maskContentUnits="userSpaceOnUse" height="9.13266374" width="30.8623447" y="0" x="0" maskUnits="objectBoundingBox" fill="white">
   <use xlink:href="#path-15"/>
  </mask>
  <rect id="path-17" y="6.153" x="0" height="5.3647" width="30.912"/>
  <mask id="mask-18" maskContentUnits="userSpaceOnUse" height="5.36472069" width="30.9121061" y="0" x="0" maskUnits="objectBoundingBox" fill="white">
   <use xlink:href="#path-17"/>
  </mask>
  <rect id="path-19" rx="1.7882" height="3.5765" width="9.5114" y="13.306" x="10.7"/>
  <mask id="mask-20" maskContentUnits="userSpaceOnUse" height="3.57648046" width="9.51141727" y="0" x="0" maskUnits="objectBoundingBox" fill="white">
   <use xlink:href="#path-19"/>
  </mask>
  <rect id="path-21" y="7.3451" x="1.7834" height="17.882" width="27.345"/>
  <mask id="mask-22" maskContentUnits="userSpaceOnUse" height="17.8824023" width="27.3453247" y="0" x="0" maskUnits="objectBoundingBox" fill="white">
   <use xlink:href="#path-21"/>
  </mask>
  <polygon id="path-23" points="27.345 0.072973 30.884 3.1165 27.345 9.2056 3.5668 9.2056 0.021227 3.1165 3.7253 0.34525"/>
  <mask id="mask-24" maskContentUnits="userSpaceOnUse" height="9.13266374" width="30.8623447" y="0" x="0" maskUnits="objectBoundingBox" fill="white">
   <use xlink:href="#path-23"/>
  </mask>
  <rect id="path-25" y="6.153" x="0" height="5.3647" width="30.912"/>
  <mask id="mask-26" maskContentUnits="userSpaceOnUse" height="5.36472069" width="30.9121061" y="0" x="0" maskUnits="objectBoundingBox" fill="white">
   <use xlink:href="#path-25"/>
  </mask>
  <rect id="path-27" rx="1.7882" height="3.5765" width="9.5114" y="13.306" x="10.7"/>
  <mask id="mask-28" maskContentUnits="userSpaceOnUse" height="3.57648046" width="9.51141727" y="0" x="0" maskUnits="objectBoundingBox" fill="white">
   <use xlink:href="#path-27"/>
  </mask>
  <rect id="path-29" y="22.155" x="7.4347" height="15.602" width="29.739"/>
  <mask id="mask-30" maskContentUnits="userSpaceOnUse" height="15.6018806" width="29.7386178" y="0" x="0" maskUnits="objectBoundingBox" fill="white">
   <use xlink:href="#path-29"/>
  </mask>
  <rect id="path-31" y="26.07" x="10.928" height="1.7528" width="7.8055"/>
  <mask id="mask-32" maskContentUnits="userSpaceOnUse" height="1.7528263" width="7.80551257" y="0" x="0" maskUnits="objectBoundingBox" fill="white">
   <use xlink:href="#path-31"/>
  </mask>
  <rect id="path-33" y="29.329" x="10.928" height="1.7528" width="7.8055"/>
  <mask id="mask-34" maskContentUnits="userSpaceOnUse" height="1.7528263" width="7.80551257" y="0" x="0" maskUnits="objectBoundingBox" fill="white">
   <use xlink:href="#path-33"/>
  </mask>
  <rect id="path-35" y="32.588" x="10.928" height="1.7528" width="15.611"/>
  <mask id="mask-36" maskContentUnits="userSpaceOnUse" height="1.7528263" width="15.6110251" y="0" x="0" maskUnits="objectBoundingBox" fill="white">
   <use xlink:href="#path-35"/>
  </mask>
 </defs>
 <g id="Page-1" fill-rule="evenodd" fill="none">
  <g id="Artboard-2" transform="translate(-110 -749)">
   <g id="Group-2" transform="translate(110 749)">
    <g id="conveyor-belt" transform="translate(77.701 61.487)">
     <g id="Group-3" transform="translate(0 .82259)">
      <rect id="Rectangle-2" rx="9.6255" height="19.251" width="153.15" y="0" x="0" fill="#D8C8C8"/>
      <use id="Rectangle-3" xlink:href="#path-1" mask="url(#mask-2)" stroke="#7B6C65" stroke-width="8" fill="#FFFFFF"/>
      <use id="Rectangle-3-Copy" xlink:href="#path-3" mask="url(#mask-4)" stroke="#857371" stroke-width="4" fill="#FFFFFF"/>
      <ellipse id="Oval-3" rx="7.4347" ry="7.7625" cy="9.936" cx="12.788" fill="#99837D"/>
      <ellipse id="Oval-3-Copy" rx="7.4347" ry="7.7625" cy="9.6255" cx="54.422" fill="#99837D"/>
      <ellipse id="Oval-3-Copy-2" rx="7.4347" ry="7.7625" cy="9.6255" cx="104.98" fill="#99837D"/>
      <ellipse id="Oval-3-Copy-3" rx="7.4347" ry="7.7625" cy="9.315" cx="142.15" fill="#99837D"/>
      <ellipse id="Oval-4" rx="4.4608" ry="4.6575" cy="9.936" cx="12.49" fill="#B6A7A0"/>
      <ellipse id="Oval-4-Copy" rx="4.4608" ry="4.6575" cy="9.6255" cx="54.422" fill="#B6A7A0"/>
      <ellipse id="Oval-4-Copy-2" rx="4.4608" ry="4.6575" cy="9.6255" cx="104.98" fill="#B6A7A0"/>
      <path id="Oval-4-Copy-3" fill="#B6A7A0" d="m142.15 13.662c2.46 0 4.46-2.085 4.46-4.6575 0-2.5723-2-4.6575-4.46-4.6575-1.94 0-3.6 1.2985-4.21 3.1102-0.16 0.4841-0.25 1.0049-0.25 1.5473 0 2.5725 2 4.6575 4.46 4.6575z"/>
     </g>
     <rect id="Rectangle-19" height="12.106" width="133.82" y="19.937" x="10.485" fill="#A29A9A"/>
     <rect id="Rectangle-21-Copy-2" height="22.342" width="4.6601" y="30.729" x="139.58" fill="#A29A9A"/>
     <rect id="Rectangle-21-Copy" height="22.342" width="5.3595" y="30.729" x="97.556" fill="#A29A9A"/>
     <rect id="Rectangle-21" height="22.342" width="5.3595" y="30.729" x="53.072" fill="#A29A9A"/>
     <rect id="Rectangle-21-Copy-3" height="22.342" width="5.3595" y="30.729" x="8.5876" fill="#A29A9A"/>
    </g>
    <g id="Group-4-Copy" stroke="#979797" stroke-width=".8" transform="translate(187.85 37.027)">
     <use id="Rectangle-20" xlink:href="#path-5" mask="url(#mask-6)" fill="#EFC65A"/>
     <use id="Rectangle-4-Copy" xlink:href="#path-7" transform="translate(15.452 4.6393) scale(1 -1) translate(-15.452 -4.6393)" mask="url(#mask-8)" fill="#E4D2D2"/>
     <use id="Rectangle-4" xlink:href="#path-9" mask="url(#mask-10)" fill="#E4D2D2"/>
     <use id="Rectangle-5" xlink:href="#path-11" mask="url(#mask-12)" fill="#FFFFFF"/>
    </g>
    <g id="Group-4-Copy-2" stroke="#979797" stroke-width=".8" transform="translate(135.69 37.027)">
     <use id="Rectangle-20" xlink:href="#path-13" mask="url(#mask-14)" fill="#EFC65A"/>
     <use id="Rectangle-4-Copy" xlink:href="#path-15" transform="translate(15.452 4.6393) scale(1 -1) translate(-15.452 -4.6393)" mask="url(#mask-16)" fill="#E4D2D2"/>
     <use id="Rectangle-4" xlink:href="#path-17" mask="url(#mask-18)" fill="#E4D2D2"/>
     <use id="Rectangle-5" xlink:href="#path-19" mask="url(#mask-20)" fill="#FFFFFF"/>
    </g>
    <g id="Group-4-Copy-3" stroke="#979797" stroke-width=".8" transform="translate(76.567 37.027)">
     <use id="Rectangle-20" xlink:href="#path-21" mask="url(#mask-22)" fill="#EFC65A"/>
     <use id="Rectangle-4-Copy" xlink:href="#path-23" transform="translate(15.452 4.6393) scale(1 -1) translate(-15.452 -4.6393)" mask="url(#mask-24)" fill="#E4D2D2"/>
     <use id="Rectangle-4" xlink:href="#path-25" mask="url(#mask-26)" fill="#E4D2D2"/>
     <use id="Rectangle-5" xlink:href="#path-27" mask="url(#mask-28)" fill="#FFFFFF"/>
    </g>
    <g id="box">
     <rect id="Rectangle" rx="1" height="12.482" width="59.477" y="0" x="13.977" fill="#857371"/>
     <rect id="Rectangle-7" rx="2" height="93.611" width="89.216" y="10.297" x="0" fill="#EFC65A"/>
     <ellipse id="Oval-2" rx="4.4608" cy="24.339" ry="4.6806" stroke="#F0896A" cx="49.366" fill="#F7F7F7"/>
     <ellipse id="Oval-2-Copy" rx="4.4608" cy="24.339" ry="4.6806" stroke="#F0896A" cx="62.748" fill="#F7F7F7"/>
     <path id="Line" stroke="#979797" stroke-linecap="square" d="m10.26 33.295h6.84"/>
     <path id="Rectangle-10" fill="#F7F7F7" d="m44.905 34.705c0-0.555 0.442-1.005 0.991-1.005h3.792 29.91c0.549 0 0.994 0.447 0.994 1.005v1.111c0 0.555-0.452 1.004-0.992 1.004h-33.703c-0.548 0-0.992-0.447-0.992-1.004v-1.111z"/>
     <rect id="Rectangle-10-Copy" rx="1" height="3.1204" width="35.686" y="39.941" x="44.905" fill="#F7F7F7"/>
     <rect id="Rectangle-10-Copy-2" rx="1" height="3.1204" width="35.686" y="46.182" x="44.905" fill="#F7F7F7"/>
     <rect id="Rectangle-9" height="15.479" width="89.216" y="99.471" x="0" fill="#857371"/>
     <rect id="Rectangle-11" height="4.6806" width="89.216" y="70.833" x="0" fill="#EDB053"/>
     <use id="Rectangle-16" xlink:href="#path-29" mask="url(#mask-30)" stroke="#EDB053" stroke-width="2" fill="#857371"/>
     <ellipse id="Oval" rx="1.0409" ry="1.0921" cy="27.303" cx="31.969" fill="#979797"/>
     <ellipse id="Oval-Copy" rx="1.0409" ry="1.0921" cy="30.112" cx="31.969" fill="#979797"/>
     <rect id="Rectangle-18" rx=".67135" height="1.3427" width="2.3791" y="39.005" x="9.5164" fill="#EDB053"/>
     <rect id="Rectangle-18-Copy" rx=".67135" height="1.3427" width="2.3791" y="39.005" x="13.382" fill="#EDB053"/>
     <rect id="Rectangle-18-Copy-2" rx=".67135" height="1.3427" width="2.3791" y="39.005" x="17.248" fill="#EDB053"/>
     <rect id="Rectangle-18-Copy-6" rx=".67135" height="1.3427" width="2.3791" y="39.005" x="32.712" fill="#EDB053"/>
     <rect id="Rectangle-18-Copy-7" rx=".67135" height="1.3427" width="2.3791" y="39.005" x="28.846" fill="#EDB053"/>
     <rect id="Rectangle-18-Copy-8" rx=".67135" height="1.3427" width="2.3791" y="39.005" x="24.98" fill="#EDB053"/>
     <rect id="Rectangle-18-Copy-9" rx=".67135" height="1.3427" width="2.3791" y="41.189" x="24.98" fill="#EDB053"/>
     <rect id="Rectangle-18-Copy-10" rx=".67135" height="1.3427" width="2.3791" y="41.189" x="28.846" fill="#EDB053"/>
     <rect id="Rectangle-18-Copy-11" rx=".67135" height="1.3427" width="2.3791" y="41.189" x="32.712" fill="#EDB053"/>
     <rect id="Rectangle-18-Copy-17" rx=".67135" height="1.3427" width="2.3791" y="45.557" x="32.712" fill="#EDB053"/>
     <rect id="Rectangle-18-Copy-16" rx=".67135" height="1.3427" width="2.3791" y="45.557" x="28.846" fill="#EDB053"/>
     <rect id="Rectangle-18-Copy-15" rx=".67135" height="1.3427" width="2.3791" y="45.557" x="24.98" fill="#EDB053"/>
     <rect id="Rectangle-18-Copy-14" rx=".67135" height="1.3427" width="2.3791" y="47.742" x="24.98" fill="#EDB053"/>
     <rect id="Rectangle-18-Copy-13" rx=".67135" height="1.3427" width="2.3791" y="47.742" x="28.846" fill="#EDB053"/>
     <rect id="Rectangle-18-Copy-12" rx=".67135" height="1.3427" width="2.3791" y="47.742" x="32.712" fill="#EDB053"/>
     <rect id="Rectangle-18-Copy-23" rx=".67135" height="1.3427" width="2.3791" y="45.557" x="17.248" fill="#EDB053"/>
     <rect id="Rectangle-18-Copy-22" rx=".67135" height="1.3427" width="2.3791" y="45.557" x="13.382" fill="#EDB053"/>
     <rect id="Rectangle-18-Copy-21" rx=".67135" height="1.3427" width="2.3791" y="45.557" x="9.5164" fill="#EDB053"/>
     <rect id="Rectangle-18-Copy-20" rx=".67135" height="1.3427" width="2.3791" y="47.742" x="9.5164" fill="#EDB053"/>
     <rect id="Rectangle-18-Copy-19" rx=".67135" height="1.3427" width="2.3791" y="47.742" x="13.382" fill="#EDB053"/>
     <rect id="Rectangle-18-Copy-18" rx=".67135" height="1.3427" width="2.3791" y="47.742" x="17.248" fill="#EDB053"/>
     <rect id="Rectangle-18-Copy-3" rx=".67135" height="1.3427" width="2.3791" y="41.189" x="17.248" fill="#EDB053"/>
     <rect id="Rectangle-18-Copy-4" rx=".67135" height="1.3427" width="2.3791" y="41.189" x="13.382" fill="#EDB053"/>
     <rect id="Rectangle-18-Copy-5" rx=".67135" height="1.3427" width="2.3791" y="41.189" x="9.5164" fill="#EDB053"/>
     <ellipse id="Oval-2-Copy-2" rx="4.4608" cy="24.339" ry="4.6806" stroke="#F0896A" cx="76.131" fill="#F7F7F7"/>
     <use id="Rectangle-22" xlink:href="#path-31" mask="url(#mask-32)" stroke="#979797" stroke-width="2" fill="#D8D8D8"/>
     <use id="Rectangle-22-Copy" xlink:href="#path-33" mask="url(#mask-34)" stroke="#979797" stroke-width="2" fill="#D8D8D8"/>
     <use id="Rectangle-22-Copy-2" xlink:href="#path-35" mask="url(#mask-36)" stroke="#979797" stroke-width="2" fill="#D8D8D8"/>
     <polyline id="Line" stroke="#857371" stroke-width=".7" stroke-linecap="square" points="47.959 22.261 49.933 24.231 47.362 27.235"/>
     <polyline id="Line-Copy-2" transform="translate(76.45 23.454) scale(-1) translate(-76.45 -23.454)" stroke="#857371" stroke-linecap="square" stroke-width=".7" points="75.764 21.201 77.137 22.468 77.042 25.707"/>
     <polyline id="Line-Copy" transform="translate(63.557 25.392) scale(-1) translate(-63.557 -25.392)" stroke="#857371" stroke-linecap="square" stroke-width=".7" points="64.298 23.274 64.696 26.979 62.419 27.509"/>
    </g>
   </g>
  </g>
 </g>
</svg>
